SplineFontDB: 1.0
FontName: URWPalladioL-Ital
FullName: URW Palladio L Italic
FamilyName: URW Palladio L
Weight: Regular
Copyright: Copyright (URW)++,Copyright 1999 by (URW)++ Design & Development; Cyrillic glyphs added by Valek Filippov (C) 2001
Version: 1.06
ItalicAngle: -9.5
UnderlinePosition: -100
UnderlineWidth: 50
Ascent: 800
Descent: 200
NeedsXUIDChange: 1
UniqueID: 4162307
FSType: 12
OS2WinAscent: 0
OS2WinAOffset: 1
OS2WinDescent: 0
OS2WinDOffset: 1
HheadAscent: 0
HheadAOffset: 1
HheadDescent: 0
HheadDOffset: 1
ScriptLang: 2
 1 latn 1 dflt 
 1 DFLT 1 dflt 
Encoding: adobestandard
UnicodeInterp: none
DisplaySize: -36
AntiAlias: 1
FitToEm: 1
WinInfo: 330 30 14
BeginPrivate: 7
BlueValues 23 [-20 0 471 491 692 712]
BlueScale 8 0.039625
StdHW 4 [38]
StdVW 4 [78]
StemSnapH 203 [33 38 43 48 53 59 63] 
systemdict /internaldict known
{1183615869 systemdict /internaldict get exec
/StemSnapLength 2 copy known { get 7 lt } { pop pop true } ifelse }
{ true } ifelse { pop [38 43] } if
StemSnapV 2 []
ForceBold 5 false
EndPrivate
BeginChars: 769 662
StartChar: exclam
Encoding: 33 33 2
Width: 333
Flags: W
HStem: -8 117<120 136>
Fore
136 109 m 0
 161 109 181 88 181 61 c 0
 181 24 153 -8 120 -8 c 0
 93 -8 76 10 76 39 c 0
 76 77 103 109 136 109 c 0
196 707 m 1
 281 733 l 1
 292 724 l 1
 245 543 231 484 169 208 c 1
 139 191 l 1
 133 194 l 1
 154 348 l 2
 163 414 181 560 189 636 c 1
 196 707 l 1
EndSplineSet
EndChar
StartChar: quotedbl
Encoding: 34 34 3
Width: 500
Flags: W
Fore
170 508 m 1
 140 508 l 1
 202 695 l 2
 210 720 226 733 247 733 c 0
 270 733 288 716 288 694 c 0
 288 681 285 669 279 661 c 2
 170 508 l 1
337 508 m 1
 307 508 l 1
 369 695 l 2
 377 720 393 733 414 733 c 0
 437 733 455 716 455 694 c 0
 455 681 452 669 446 661 c 2
 337 508 l 1
EndSplineSet
EndChar
StartChar: numbersign
Encoding: 35 35 4
Width: 500
Flags: W
HStem: 0 21G<78 136 272 330> 227 56<4 111 178 303 370 470> 423 56<31 141 207 332 398 495> 423 269<180 332 370 495>
DStem: 111 227 169 227 78 0 136 0 141 423 199 423 120 283 178 283 180 692 238 692 149 479 207 479 303 227 361 227 272 0 330 0 332 423 390 423 312 283 370 283 370 692 428 692 340 479 398 479
Fore
470 283 m 1xd0
 470 227 l 1
 361 227 l 1
 330 0 l 1
 272 0 l 1
 303 227 l 1
 169 227 l 1
 136 0 l 1
 78 0 l 1
 111 227 l 1
 4 227 l 1
 4 283 l 1
 120 283 l 1
 141 423 l 1
 31 423 l 1
 31 479 l 1
 149 479 l 1xe0
 180 692 l 1
 238 692 l 1xd0
 207 479 l 1
 340 479 l 1xe0
 370 692 l 1
 428 692 l 1xd0
 398 479 l 1
 495 479 l 1
 495 423 l 1xe0
 390 423 l 1
 370 283 l 1
 470 283 l 1xd0
332 423 m 1
 199 423 l 1xd0
 178 283 l 1
 312 283 l 1
 332 423 l 1
EndSplineSet
EndChar
StartChar: dollar
Encoding: 36 36 5
Width: 500
Flags: W
VStem: 72 67<449 480> 360 74<193 224>
DStem: 170 -12 205 -11 150 -113 191 -113 222 305 255 301 178 32 212 32 274 628 308 628 234 377 267 371 289 733 326 733 280 671 316 673
Fore
289 733 m 1
 326 733 l 1
 316 673 l 1
 374 672 413 663 450 639 c 1
 452 629 l 1
 442 592 433 552 427 514 c 1
 403 514 l 1
 403 586 l 1
 383 608 346 624 308 628 c 1
 267 371 l 1
 334 360 364 349 391 326 c 0
 419 303 434 268 434 224 c 0
 434 152 394 82 324 34 c 0
 286 8 258 -3 205 -11 c 1
 191 -113 l 1
 150 -113 l 1
 170 -12 l 1
 79 -2 43 8 15 30 c 1
 24 68 30 104 37 175 c 1
 63 175 l 1
 63 85 l 1
 87 57 119 42 178 32 c 1
 222 305 l 1
 112 329 72 368 72 449 c 0
 72 513 100 570 154 613 c 0
 187 640 215 653 280 671 c 1
 289 733 l 1
255 301 m 1
 212 32 l 1
 248 34 268 41 294 59 c 1
 335 90 360 140 360 193 c 0
 360 255 334 282 255 301 c 1
234 377 m 1
 274 628 l 1
 241 627 223 622 200 605 c 0
 163 579 139 530 139 480 c 0
 139 425 166 396 234 377 c 1
EndSplineSet
EndChar
StartChar: percent
Encoding: 37 37 6
Width: 889
Flags: W
HStem: 0 23<628 640> 297 23<677 683> 379 23<204 219> 676 23<254 267>
VStem: 74 70<499 524> 320 66<562 589> 497 70<120 145> 743 66<183 210>
DStem: 630 710 674 710 206 -7 247 -7
Fore
254 699 m 0
 330 699 386 641 386 562 c 0
 386 459 311 379 215 379 c 0
 134 379 74 440 74 522 c 0
 74 616 159 699 254 699 c 0
254 676 m 0
 192 676 144 599 144 499 c 0
 144 439 171 402 214 402 c 0
 243 402 268 419 288 453 c 0
 307 487 320 542 320 589 c 0
 320 644 296 676 254 676 c 0
677 320 m 0
 753 320 809 262 809 183 c 0
 809 80 734 0 638 0 c 0
 557 0 497 61 497 143 c 0
 497 237 582 320 677 320 c 0
677 297 m 0
 615 297 567 220 567 120 c 0
 567 60 594 23 637 23 c 0
 666 23 691 40 711 74 c 0
 730 108 743 163 743 210 c 0
 743 265 719 297 677 297 c 0
247 -7 m 1
 206 -7 l 1
 630 710 l 1
 674 710 l 1
 247 -7 l 1
EndSplineSet
EndChar
StartChar: ampersand
Encoding: 38 38 7
Width: 778
Flags: W
HStem: -18 47<287 333> 369 50<349.076 369> 642 50<375 417>
VStem: 47 83<173 194> 177 72<490 522> 564 70<199 223> 731 35<444 458>
Fore
488 548 m 1
 465 548 l 1
 465 610 l 1
 430 633 404 642 375 642 c 0
 305 642 249 589 249 522 c 0
 249 477 273 444 318 428 c 0
 339 420 349 419 389 419 c 1
 381 401 l 2
 374 387 369 375 369 371 c 2
 369 369 l 1
 333 369 l 2
 213 369 130 297 130 194 c 0
 130 96 212 29 333 29 c 0
 456 29 564 109 564 199 c 0
 564 252 527 288 474 288 c 0
 427 288 412 271 397 205 c 1
 374 207 l 1
 382 306 l 1
 413 336 434 345 507 357 c 2
 618 375 l 2
 695 388 731 413 731 456 c 0
 731 481 723 492 693 508 c 1
 714 524 l 1
 752 506 766 484 766 444 c 0
 766 378 719 332 640 321 c 2
 555 309 l 1
 572 307 l 2
 604 304 634 262 634 223 c 0
 634 151 569 74 463 22 c 1
 415 -3 347 -18 287 -18 c 0
 140 -18 47 56 47 173 c 0
 47 230 68 279 107 314 c 1
 144 345 175 362 256 390 c 1
 200 416 177 445 177 490 c 0
 177 558 245 637 337 676 c 0
 362 687 388 692 417 692 c 0
 453 692 482 684 514 667 c 1
 488 548 l 1
EndSplineSet
EndChar
StartChar: quoteright
Encoding: 39 8217 8
Width: 278
Flags: W
Fore
249 733 m 1
 258 715 l 1
 209 621 168 559 117 501 c 1
 85 488 l 1
 78 497 l 1
 125 570 150 632 160 708 c 1
 186 712 216 721 249 733 c 1
EndSplineSet
KernsSLIF: 121 -40 1 0 119 -33 1 0 118 -33 1 0 116 -56 1 0 115 -49 1 0 114 -47 1 0 46 -81 1 0 111 -60 1 0 100 -68 1 0 44 -100 1 0 262 -143 1 0 256 -143 1 0 257 -143 1 0 225 -147 1 0 65 -143 1 0
EndChar
StartChar: parenleft
Encoding: 40 40 9
Width: 333
Flags: W
VStem: 54 72<210 257>
Fore
308 733 m 1
 331 712 l 1
 239 607 204 553 171 469 c 0
 141 392 126 305 126 210 c 0
 126 114 142 29 174 -38 c 2
 200 -93 l 1
 178 -106 l 1
 116 -6 93 41 75 104 c 0
 62 151 54 208 54 257 c 0
 54 358 82 449 139 539 c 0
 180 603 218 647 308 733 c 1
EndSplineSet
EndChar
StartChar: parenright
Encoding: 41 41 10
Width: 333
Flags: W
VStem: 207 72<370 417>
Fore
25 -106 m 1
 2 -85 l 1
 94 20 129 74 162 158 c 0
 192 235 207 323 207 417 c 0
 207 512 190 598 159 665 c 2
 133 720 l 1
 155 733 l 1
 217 633 240 586 258 523 c 0
 271 476 279 419 279 370 c 0
 279 269 251 178 193 88 c 0
 153 25 115 -19 25 -106 c 1
EndSplineSet
EndChar
StartChar: asterisk
Encoding: 42 42 11
Width: 389
Flags: W
DStem: 387 574 387 574 247 549 394 569
Fore
76 608 m 1
 109 665 l 1
 119 665 l 1
 223 560 l 1
 245 701 l 1
 255 706 l 1
 318 688 l 1
 318 680 l 1
 247 549 l 1
 387 574 l 1
 394 569 l 1
 400 511 l 1
 394 505 l 1
 249 524 l 1
 314 404 l 1
 310 396 l 1
 252 368 l 1
 245 372 l 1
 223 514 l 1
 116 417 l 1
 104 417 l 1
 78 474 l 1
 82 481 l 1
 209 537 l 1
 81 599 l 1
 76 608 l 1
EndSplineSet
EndChar
StartChar: plus
Encoding: 43 43 12
Width: 606
Flags: W
HStem: 0 21G<275 331> 224 56<51 275 331 555>
VStem: 275 56<0 224 280 504>
Fore
275 280 m 1
 275 504 l 1
 331 504 l 1
 331 280 l 1
 555 280 l 1
 555 224 l 1
 331 224 l 1
 331 0 l 1
 275 0 l 1
 275 224 l 1
 51 224 l 1
 51 280 l 1
 275 280 l 1
EndSplineSet
EndChar
StartChar: comma
Encoding: 44 44 13
Width: 250
Flags: W
Fore
15 -143 m 1
 8 -133 l 1
 48 -82 73 -27 95 62 c 2
 103 94 l 1
 194 123 l 1
 203 110 l 1
 169 31 123 -40 50 -130 c 1
 15 -143 l 1
EndSplineSet
KernsSLIF: 186 -9 1 0 49 -24 1 0
EndChar
StartChar: hyphen
Encoding: 45 45 14
Width: 333
Flags: W
HStem: 223 58<37 286>
Fore
19 223 m 1
 38 281 l 1
 304 281 l 1
 286 223 l 1
 19 223 l 1
EndSplineSet
KernsSLIF: 89 -75 1 0 87 -19 1 0 86 -41 1 0 84 -58 1 0 262 -27 1 0 256 -27 1 0 257 -27 1 0 225 -35 1 0 65 -27 1 0
EndChar
StartChar: period
Encoding: 46 46 15
Width: 250
Flags: W
HStem: -5 21G<83.5 113.5>
Fore
113 112 m 0
 138 112 158 91 158 64 c 0
 158 27 130 -5 97 -5 c 0
 70 -5 53 13 53 42 c 0
 53 80 80 112 113 112 c 0
EndSplineSet
KernsSLIF: 39 -21 1 0 186 -31 1 0 49 -37 1 0
EndChar
StartChar: slash
Encoding: 47 47 16
Width: 296
Flags: W
DStem: 332 733 392 733 -40 -119 20 -119
Fore
392 733 m 1
 20 -119 l 1
 -40 -119 l 1
 332 733 l 1
 392 733 l 1
EndSplineSet
EndChar
StartChar: zero
Encoding: 48 48 17
Width: 500
Flags: W
HStem: -11 29<206 214> 670 29<291 310>
VStem: 36 76<178 231> 404 76<463 502>
Fore
308 699 m 0
 414 699 480 611 480 468 c 0
 480 345 449 210 400 121 c 0
 352 33 287 -11 208 -11 c 0
 98 -11 36 76 36 231 c 0
 36 367 74 511 133 597 c 0
 180 665 238 699 308 699 c 0
302 670 m 0
 231 670 187 610 150 465 c 0
 127 372 112 261 112 178 c 0
 112 72 145 18 212 18 c 0
 272 18 315 65 351 171 c 0
 381 258 404 403 404 502 c 0
 404 615 371 670 302 670 c 0
EndSplineSet
KernsSLIF: 55 -22 1 0 49 -13 1 0 52 3 1 0
EndChar
StartChar: one
Encoding: 49 49 18
Width: 500
Flags: W
HStem: 0 21G<197.5 250.5>
DStem: 278 629 374 688 192 102 350 573 278 629 350 573 192 102 276 136
Fore
374 688 m 1
 350 573 l 1
 276 136 l 2
 269 94 268 87 268 76 c 0
 268 41 281 31 327 28 c 2
 398 24 l 1
 393 -3 l 1
 324 -1 277 0 224 0 c 0
 171 0 123 -1 54 -3 c 1
 59 24 l 1
 144 34 l 2
 175 39 183 50 192 102 c 1
 278 629 l 1
 242 615 l 2
 210 602 176 588 175 587 c 2
 91 546 l 1
 84 551 l 1
 95 610 l 1
 119 616 l 2
 191 634 221 642 259 658 c 2
 359 699 l 1
 374 688 l 1
EndSplineSet
KernsSLIF: 48 -44 1 0 50 -15 1 0 51 -27 1 0 54 -60 1 0 55 -38 1 0 46 -36 1 0 49 -38 1 0 57 -39 1 0 52 -63 1 0 53 -23 1 0 56 -47 1 0 44 -50 1 0
EndChar
StartChar: two
Encoding: 50 50 19
Width: 500
Flags: W
HStem: 0 63<101 317> 634 65<241 268>
VStem: 352 85<521 540>
Fore
101 63 m 1
 311 63 l 2
 346 63 380 66 426 74 c 1
 432 66 l 1
 415 -3 l 1
 347 -1 275 0 214 0 c 0
 153 0 80 -1 12 -3 c 1
 12 15 l 1
 61 67 l 2
 138 150 209 232 251 286 c 0
 315 369 352 455 352 523 c 0
 352 589 307 634 241 634 c 0
 184 634 147 606 98 526 c 1
 76 535 l 1
 136 655 l 1
 180 687 217 699 268 699 c 0
 371 699 437 636 437 538 c 0
 437 469 405 394 348 332 c 2
 101 63 l 1
EndSplineSet
KernsSLIF: 55 -27 1 0 49 -26 1 0 52 -42 1 0
EndChar
StartChar: three
Encoding: 51 51 20
Width: 500
Flags: W
HStem: -11 34<170 195> 362 37<204 226> 638 61<259 286>
VStem: 360 79<545 569> 361 86<226 246>
DStem: 170 668 152 580 112 569 131 556
Fore
22 33 m 1xe8
 50 178 l 1
 74 173 l 1
 71 149 70 140 70 130 c 0
 70 64 117 23 193 23 c 0
 234 23 270 38 297 66 c 0
 337 107 361 167 361 228 c 0xe8
 361 313 311 362 226 362 c 0
 201 362 184 359 148 346 c 1
 142 358 l 1
 160 401 l 1
 169 401 l 2
 170 401 174 401 182 400 c 2
 204 399 l 2
 291 399 360 464 360 545 c 0
 360 601 320 638 259 638 c 0
 215 638 191 625 152 580 c 2
 131 556 l 1
 112 569 l 1
 170 668 l 1
 220 691 250 699 286 699 c 0
 377 699 439 646 439 569 c 0xf0
 439 497 399 448 294 393 c 1
 347 380 370 371 395 353 c 0
 430 326 447 287 447 235 c 0
 447 99 323 -11 170 -11 c 0
 111 -11 70 1 22 33 c 1xe8
EndSplineSet
KernsSLIF: 55 -32 1 0 49 -31 1 0 52 7 1 0
EndChar
StartChar: four
Encoding: 52 52 21
Width: 500
Flags: W
HStem: 0 21G<245 296.5> 192 56<75 268 346 429>
DStem: 345 621 429 694 278 248 346 248 352 684 345 621 15 223 75 248 421 699 421 699 352 684 429 694
Fore
15 223 m 1
 352 684 l 1
 421 699 l 1
 429 694 l 1
 346 248 l 1
 474 248 l 1
 478 243 l 1
 462 188 l 1
 444 189 l 2
 427 190 415 191 409 191 c 2
 336 191 l 1
 327 138 l 2
 321 103 318 75 318 54 c 0
 318 42 327 37 354 34 c 2
 441 24 l 1
 436 -3 l 1
 368 -1 322 0 271 0 c 0
 219 0 172 -1 105 -3 c 1
 110 24 l 1
 196 34 l 2
 229 38 239 48 248 90 c 1
 268 192 l 1
 15 192 l 1
 15 223 l 1
345 621 m 1
 75 248 l 1
 278 248 l 1
 345 621 l 1
EndSplineSet
KernsSLIF: 55 -16 1 0 49 -16 1 0 52 21 1 0
EndChar
StartChar: five
Encoding: 53 53 22
Width: 500
Flags: W
HStem: -11 36<168 191> 389 45<235 276> 618 68<285 367>
VStem: 359 86<245 268>
DStem: 158 688 188 623 94 338 137 382
Fore
115 329 m 1
 94 338 l 1
 158 688 l 1
 166 693 l 1
 187 692 l 2
 248 688 292 686 333 686 c 0
 357 686 415 687 453 689 c 2
 485 690 l 1
 491 681 l 1
 456 623 l 1
 405 620 350 618 309 618 c 0
 271 618 229 620 188 623 c 1
 137 382 l 1
 177 418 220 434 276 434 c 0
 379 434 445 368 445 266 c 0
 445 223 431 172 407 128 c 0
 360 41 270 -11 169 -11 c 0
 106 -11 62 4 14 41 c 1
 23 73 32 115 43 180 c 1
 66 175 l 1
 64 159 63 146 63 136 c 0
 63 69 113 25 187 25 c 0
 230 25 266 40 293 68 c 0
 335 111 359 177 359 247 c 0
 359 337 314 389 235 389 c 0
 189 389 158 373 115 329 c 1
EndSplineSet
KernsSLIF: 55 -15 1 0 49 -38 1 0 52 3 1 0
EndChar
StartChar: six
Encoding: 54 54 23
Width: 500
Flags: W
HStem: -11 46<202 234> 362 55<265 312> 653 46<380 421>
VStem: 49 76<172 200> 372 76<236 263>
Fore
469 694 m 1
 453 635 l 1
 445 635 l 1
 414 650 403 653 380 653 c 0
 314 653 254 610 209 531 c 0
 177 475 155 411 133 311 c 1
 195 387 245 417 312 417 c 0
 397 417 448 360 448 263 c 0
 448 215 436 166 413 125 c 0
 369 46 282 -11 202 -11 c 0
 106 -11 49 68 49 200 c 0
 49 332 96 463 182 568 c 0
 256 659 329 699 421 699 c 0
 440 699 455 697 469 694 c 1
265 362 m 0
 184 362 125 283 125 174 c 0
 125 90 168 35 234 35 c 0
 313 35 372 120 372 236 c 0
 372 315 332 362 265 362 c 0
EndSplineSet
KernsSLIF: 55 -25 1 0 49 -44 1 0 52 6 1 0
EndChar
StartChar: seven
Encoding: 55 55 24
Width: 500
Flags: W
HStem: 613 74<186 432>
DStem: 432 613 502 653 154 164 376 450
Fore
53 5 m 1
 74 37 l 1
 154 164 l 1
 432 613 l 1
 190 613 l 2
 172 613 161 612 111 609 c 2
 91 608 l 1
 85 612 l 1
 101 692 l 1
 145 691 177 690 186 690 c 2
 326 687 l 1
 395 686 l 1
 403 686 l 2
 420 686 446 687 480 688 c 2
 502 688 l 1
 502 653 l 1
 376 450 l 2
 297 323 214 163 140 -3 c 1
 116 -1 116 -1 102 0 c 0
 96 0 89 0 77 -2 c 0
 74 -2 67 -2 58 -3 c 1
 53 5 l 1
EndSplineSet
KernsSLIF: 50 -20 1 0 51 -30 1 0 54 -58 1 0 55 -3 1 0 46 -105 1 0 49 -14 1 0 52 -79 1 0 53 -31 1 0 56 -43 1 0 44 -124 1 0 58 -78 1 0
EndChar
StartChar: eight
Encoding: 56 56 25
Width: 500
Flags: W
HStem: -11 42<188 221> 657 42<304 336>
VStem: 36 76<128 150> 117 68<490 522> 355 76<195 228> 401 68<554 576>
Fore
217 352 m 1xf8
 148 391 117 434 117 490 c 0
 117 594 228 699 336 699 c 0
 417 699 469 651 469 576 c 0xf4
 469 500 434 454 320 378 c 1
 407 330 431 297 431 228 c 0
 431 102 316 -11 188 -11 c 0
 96 -11 36 45 36 130 c 0
 36 181 57 229 98 272 c 0
 129 304 155 322 217 352 c 1xf8
273 321 m 2
 244 338 l 1
 156 292 112 229 112 148 c 0
 112 75 152 31 221 31 c 0
 299 31 355 100 355 195 c 0xf8
 355 255 337 284 273 321 c 2
257 413 m 2
 291 394 l 1
 364 441 401 495 401 556 c 0xf4
 401 616 362 657 304 657 c 0
 236 657 185 599 185 522 c 0
 185 478 211 439 257 413 c 2
EndSplineSet
KernsSLIF: 55 -17 1 0 49 -16 1 0 52 -1 1 0
EndChar
StartChar: nine
Encoding: 57 57 26
Width: 500
Flags: W
HStem: -11 48<142 168> 276 54<219 259> 654 45<283 312>
VStem: 71 76<440 469> 392 76<481 510>
Fore
32 111 m 1
 53 119 l 1
 84 60 117 37 168 37 c 0
 232 37 285 79 324 162 c 0
 349 214 365 270 386 377 c 1
 327 303 282 276 219 276 c 0
 130 276 71 341 71 440 c 0
 71 579 183 699 312 699 c 0
 414 699 468 623 468 481 c 0
 468 345 427 213 355 118 c 0
 293 36 215 -11 142 -11 c 0
 116 -11 89 -5 63 8 c 1
 61 16 60 19 56 34 c 0
 46 73 41 90 32 111 c 1
283 654 m 0
 204 654 147 577 147 469 c 0
 147 381 188 330 259 330 c 0
 336 330 392 405 392 508 c 0
 392 596 349 654 283 654 c 0
EndSplineSet
KernsSLIF: 55 -25 1 0 49 -18 1 0 52 -10 1 0
EndChar
StartChar: colon
Encoding: 58 58 27
Width: 250
Flags: W
HStem: -5 117<88 104> 341 117<146 162>
Fore
104 112 m 0
 129 112 149 91 149 64 c 0
 149 27 121 -5 88 -5 c 0
 61 -5 44 13 44 42 c 0
 44 80 71 112 104 112 c 0
162 458 m 0
 187 458 207 437 207 410 c 0
 207 372 180 341 146 341 c 0
 119 341 102 359 102 388 c 0
 102 426 129 458 162 458 c 0
EndSplineSet
EndChar
StartChar: semicolon
Encoding: 59 59 28
Width: 250
Flags: W
HStem: 339 117<158 174>
Fore
-2 -146 m 1
 -9 -136 l 1
 31 -85 56 -30 78 59 c 2
 86 91 l 1
 177 120 l 1
 186 107 l 1
 152 28 106 -43 33 -133 c 1
 -2 -146 l 1
174 456 m 0
 199 456 219 435 219 408 c 0
 219 370 192 339 158 339 c 0
 131 339 114 357 114 386 c 0
 114 424 141 456 174 456 c 0
EndSplineSet
EndChar
StartChar: less
Encoding: 60 60 29
Width: 606
Flags: W
DStem: 53 232 125 259 554 -2 554 62 554 524 554 460 53 290 125 259
Fore
554 -2 m 1
 53 232 l 1
 53 290 l 1
 554 524 l 1
 554 460 l 1
 125 259 l 1
 554 62 l 1
 554 -2 l 1
EndSplineSet
EndChar
StartChar: equal
Encoding: 61 61 30
Width: 606
Flags: W
HStem: 126 56<51 555> 322 56<51 555>
Fore
555 378 m 1
 555 322 l 1
 51 322 l 1
 51 378 l 1
 555 378 l 1
555 182 m 1
 555 126 l 1
 51 126 l 1
 51 182 l 1
 555 182 l 1
EndSplineSet
EndChar
StartChar: greater
Encoding: 62 62 31
Width: 606
Flags: W
DStem: 53 460 53 524 482 259 554 290 482 259 554 232 53 62 53 -2
Fore
53 -2 m 1
 53 62 l 1
 482 259 l 1
 53 460 l 1
 53 524 l 1
 554 290 l 1
 554 232 l 1
 53 -2 l 1
EndSplineSet
EndChar
StartChar: question
Encoding: 63 63 32
Width: 500
Flags: W
HStem: -8 117<158 174> 647 59<246 270>
VStem: 114 105<39 61> 163 36<247 258> 345 82<560 574>
Fore
137 565 m 1xd8
 115 571 l 1
 117 577 120 585 125 597 c 2
 130 608 l 1
 155 669 l 1
 199 696 230 706 270 706 c 0
 364 706 427 652 427 572 c 0
 427 520 405 477 353 427 c 2
 249 327 l 2
 211 291 199 272 199 250 c 0
 199 233 207 219 226 199 c 1
 201 193 l 1
 176 209 163 230 163 256 c 0
 163 291 179 323 218 367 c 2
 288 446 l 2
 326 489 345 527 345 562 c 0
 345 611 303 647 246 647 c 0
 205 647 183 634 157 595 c 2
 137 565 l 1xd8
174 109 m 0
 199 109 219 88 219 61 c 0
 219 24 191 -8 158 -8 c 0
 131 -8 114 10 114 39 c 0xe8
 114 77 141 109 174 109 c 0
EndSplineSet
EndChar
StartChar: at
Encoding: 64 64 33
Width: 747
Flags: W
HStem: -18 45<372 416> 138 27<486 508> 494 24<374 391> 661 45<372 416>
VStem: 27 45<317 367> 160 76<260 292> 677 41<397 431>
DStem: 483 509 558 509 463 433 479 218
Fore
666 176 m 1
 713 176 l 1
 683 124 667 103 636 75 c 0
 568 14 484 -18 394 -18 c 0
 187 -18 27 138 27 338 c 0
 27 545 186 706 389 706 c 0
 575 706 718 578 718 413 c 0
 718 338 692 271 645 221 c 0
 599 172 533 138 486 138 c 0
 444 138 418 170 414 226 c 1
 365 161 340 144 292 144 c 0
 218 144 160 209 160 292 c 0
 160 406 266 518 374 518 c 0
 424 518 451 493 463 433 c 1
 483 509 l 1
 558 509 l 1
 479 218 l 2
 478 214 477 206 477 202 c 0
 477 181 491 165 508 165 c 0
 530 165 568 188 597 217 c 0
 648 270 677 339 677 410 c 0
 677 550 551 661 391 661 c 0
 210 661 72 523 72 344 c 0
 72 163 212 27 399 27 c 0
 470 27 533 48 589 92 c 0
 618 114 635 132 666 176 c 1
389 494 m 0
 363 494 336 481 315 459 c 0
 268 409 236 328 236 260 c 0
 236 208 265 168 303 168 c 0
 339 168 371 192 398 241 c 0
 425 288 446 366 446 417 c 0
 446 461 422 494 389 494 c 0
EndSplineSet
EndChar
StartChar: A
Encoding: 65 65 34
Width: 722
Flags: W
HStem: 0 21G<83 102.5 545 565> 277 36<270 491> 685 20G<462 508>
DStem: 449 601 508 705 486 313 595 80 462 705 449 601 89 112 270 313 462 705 245 277 89 112 143 102 491 277 508 705 516 89 595 80
Fore
462 705 m 1
 508 705 l 1
 595 80 l 1
 603 35 604 35 651 28 c 2
 677 25 l 1
 677 -3 l 1
 575 0 575 0 555 0 c 0
 535 0 535 0 433 -3 c 1
 433 25 l 1
 477 28 l 2
 505 30 520 39 520 55 c 0
 520 59 519 69 518 77 c 0
 517 82 516 85 516 86 c 2
 516 89 l 1
 491 277 l 1
 245 277 l 1
 143 102 l 2
 124 69 117 55 117 47 c 0
 117 38 132 29 148 28 c 2
 200 25 l 1
 200 -3 l 1
 114 0 112 0 93 0 c 0
 73 0 73 0 -19 -3 c 1
 -19 27 l 1
 1 32 l 2
 35 40 53 56 89 112 c 1
 462 705 l 1
449 601 m 1
 270 313 l 1
 486 313 l 1
 449 601 l 1
EndSplineSet
KernsSLIF: 121 -37 0 0 119 -38 0 0 118 -42 0 0 117 -23 0 0 116 -17 0 0 39 -66 0 0 186 -76 0 0 113 -3 0 0 46 -7 0 0 111 -16 0 0 45 -7 0 0 172 -56 0 0 171 -56 0 0 103 -34 0 0 101 -11 0 0 100 -1 0 0 44 -20 0 0 332 -17 0 0 99 -17 0 0 98 -15 0 0 97 6 0 0 89 -58 0 0 87 -71 0 0 86 -93 0 0 300 -51 0 0 298 -51 0 0 301 -51 0 0 299 -51 0 0 85 -51 0 0 84 -35 0 0 81 -47 0 0 286 -47 0 0 79 -47 0 0 71 -47 0 0 264 -44 0 0 67 -44 0 0
EndChar
StartChar: B
Encoding: 66 66 35
Width: 611
Flags: W
HStem: -6 40<265 299> 340 36<223 302> 650 39<251 289.855>
VStem: 455 88<209 229> 473 86<543 564>
DStem: 176 559 272 650 89 55 223 376 176 559 217 340 89 55 166 41
Fore
97 664 m 1xf0
 100 692 l 1
 152 691 l 2
 201 690 232 689 251 689 c 0
 263 689 299 689 311 690 c 2
 374 691 l 2
 389 692 399 692 401 692 c 0
 501 692 559 644 559 562 c 0xe8
 559 511 536 464 490 425 c 1
 459 397 434 385 377 365 c 1
 446 355 476 346 502 325 c 0
 529 303 543 270 543 227 c 0
 543 151 499 83 420 36 c 0
 373 8 325 -6 277 -6 c 0
 269 -6 256 -5 237 -4 c 2
 217 -3 l 1
 180 -2 l 2
 154 -1 128 0 117 0 c 0
 105 0 90 0 63 -2 c 2
 26 -3 l 1
 31 23 l 1
 73 30 85 37 89 55 c 1
 176 559 l 2
 181 589 185 621 185 635 c 0
 185 653 174 661 150 662 c 2
 97 664 l 1xf0
217 340 m 1
 166 41 l 1
 182 40 194 39 200 38 c 0
 233 35 262 34 282 34 c 0
 382 34 455 108 455 211 c 0xf0
 455 298 405 340 302 340 c 2
 217 340 l 1
272 650 m 1
 223 376 l 1
 275 376 l 2
 399 376 473 439 473 544 c 0xe8
 473 619 433 655 352 655 c 0
 340 655 327 654 306 652 c 0
 285 651 283 650 272 650 c 1
EndSplineSet
KernsSLIF: 89 -17 0 0 87 -38 0 0 86 -40 0 0 233 -13 0 0 288 -14 0 0 286 -14 0 0 289 -14 0 0 287 -14 0 0 234 -14 0 0 79 -14 0 0 261 -42 0 0 262 -42 0 0 256 -42 0 0 259 -42 0 0 257 -42 0 0 225 -49 0 0 65 -42 0 0
EndChar
StartChar: C
Encoding: 67 67 36
Width: 667
Flags: W
HStem: -18 53<343 376> 653 53<418 456>
VStem: 45 88<282 311>
Fore
597 519 m 1
 597 603 l 1
 541 639 489 653 418 653 c 0
 339 653 275 629 228 581 c 0
 167 519 133 420 133 309 c 0
 133 131 219 35 376 35 c 0
 454 35 506 53 600 110 c 1
 610 103 l 1
 600 67 l 1
 510 5 439 -18 343 -18 c 0
 152 -18 45 90 45 284 c 0
 45 437 105 555 222 634 c 0
 292 681 374 706 456 706 c 0
 518 706 575 694 651 665 c 1
 637 619 629 576 624 519 c 1
 597 519 l 1
EndSplineSet
KernsSLIF: 286 -29 0 0 287 -29 0 0 79 -29 0 0 75 -19 0 0 72 -11 0 0 262 -1 0 0 256 -1 0 0 257 -1 0 0 225 -9 0 0 65 -1 0 0
EndChar
StartChar: D
Encoding: 68 68 37
Width: 778
Flags: W
HStem: -3 44<299 349> 650 39<220 293.504> 655 37<384 424>
VStem: 649 92<412 446>
DStem: 173 559 268 650 86 55 172 93
Fore
33 23 m 1xb0
 41 25 l 2
 72 31 83 39 86 55 c 1
 173 559 l 2
 178 589 182 621 182 635 c 0
 182 653 171 661 147 662 c 2
 94 664 l 1
 97 692 l 1xb0
 198 689 201 689 210 689 c 2
 220 689 l 1xd0
 424 692 l 2
 519 693 604 675 650 642 c 0
 711 599 741 529 741 431 c 0
 741 265 645 114 489 34 c 0
 437 8 388 -3 316 -3 c 0
 305 -3 290 -3 270 -2 c 0
 227 -1 195 0 176 0 c 2
 144 0 l 1
 121 0 l 1
 28 -3 l 1
 33 23 l 1xb0
268 650 m 1xd0
 172 93 l 2
 169 75 168 68 168 56 c 1
 236 46 285 41 329 41 c 0
 416 41 489 69 543 124 c 0
 611 193 649 298 649 415 c 0
 649 579 566 655 384 655 c 0xb0
 366 655 346 654 315 652 c 0
 288 651 283 650 268 650 c 1xd0
EndSplineSet
KernsSLIF: 89 -36 0 0 88 -67 0 0 87 -43 0 0 86 -61 0 0 84 -9 0 0 74 -35 0 0 261 -80 0 0 262 -80 0 0 258 -80 0 0 256 -80 0 0 259 -80 0 0 257 -80 0 0 65 -80 0 0
EndChar
StartChar: E
Encoding: 69 69 38
Width: 611
Flags: W
HStem: -3 42<257.6 307.969 308.062 355.106> 334 42<229 351> 537 155<501 549> 650 40<343 446>
DStem: 182 559 271 614 95 55 229 376 182 559 221 334 95 55 178 81 512 161 539 161 496 101 534 135
Fore
221 334 m 1xd0
 178 81 l 1
 177 72 176 64 176 50 c 2
 176 46 l 1
 245 40 267 39 308 39 c 0
 362 39 435 44 455 48 c 0
 477 53 486 65 496 101 c 2
 512 161 l 1
 539 161 l 1
 534 135 l 2
 525 86 520 56 518 36 c 1
 514 0 l 1
 481 -1 l 2
 448 -2 423 -3 409 -3 c 2
 399 -3 l 1
 184 0 l 2
 164 0 102 -1 71 -2 c 2
 30 -3 l 1
 35 23 l 1
 79 30 91 37 95 55 c 1
 182 559 l 2
 187 589 191 621 191 635 c 0
 191 653 180 661 156 662 c 2
 102 664 l 1
 105 692 l 1xe0
 150 691 l 2
 201 689 228 689 265 689 c 0
 275 689 334 689 343 690 c 2xd0
 463 691 l 2
 487 692 498 692 501 692 c 0
 519 692 549 691 570 689 c 1
 559 651 552 601 549 537 c 1
 525 537 l 1xe0
 517 626 l 1
 516 641 475 650 413 650 c 0
 391 650 359 649 327 648 c 2
 280 646 l 1
 276 638 274 630 271 614 c 2
 229 376 l 1
 266 376 l 2
 344 376 404 378 485 382 c 1
 489 375 l 1
 470 330 l 1
 444 331 l 2
 396 333 365 334 338 334 c 2
 221 334 l 1xd0
EndSplineSet
EndChar
StartChar: F
Encoding: 70 70 39
Width: 556
Flags: W
HStem: 0 21G<116.5 136> 301 42<214 337> 537 155<481 527> 650 41<392 440>
DStem: 173 559 260 614 98 125 214 343 173 559 206 301 98 125 170 78
Fore
286 646 m 1xd0
 269 646 l 1
 264 635 263 630 260 614 c 1
 214 343 l 1
 251 343 l 2
 329 343 389 345 470 349 c 1
 474 342 l 1
 455 297 l 1
 429 298 l 2
 381 300 350 301 323 301 c 2
 206 301 l 1
 170 78 l 1
 169 74 168 63 168 57 c 0
 168 37 177 29 204 28 c 2
 268 25 l 1
 265 -3 l 1
 213 -2 l 2
 174 -1 145 0 127 0 c 0
 106 0 74 -1 34 -2 c 2
 0 -3 l 1
 4 25 l 1
 40 28 l 2
 81 32 81 33 98 125 c 1
 173 559 l 1
 178 589 182 621 182 635 c 0
 182 652 171 661 147 662 c 2
 91 664 l 1
 94 692 l 1xe0
 143 691 l 2
 181 690 221 689 246 689 c 2
 275 689 l 1
 440 691 l 1xd0
 481 692 l 2
 498 692 526 691 548 689 c 1
 537 651 530 600 527 537 c 1
 503 537 l 1xe0
 495 626 l 1
 494 641 454 650 392 650 c 1
 286 646 l 1xd0
EndSplineSet
KernsSLIF: 117 -40 0 0 114 -34 0 0 46 -91 0 0 249 -35 0 0 250 -33 0 0 351 -32 0 0 352 -32 0 0 111 -32 0 0 106 -44 0 0 105 -41 0 0 45 -4 0 0 335 -36 0 0 101 -36 0 0 44 -110 0 0 328 -38 0 0 241 -54 0 0 322 -38 0 0 323 -38 0 0 97 -38 0 0 286 -27 0 0 79 -27 0 0 74 -12 0 0 261 -93 0 0 262 -93 0 0 258 -93 0 0 256 -93 0 0 259 -93 0 0 257 -93 0 0 65 -93 0 0
EndChar
StartChar: G
Encoding: 71 71 40
Width: 722
Flags: W
HStem: -18 45<355 390> 653 53<433 468>
VStem: 50 88<267 303>
DStem: 546 153 633 219 528 60 610 84
Fore
528 60 m 1
 546 153 l 1
 551 177 553 197 553 212 c 0
 553 236 544 240 469 244 c 2
 435 246 l 1
 440 274 l 1
 482 270 518 269 569 269 c 0
 620 269 655 270 694 274 c 1
 692 246 l 1
 660 240 l 2
 647 238 635 228 633 219 c 1
 610 84 l 1
 609 80 609 76 609 73 c 0
 609 66 610 58 612 44 c 1
 608 37 l 1
 595 35 578 31 552 22 c 2
 522 12 l 2
 461 -9 409 -18 355 -18 c 0
 159 -18 50 87 50 274 c 0
 50 424 112 548 229 632 c 0
 301 683 374 706 466 706 c 0
 535 706 592 695 675 665 c 1
 661 619 653 576 648 519 c 1
 621 519 l 1
 621 603 l 1
 565 639 511 653 434 653 c 0
 351 653 286 629 237 579 c 0
 173 515 138 414 138 297 c 0
 138 120 224 27 390 27 c 0
 444 27 483 36 528 60 c 1
EndSplineSet
KernsSLIF: 89 -11 0 0 87 -18 0 0 86 -20 0 0 84 -16 0 0 261 -15 0 0 262 -15 0 0 258 -15 0 0 256 -15 0 0 259 -15 0 0 257 -15 0 0 225 -22 0 0 65 -15 0 0
EndChar
StartChar: H
Encoding: 72 72 41
Width: 778
Flags: W
HStem: -3 21G<226 252> 340 45<221 584> 343 42<221 400> 672 20G<335 359 784 800>
DStem: 174 559 263 613 100 125 221 385 174 559 216 340 100 125 174 93 584 340 710 613 544 125 618 93 621 559 710 613 591 385 618 93
Fore
221 385 m 1xd0
 591 385 l 1xb0
 621 559 l 2
 626 589 630 621 630 635 c 0
 630 653 619 661 595 662 c 2
 547 664 l 1
 550 692 l 1
 613 690 l 2
 657 689 678 689 693 689 c 2
 784 692 l 1
 800 692 l 1
 797 664 l 1
 761 661 l 2
 723 657 717 652 710 613 c 2
 618 93 l 2
 615 76 614 67 614 58 c 0
 614 37 624 29 650 28 c 2
 708 25 l 1
 705 -3 l 1
 663 -2 l 2
 620 -1 589 0 573 0 c 0
 562 0 532 -1 488 -2 c 2
 432 -3 l 1
 436 25 l 1
 486 28 l 2
 508 30 519 34 523 42 c 1
 528 48 535 76 544 125 c 2
 584 340 l 1xd0
 523 341 l 2
 460 342 419 343 400 343 c 0xb0
 381 343 339 342 277 341 c 2
 216 340 l 1
 174 93 l 1
 171 74 170 67 170 58 c 0
 170 37 179 30 206 28 c 2
 255 25 l 1
 252 -3 l 1
 226 -3 l 1
 129 0 l 2
 110 0 87 -1 39 -2 c 2
 -3 -3 l 1
 1 25 l 1
 42 28 l 2
 82 32 83 33 100 125 c 1
 174 559 l 1
 179 590 183 621 183 635 c 0
 183 653 172 661 148 662 c 2
 101 664 l 1
 104 692 l 1
 168 690 l 2
 211 689 229 689 245 689 c 2
 335 692 l 1
 359 692 l 1
 356 664 l 1
 314 661 l 2
 277 658 270 652 263 613 c 2
 221 385 l 1xd0
EndSplineSet
EndChar
StartChar: I
Encoding: 73 73 42
Width: 333
Flags: W
HStem: -3 21G<7 39 227 259> 672 20G<345 354>
DStem: 176 559 265 613 104 125 176 78
Fore
103 664 m 1
 106 692 l 1
 170 690 l 2
 213 689 231 689 248 689 c 2
 345 692 l 1
 354 692 l 1
 351 664 l 1
 316 661 l 2
 277 657 272 652 265 613 c 1
 176 78 l 1
 175 74 174 63 174 57 c 0
 174 37 184 30 210 28 c 2
 262 25 l 1
 259 -3 l 1
 227 -3 l 1
 133 0 l 1
 39 -3 l 1
 7 -3 l 1
 10 25 l 1
 46 28 l 2
 86 31 89 36 104 125 c 1
 176 559 l 1
 179 576 185 629 185 636 c 0
 185 653 174 661 150 662 c 2
 103 664 l 1
EndSplineSet
EndChar
StartChar: J
Encoding: 74 74 43
Width: 333
Flags: W
HStem: -206 32<-8 5> 672 20G<334 358>
DStem: 181 622 262 613 86 -21 177 54
Fore
355 664 m 1
 313 661 l 2
 275 658 268 651 262 613 c 1
 177 54 l 1
 168 -8 159 -40 143 -78 c 0
 109 -159 57 -206 3 -206 c 0
 -9 -206 -21 -203 -32 -196 c 1
 -35 -170 l 1
 -27 -173 -18 -174 -6 -174 c 0
 41 -174 71 -124 86 -21 c 1
 181 622 l 1
 182 627 182 630 182 635 c 0
 182 653 171 661 147 662 c 2
 100 664 l 1
 103 692 l 1
 167 690 l 2
 210 689 228 689 244 689 c 2
 334 692 l 1
 358 692 l 1
 355 664 l 1
EndSplineSet
KernsSLIF: 262 -29 0 0 256 -29 0 0 225 -37 0 0 65 -29 0 0
EndChar
StartChar: K
Encoding: 75 75 44
Width: 667
Flags: W
HStem: -3 30<620 646> 665 24<615 662>
DStem: 189 559 278 613 116 125 233 353 189 559 231 340 116 125 188 78
Fore
371 664 m 1
 329 661 l 2
 292 658 285 651 278 613 c 1
 233 353 l 1
 297 403 338 439 382 484 c 2
 510 614 l 2
 538 642 548 655 548 663 c 2
 548 692 l 1
 568 691 l 2
 589 690 605 689 615 689 c 0
 623 689 639 690 660 691 c 2
 683 692 l 1
 683 665 l 1
 662 665 l 2
 645 665 624 655 608 640 c 2
 316 367 l 1
 562 65 l 2
 583 39 603 27 626 27 c 2
 646 27 l 1
 646 -3 l 1
 620 -2 614 -1 578 0 c 1
 509 -3 l 1
 404 140 381 169 231 340 c 1
 188 78 l 1
 187 74 186 63 186 57 c 0
 186 37 195 30 222 28 c 2
 271 25 l 1
 268 -3 l 1
 242 -3 l 1
 145 0 l 2
 126 0 103 -1 55 -2 c 2
 13 -3 l 1
 17 25 l 1
 58 28 l 2
 98 32 99 33 116 125 c 1
 189 559 l 1
 195 592 198 621 198 635 c 0
 198 653 187 661 163 662 c 2
 116 664 l 1
 119 692 l 1
 183 690 l 2
 226 689 244 689 260 689 c 2
 350 692 l 1
 374 692 l 1
 371 664 l 1
EndSplineSet
KernsSLIF: 121 -25 0 0 362 -11 0 0 117 -11 0 0 351 -4 0 0 352 -4 0 0 111 -4 0 0 45 -56 0 0 328 18 0 0 241 13 0 0 322 18 0 0 97 18 0 0 84 15 0 0 83 9 0 0 286 -39 0 0 287 -39 0 0 234 -40 0 0 79 -39 0 0 71 -43 0 0 67 -39 0 0
EndChar
StartChar: L
Encoding: 76 76 45
Width: 556
Flags: W
HStem: -3 42<244.983 304 304.062 356.806> 672 20G<328 352>
DStem: 167 559 256 613 81 55 164 81
Fore
349 664 m 1
 307 661 l 2
 270 658 263 651 256 613 c 1
 164 81 l 1
 163 72 162 64 162 50 c 2
 162 46 l 1
 228 40 255 39 304 39 c 0
 371 39 435 44 448 49 c 0
 457 54 466 71 475 103 c 2
 492 165 l 1
 523 165 l 1
 510 103 499 25 500 0 c 1
 467 -1 l 2
 434 -2 409 -3 395 -3 c 2
 385 -3 l 1
 170 0 l 2
 150 0 88 -1 57 -2 c 2
 16 -3 l 1
 21 23 l 1
 65 30 77 37 81 55 c 1
 167 559 l 1
 172 590 176 621 176 635 c 0
 176 653 165 661 141 662 c 2
 94 664 l 1
 97 692 l 1
 161 690 l 2
 204 689 222 689 238 689 c 2
 328 692 l 1
 352 692 l 1
 349 664 l 1
EndSplineSet
KernsSLIF: 121 -30 0 0 362 -24 0 0 117 -24 0 0 39 -107 0 0 186 -117 0 0 45 15 0 0 89 -63 0 0 87 -62 0 0 86 -87 0 0 298 -23 0 0 85 -23 0 0 84 -41 0 0 83 -6 0 0 290 -8 0 0 288 -8 0 0 286 -8 0 0 289 -8 0 0 287 -8 0 0 79 -8 0 0 71 -9 0 0 264 -7 0 0 67 -6 0 0 262 23 0 0 256 23 0 0 257 23 0 0 225 16 0 0 65 23 0 0
EndChar
StartChar: M
Encoding: 77 77 46
Width: 944
Flags: W
HStem: -18 21G<399 422>
DStem: 215 602 250 560 70 93 126 96 250 560 292 692 399 -18 442 114 688 536 718 500 442 114 479 86 757 661 770 587 688 536 718 500 770 587 853 631 733 67 812 100
Fore
937 664 m 1
 899 662 l 2
 870 660 855 650 853 631 c 1
 812 100 l 1
 811 63 l 1
 811 42 829 31 865 28 c 2
 902 25 l 1
 899 -3 l 1
 853 -2 l 2
 812 -1 782 0 766 0 c 0
 751 0 721 -1 679 -2 c 2
 632 -3 l 1
 635 25 l 1
 666 28 l 2
 717 32 729 39 733 67 c 1
 770 587 l 1
 718 500 l 1
 479 86 l 1
 422 -18 l 1
 399 -18 l 1
 250 560 l 1
 126 96 l 2
 121 78 119 65 119 55 c 0
 119 40 136 30 168 28 c 2
 206 25 l 1
 203 -3 l 1
 168 -2 l 2
 133 -1 107 0 93 0 c 0
 79 0 54 -1 20 -2 c 2
 -19 -3 l 1
 -16 23 l 1
 39 28 54 41 70 93 c 1
 215 602 l 2
 217 609 218 616 218 622 c 0
 218 648 200 658 148 662 c 2
 122 664 l 1
 125 692 l 1
 184 689 l 1
 208 689 l 2
 221 689 236 689 264 691 c 2
 292 692 l 1
 442 114 l 1
 688 536 l 1
 757 661 l 1
 773 692 l 1
 832 689 l 1
 856 689 l 2
 869 689 884 689 912 691 c 2
 940 692 l 1
 937 664 l 1
EndSplineSet
EndChar
StartChar: N
Encoding: 78 78 47
Width: 778
Flags: W
HStem: -11 21G<558 608> 672 20G<589 608 783 804>
DStem: 180 576 220 566 92 102 140 102 220 566 237 692 558 -11 582 103 662 592 702 542 582 103 608 -11
Fore
237 692 m 1
 582 103 l 1
 662 592 l 2
 664 605 667 631 667 638 c 0
 667 654 657 661 631 662 c 2
 584 664 l 1
 589 692 l 1
 608 692 l 1
 694 689 l 1
 783 692 l 1
 804 692 l 1
 799 664 l 1
 762 662 l 2
 725 659 723 655 702 542 c 1
 608 -11 l 1
 558 -11 l 1
 220 566 l 1
 140 102 l 2
 138 91 137 80 137 72 c 0
 137 39 146 31 186 28 c 2
 228 25 l 1
 223 -3 l 1
 126 0 125 0 113 0 c 2
 2 -3 l 1
 7 25 l 1
 38 28 l 2
 74 32 80 40 92 102 c 1
 180 576 l 1
 181 579 182 586 183 594 c 0
 184 596 184 598 184 599 c 0
 185 602 185 605 185 606 c 0
 185 614 170 633 155 645 c 0
 144 654 122 661 105 662 c 2
 70 664 l 1
 75 692 l 1
 91 691 l 2
 114 690 129 689 132 689 c 2
 146 689 l 1
 156 689 l 1
 237 692 l 1
EndSplineSet
KernsSLIF: 362 -33 0 0 117 -33 0 0 46 -29 0 0 249 -23 0 0 351 -24 0 0 352 -24 0 0 111 -24 0 0 335 -26 0 0 101 -26 0 0 44 -47 0 0 328 -22 0 0 241 -26 0 0 322 -22 0 0 323 -22 0 0 97 -22 0 0 286 -23 0 0 287 -23 0 0 79 -23 0 0 71 -23 0 0 264 -19 0 0 67 -19 0 0 262 -31 0 0 256 -31 0 0 257 -31 0 0 225 -38 0 0 65 -31 0 0
EndChar
StartChar: O
Encoding: 79 79 48
Width: 778
Flags: W
HStem: -18 42<323 360> 664 42<433 464>
VStem: 53 88<253 303> 660 88<397 431>
Fore
464 706 m 0
 644 706 748 603 748 425 c 0
 748 267 670 120 544 42 c 0
 479 1 408 -18 323 -18 c 0
 147 -18 53 83 53 272 c 0
 53 523 227 706 464 706 c 0
433 664 m 0
 357 664 297 641 250 593 c 0
 181 524 141 407 141 277 c 0
 141 110 216 24 360 24 c 0
 438 24 503 50 552 100 c 0
 620 170 660 283 660 409 c 0
 660 519 628 594 563 632 c 0
 530 652 481 664 433 664 c 0
EndSplineSet
KernsSLIF: 89 -30 0 0 88 -62 0 0 87 -36 0 0 86 -54 0 0 84 -5 0 0 262 -65 0 0 256 -65 0 0 257 -65 0 0 225 -73 0 0 65 -65 0 0
EndChar
StartChar: P
Encoding: 80 80 49
Width: 611
Flags: W
HStem: 0 21G<132 149.5> 288 35<344 362> 656 33<333.104 355 355.125 380.281>
VStem: 195 73<580 635> 506 88<518 541>
DStem: 186 559 268 580 112 125 186 93
Fore
105 664 m 1
 108 692 l 1
 161 691 l 1
 274 689 l 1
 412 692 l 2
 531 695 594 642 594 541 c 0
 594 405 484 288 355 288 c 0
 326 288 306 293 269 311 c 1
 267 342 l 1
 304 328 324 323 346 323 c 0
 434 323 506 411 506 519 c 0
 506 612 457 656 355 656 c 0
 336 656 320 654 284 648 c 1
 281 635 278 625 277 620 c 0
 272 601 268 581 268 580 c 1
 186 93 l 1
 183 74 182 67 182 58 c 0
 182 37 192 29 218 28 c 2
 283 25 l 1
 280 -3 l 1
 227 -2 l 2
 187 -1 158 0 141 0 c 0
 123 0 92 -1 51 -2 c 2
 9 -3 l 1
 13 25 l 1
 54 28 l 2
 94 31 95 34 112 125 c 1
 186 559 l 1
 191 590 195 621 195 635 c 0
 195 653 184 661 160 662 c 2
 105 664 l 1
EndSplineSet
KernsSLIF: 46 -116 0 0 249 -45 0 0 250 -42 0 0 351 -41 0 0 352 -41 0 0 111 -41 0 0 45 -30 0 0 335 -44 0 0 101 -44 0 0 44 -135 0 0 328 -44 0 0 241 -22 0 0 322 -44 0 0 323 -44 0 0 97 -44 0 0 74 -41 0 0 262 -111 0 0 256 -111 0 0 257 -111 0 0 225 -119 0 0 65 -111 0 0
EndChar
StartChar: Q
Encoding: 81 81 50
Width: 778
Flags: W
HStem: -201 61<587 615> -59 44<228 251> -18 42<323 360> 664 42<433 464>
VStem: 53 88<246 296> 126 25<-172 -142> 660 88<406 440>
Fore
151 -172 m 1xd6
 127 -159 l 1
 126 -151 126 -144 126 -142 c 0
 126 -66 177 -15 251 -15 c 0
 274 -15 292 -19 317 -29 c 2
 553 -125 l 2
 579 -135 598 -140 615 -140 c 0
 655 -140 677 -115 683 -61 c 1
 708 -61 l 1
 698 -158 662 -201 587 -201 c 0
 547 -201 529 -195 469 -164 c 2
 324 -88 l 2
 285 -67 257 -59 228 -59 c 0
 175 -59 151 -95 151 -172 c 1xd6
464 706 m 0
 644 706 748 603 748 425 c 0
 748 267 670 120 544 42 c 0
 479 1 408 -18 323 -18 c 0
 147 -18 53 83 53 272 c 0xba
 53 523 227 706 464 706 c 0
433 664 m 0
 357 664 297 641 250 593 c 0
 181 524 141 407 141 277 c 0
 141 110 216 24 360 24 c 0
 438 24 503 50 552 100 c 0
 620 170 660 283 660 409 c 0
 660 519 628 594 563 632 c 0
 530 652 481 664 433 664 c 0
EndSplineSet
EndChar
StartChar: R
Encoding: 82 82 51
Width: 667
Flags: W
HStem: -3 27<631 639> 656 33<259 377>
VStem: 196 75<580 635> 496 88<541 562>
DStem: 187 559 271 580 112 125 186 93
Fore
105 664 m 1
 108 692 l 1
 226 689 244 689 259 689 c 2
 409 692 l 2
 520 694 584 646 584 560 c 0
 584 499 553 444 495 402 c 0
 459 376 430 364 375 354 c 1
 559 79 l 1
 588 37 599 29 639 24 c 1
 639 -3 l 1
 626 -3 l 2
 607 -1 593 0 592 0 c 2
 581 0 l 1
 573 0 l 1
 507 -3 l 1
 432 124 401 172 267 367 c 1
 270 378 l 1
 314 378 l 2
 418 378 496 448 496 543 c 0
 496 617 450 656 363 656 c 0
 336 656 316 654 287 648 c 1
 284 635 282 628 280 620 c 0
 276 602 271 582 271 580 c 1
 186 93 l 2
 183 76 182 67 182 58 c 0
 182 38 191 30 218 28 c 2
 267 25 l 1
 264 -3 l 1
 238 -3 l 1
 141 0 l 2
 117 0 98 0 51 -2 c 2
 9 -3 l 1
 13 25 l 1
 54 28 l 2
 94 32 96 34 112 125 c 1
 187 559 l 1
 192 589 196 621 196 635 c 0
 196 653 185 661 161 662 c 2
 105 664 l 1
EndSplineSet
KernsSLIF: 121 -29 0 0 362 -14 0 0 363 -14 0 0 117 -14 0 0 250 -7 0 0 351 -7 0 0 352 -7 0 0 111 -7 0 0 45 -43 0 0 335 -2 0 0 101 -2 0 0 328 14 0 0 241 10 0 0 322 14 0 0 323 14 0 0 97 14 0 0 89 -35 0 0 87 -57 0 0 86 -59 0 0 298 -42 0 0 85 -42 0 0 84 -27 0 0 286 -39 0 0 287 -39 0 0 234 -39 0 0 79 -39 0 0 71 -39 0 0 264 -35 0 0 67 -35 0 0
EndChar
StartChar: S
Encoding: 83 83 52
Width: 556
Flags: W
HStem: -18 48<197 232> 658 48<339 374>
VStem: 108 72<471 508> 406 79<191 234>
Fore
451 537 m 1
 451 613 l 1
 421 645 388 658 339 658 c 0
 247 658 180 595 180 508 c 0
 180 442 210 405 276 391 c 2
 341 377 l 2
 442 355 485 313 485 234 c 0
 485 99 352 -18 197 -18 c 0
 144 -18 91 -5 42 20 c 1
 53 72 60 117 66 172 c 1
 96 172 l 1
 96 73 l 1
 140 42 178 30 232 30 c 0
 335 30 406 96 406 191 c 0
 406 248 379 283 325 296 c 2
 230 319 l 2
 146 339 108 386 108 471 c 0
 108 529 129 580 172 621 c 1
 225 675 301 706 374 706 c 0
 421 706 461 696 506 672 c 1
 492 629 485 591 481 537 c 1
 451 537 l 1
EndSplineSet
KernsSLIF: 116 -34 0 0 89 -13 0 0 87 -19 0 0 86 -21 0 0 84 -17 0 0 262 -42 0 0 256 -42 0 0 257 -42 0 0 225 -50 0 0 65 -42 0 0
EndChar
StartChar: T
Encoding: 84 84 53
Width: 611
Flags: W
HStem: 0 21G<243 260.5> 646 45<166 308 390 502>
DStem: 71 692 97 588 53 528 82 528 308 646 390 646 222 125 296 93
Fore
390 646 m 1
 296 93 l 1
 293 74 292 67 292 58 c 0
 292 37 302 29 328 28 c 2
 387 25 l 1
 384 -3 l 1
 340 -2 l 2
 301 -1 270 0 251 0 c 0
 235 0 206 -1 166 -2 c 2
 109 -3 l 1
 113 25 l 1
 164 28 l 2
 204 31 206 34 222 125 c 1
 308 646 l 1
 196 646 l 2
 159 646 121 640 115 633 c 0
 109 626 102 610 97 588 c 1
 82 528 l 1
 53 528 l 1
 71 692 l 1
 166 691 l 2
 252 690 316 689 353 689 c 0
 388 689 456 690 544 691 c 2
 635 692 l 1
 608 528 l 1
 580 528 l 1
 584 592 l 1
 585 602 583 621 580 629 c 0
 577 641 541 646 463 646 c 2
 390 646 l 1
EndSplineSet
KernsSLIF: 121 -99 0 0 119 -109 0 0 118 -109 0 0 117 -112 0 0 59 -103 0 0 115 -84 0 0 114 -103 0 0 46 -97 0 0 249 -74 0 0 111 -102 0 0 106 -42 0 0 105 -41 0 0 45 -75 0 0 172 -124 0 0 171 -124 0 0 103 -125 0 0 101 -100 0 0 44 -111 0 0 58 -93 0 0 99 -106 0 0 241 -87 0 0 97 -83 0 0 89 23 0 0 87 17 0 0 86 15 0 0 83 -16 0 0 290 -19 0 0 233 -20 0 0 288 -19 0 0 286 -19 0 0 289 -19 0 0 287 -19 0 0 234 -19 0 0 79 -19 0 0 74 3 0 0 71 -18 0 0 67 -13 0 0 261 -61 0 0 262 -61 0 0 258 -61 0 0 256 -61 0 0 259 -61 0 0 257 -61 0 0 225 -68 0 0 65 -61 0 0
EndChar
StartChar: U
Encoding: 85 85 54
Width: 778
Flags: W
HStem: -19 58<276 314> 672 20G<782 798>
VStem: 97 78<140 158>
DStem: 167 581 270 692 103 206 182 215 627 622 708 613 556 177 623 106
Fore
795 664 m 1
 759 661 l 2
 721 657 714 651 708 613 c 1
 623 106 l 1
 618 70 617 65 617 50 c 0
 617 37 626 31 649 29 c 2
 709 25 l 1
 704 -3 l 1
 672 -2 l 2
 640 -1 618 0 614 0 c 2
 552 -3 l 1
 530 -3 l 1
 525 2 l 1
 538 57 544 83 552 129 c 1
 500 69 468 44 409 15 c 0
 361 -9 320 -19 276 -19 c 0
 164 -19 97 43 97 144 c 0
 97 160 99 185 103 206 c 1
 167 581 l 1
 171 602 174 630 174 639 c 0
 174 656 166 661 140 662 c 2
 88 664 l 1
 91 692 l 1
 123 691 l 2
 151 690 171 689 181 689 c 0
 192 689 212 690 239 691 c 2
 270 692 l 1
 182 215 l 2
 177 187 175 171 175 154 c 0
 175 84 229 39 314 39 c 0
 352 39 389 48 427 68 c 0
 478 93 508 119 556 177 c 1
 627 622 l 1
 628 626 628 629 628 634 c 0
 628 653 617 661 593 662 c 2
 545 664 l 1
 548 692 l 1
 611 690 l 2
 655 689 676 689 691 689 c 2
 782 692 l 1
 798 692 l 1
 795 664 l 1
EndSplineSet
KernsSLIF: 114 -27 0 0 46 -19 0 0 112 -24 0 0 110 -25 0 0 109 -25 0 0 44 -34 0 0 261 16 0 0 262 16 0 0 256 16 0 0 259 16 0 0 257 16 0 0 225 8 0 0 65 16 0 0
EndChar
StartChar: V
Encoding: 86 86 55
Width: 722
Flags: W
HStem: -8 21G<247 296>
DStem: 159 614 239 624 247 -8 310 96
Fore
310 96 m 1
 601 588 l 2
 613 608 617 619 617 630 c 0
 617 649 598 659 560 662 c 2
 534 664 l 1
 534 692 l 1
 580 691 l 2
 621 690 648 689 658 689 c 0
 674 689 697 690 724 691 c 2
 754 692 l 1
 754 664 l 1
 736 662 l 2
 707 658 699 651 674 611 c 2
 296 -8 l 1
 247 -8 l 1
 159 614 l 1
 152 651 144 659 100 662 c 2
 75 664 l 1
 75 692 l 1
 116 691 l 2
 153 690 181 689 199 689 c 0
 217 689 245 690 282 691 c 2
 323 692 l 1
 323 664 l 1
 281 662 l 2
 251 661 236 650 238 631 c 1
 239 624 l 1
 310 96 l 1
EndSplineSet
KernsSLIF: 121 -57 0 0 117 -72 0 0 59 -101 0 0 114 -69 0 0 46 -130 0 0 249 -98 0 0 111 -98 0 0 105 -36 0 0 45 -65 0 0 172 -112 0 0 171 -112 0 0 103 -104 0 0 101 -100 0 0 44 -149 0 0 58 -92 0 0 241 -81 0 0 97 -96 0 0 84 23 0 0 83 -49 0 0 290 -66 0 0 233 -66 0 0 288 -66 0 0 286 -66 0 0 289 -66 0 0 287 -66 0 0 79 -66 0 0 71 -66 0 0 67 -61 0 0 261 -139 0 0 262 -139 0 0 258 -139 0 0 256 -139 0 0 259 -139 0 0 257 -139 0 0 225 -114 0 0 65 -139 0 0
EndChar
StartChar: W
Encoding: 87 87 56
Width: 944
Flags: W
HStem: -8 21G<182 232 657 708> 680 20G<528 546>
DStem: 142 588 221 616 174 158 252 132 476 588 506 546 252 132 282 102 506 546 546 700 618 154 704 128 851 590 917 631 704 128 746 124
Fore
303 692 m 1
 303 664 l 1
 266 662 l 2
 234 660 221 646 221 616 c 1
 252 132 l 1
 476 588 l 2
 494 624 516 673 528 700 c 1
 546 700 l 1
 704 128 l 1
 851 590 l 2
 857 608 860 626 860 639 c 0
 860 653 848 661 819 662 c 2
 780 664 l 1
 785 692 l 1
 818 691 l 2
 848 690 870 689 883 689 c 0
 897 689 919 690 948 691 c 2
 980 692 l 1
 980 664 l 1
 960 662 l 2
 938 660 923 648 917 631 c 2
 746 124 l 2
 733 85 725 58 715 18 c 1
 708 -8 l 1
 657 -8 l 1
 644 53 633 102 618 154 c 2
 506 546 l 1
 282 102 l 2
 264 66 246 27 232 -8 c 1
 182 -8 l 1
 181 44 179 92 174 158 c 1
 142 588 l 1
 138 645 130 656 89 662 c 2
 71 664 l 1
 71 692 l 1
 110 691 l 2
 148 690 170 689 182 689 c 0
 202 689 226 689 264 691 c 2
 303 692 l 1
EndSplineSet
MinimumDistance: x32,2 
KernsSLIF: 121 -21 0 0 117 -35 0 0 59 -63 0 0 114 -32 0 0 46 -54 0 0 249 -39 0 0 111 -40 0 0 105 -34 0 0 45 -9 0 0 172 -57 0 0 171 -57 0 0 103 -62 0 0 101 -42 0 0 44 -73 0 0 58 -53 0 0 241 -42 0 0 97 -38 0 0 84 25 0 0 83 -36 0 0 290 -30 0 0 233 -27 0 0 288 -30 0 0 286 -30 0 0 289 -30 0 0 287 -30 0 0 79 -30 0 0 71 -30 0 0 67 -26 0 0 261 -62 0 0 262 -62 0 0 258 -62 0 0 256 -62 0 0 259 -62 0 0 257 -62 0 0 225 -69 0 0 65 -62 0 0
EndChar
StartChar: X
Encoding: 88 88 57
Width: 722
Flags: W
HStem: 0 29<470 551>
DStem: 202 613 295 604 348 343 399 405 369 306 420 368 488 80 591 61
Fore
416 25 m 1
 454 28 l 1
 470 29 l 2
 495 29 502 32 502 40 c 0
 502 49 497 62 488 80 c 2
 369 306 l 1
 187 75 l 2
 181 67 177 58 177 50 c 0
 177 38 194 32 232 28 c 2
 264 25 l 1
 264 -3 l 1
 221 -1 181 0 145 0 c 0
 110 0 69 -1 20 -3 c 1
 20 25 l 1
 48 28 l 2
 72 31 95 43 110 61 c 2
 348 343 l 1
 202 613 l 2
 182 650 170 657 121 662 c 2
 95 664 l 1
 95 692 l 1
 140 691 l 2
 181 690 211 689 228 689 c 0
 244 689 274 690 315 691 c 2
 361 692 l 1
 361 664 l 1
 324 662 l 2
 294 660 281 654 281 642 c 0
 281 634 286 622 295 604 c 2
 399 405 l 1
 560 601 l 2
 578 623 583 632 583 643 c 0
 583 655 570 660 538 662 c 2
 505 664 l 1
 505 692 l 1
 594 689 608 689 620 689 c 2
 734 692 l 1
 734 664 l 1
 706 662 l 2
 680 659 671 653 641 620 c 1
 420 368 l 1
 591 61 l 1
 605 37 618 30 659 27 c 2
 684 25 l 1
 684 -3 l 1
 636 -1 591 0 551 0 c 0
 509 0 464 -1 416 -3 c 1
 416 25 l 1
EndSplineSet
KernsSLIF: 121 -34 0 0 117 -19 0 0 111 -12 0 0 45 -52 0 0 101 -7 0 0 97 9 0 0 81 -47 0 0 286 -47 0 0 79 -47 0 0 67 -48 0 0
EndChar
StartChar: Y
Encoding: 89 89 58
Width: 667
Flags: W
HStem: -3 21G<390 416> 635 70<100 131>
DStem: 285 251 362 246 264 125 336 78
Fore
52 647 m 1
 67 658 l 2
 86 670 107 686 118 695 c 0
 121 697 124 699 127 702 c 2
 131 705 l 1
 223 704 271 616 346 310 c 1
 374 384 413 452 474 536 c 1
 549 636 602 678 675 697 c 1
 669 626 l 1
 610 616 568 586 510 512 c 0
 436 419 371 301 362 246 c 1
 336 78 l 1
 335 73 334 63 334 57 c 0
 334 37 343 30 370 28 c 2
 419 25 l 1
 416 -3 l 1
 390 -3 l 1
 293 0 l 2
 277 0 254 -1 207 -2 c 2
 154 -3 l 1
 158 25 l 1
 206 28 l 2
 246 31 247 34 264 125 c 1
 285 251 l 1
 286 254 286 257 286 257 c 1
 287 273 248 410 224 477 c 0
 183 589 147 635 100 635 c 0
 89 635 78 632 55 623 c 1
 52 647 l 1
EndSplineSet
KernsSLIF: 118 -82 0 0 117 -98 0 0 59 -115 0 0 46 -109 0 0 112 -86 0 0 249 -86 0 0 111 -101 0 0 105 -48 0 0 45 -81 0 0 172 -124 0 0 171 -124 0 0 103 -126 0 0 101 -103 0 0 44 -123 0 0 58 -105 0 0 241 -99 0 0 97 -95 0 0 84 10 0 0 83 -39 0 0 290 -55 0 0 233 -55 0 0 288 -55 0 0 286 -55 0 0 289 -55 0 0 287 -55 0 0 79 -55 0 0 71 -55 0 0 67 -50 0 0 261 -73 0 0 262 -73 0 0 258 -73 0 0 256 -73 0 0 259 -73 0 0 257 -73 0 0 225 -80 0 0 65 -73 0 0
EndChar
StartChar: Z
Encoding: 90 90 59
Width: 667
Flags: W
HStem: -2 41<414 517> 652 37<238 522>
DStem: 522 652 637 672 20 19 133 39
Fore
20 -3 m 1
 20 19 l 1
 522 652 l 1
 342 652 l 2
 256 652 218 649 162 639 c 1
 156 619 l 2
 144 580 138 555 135 533 c 1
 109 533 l 1
 117 606 120 645 120 692 c 1
 238 691 l 1
 449 689 l 1
 475 689 l 1
 637 692 l 1
 637 672 l 1
 133 39 l 1
 414 39 l 2
 458 39 496 43 541 52 c 1
 549 74 l 1
 573 142 l 1
 580 164 l 1
 606 164 l 1
 593 95 585 38 583 -3 c 1
 517 -2 l 2
 456 -1 339 0 261 0 c 0
 174 0 116 -1 20 -3 c 1
EndSplineSet
KernsSLIF: 121 -42 0 0 118 -35 0 0
EndChar
StartChar: bracketleft
Encoding: 91 91 60
Width: 333
Flags: W
HStem: 705 28<313.429 326>
Fore
326 733 m 1
 326 705 l 1
 238 698 l 2
 225 697 222 691 217 667 c 1
 201 582 l 1
 196 560 170 399 160 329 c 1
 109 -14 l 1
 107 -29 106 -38 106 -44 c 0
 106 -56 115 -63 134 -65 c 2
 213 -72 l 1
 208 -100 l 1
 166 -98 l 2
 146 -97 129 -97 114 -97 c 2
 53 -98 l 1
 20 -100 l 1
 18 -95 l 1
 69 190 l 2
 97 347 136 621 146 729 c 1
 154 733 l 1
 171 733 l 2
 172 733 182 733 195 732 c 0
 202 731 226 731 240 731 c 0
 254 731 279 731 285 732 c 0
 299 733 308 733 309 733 c 2
 326 733 l 1
EndSplineSet
EndChar
StartChar: backslash
Encoding: 92 92 61
Width: 606
Flags: W
HStem: 0 21G<453 513>
DStem: 81 733 141 733 453 0 513 0
Fore
453 0 m 1
 81 733 l 1
 141 733 l 1
 513 0 l 1
 453 0 l 1
EndSplineSet
EndChar
StartChar: bracketright
Encoding: 93 93 62
Width: 333
Flags: W
HStem: -100 28<7 19.5714>
DStem: 313 733 313 733 280 731 315 728
Fore
7 -100 m 1
 7 -72 l 1
 95 -65 l 2
 108 -64 111 -58 116 -34 c 1
 132 51 l 2
 146 126 174 309 198 473 c 0
 204 516 209 552 210 557 c 0
 217 601 222 632 223 642 c 0
 223 644 223 644 224 647 c 0
 226 658 227 671 227 677 c 0
 227 689 218 696 199 698 c 2
 120 705 l 1
 125 733 l 1
 167 731 l 2
 187 730 204 730 219 730 c 2
 280 731 l 1
 313 733 l 1
 315 728 l 1
 264 443 l 2
 237 292 196 -1 187 -96 c 1
 179 -100 l 1
 162 -100 l 2
 161 -100 151 -100 138 -99 c 2
 93 -98 l 1
 47 -99 l 2
 34 -100 25 -100 24 -100 c 2
 7 -100 l 1
EndSplineSet
EndChar
StartChar: asciicircum
Encoding: 94 94 63
Width: 606
Flags: W
DStem: 270 689 303 627 51 283 112 283 303 627 336 689 493 283 554 283
Fore
112 283 m 1
 51 283 l 1
 270 689 l 1
 336 689 l 1
 554 283 l 1
 493 283 l 1
 303 627 l 1
 112 283 l 1
EndSplineSet
EndChar
StartChar: underscore
Encoding: 95 95 64
Width: 500
Flags: W
HStem: -125 50<0 500>
Fore
500 -125 m 1
 0 -125 l 1
 0 -75 l 1
 500 -75 l 1
 500 -125 l 1
EndSplineSet
EndChar
StartChar: quoteleft
Encoding: 96 8216 65
Width: 278
Flags: W
DStem: 251 733 251 733 219 720 258 724
Fore
87 488 m 1
 78 506 l 1
 127 600 168 662 219 720 c 1
 251 733 l 1
 258 724 l 1
 211 651 186 588 176 513 c 1
 149 508 121 500 87 488 c 1
EndSplineSet
KernsSLIF: 89 -11 1 0 87 -10 1 0 86 -15 1 0 84 -13 1 0 262 -146 1 0 256 -146 1 0 257 -146 1 0 225 -150 1 0 65 -146 1 0
EndChar
StartChar: a
Encoding: 97 97 66
Width: 444
Flags: W
HStem: -11 70<38 94> 433 49<234 274>
VStem: 4 72<67 99> 236 73<26 82>
DStem: 271 204 402 472 242 77 310 93
Fore
402 472 m 1
 310 93 l 1
 309 90 309 87 309 82 c 0
 309 68 315 59 324 59 c 0
 339 59 354 68 386 95 c 0
 390 99 393 101 399 106 c 1
 406 85 l 1
 324 17 283 -9 260 -9 c 0
 245 -9 236 4 236 26 c 0
 236 42 238 60 242 77 c 2
 271 204 l 1
 217 128 178 83 136 45 c 0
 98 11 60 -11 38 -11 c 0
 19 -11 4 23 4 67 c 0
 4 145 35 265 79 354 c 0
 104 403 137 433 199 464 c 0
 226 477 246 482 274 482 c 0
 301 482 318 478 359 463 c 1
 392 481 l 1
 402 472 l 1
319 414 m 1
 275 429 257 433 234 433 c 0
 186 433 163 415 139 360 c 0
 104 280 76 163 76 99 c 0
 76 72 82 59 94 59 c 0
 126 59 187 117 244 201 c 0
 278 253 297 305 319 414 c 1
EndSplineSet
KernsSLIF: 121 -6 0 0 119 -18 0 0 118 -18 0 0 39 -8 0 0 106 -26 0 0
EndChar
StartChar: b
Encoding: 98 98 67
Width: 463
Flags: W
HStem: -11 47<140 183> 424 58<322 377>
VStem: 37 75<61 101> 361 72<350 376>
Fore
235 722 m 1
 149 324 l 1
 211 403 244 433 295 460 c 0
 323 474 353 482 377 482 c 0
 392 482 405 477 412 468 c 0
 424 453 433 414 433 376 c 0
 433 244 367 107 271 39 c 0
 228 8 177 -11 140 -11 c 0
 85 -11 37 22 37 61 c 0
 37 64 37 68 38 71 c 1
 139 622 l 2
 140 628 141 639 141 646 c 0
 141 663 131 670 107 670 c 2
 59 670 l 1
 63 691 l 1
 135 698 171 707 223 733 c 1
 235 722 l 1
322 424 m 0
 293 424 241 395 208 361 c 0
 168 319 144 271 125 191 c 0
 116 154 112 126 112 101 c 0
 112 59 137 36 183 36 c 0
 237 36 277 68 310 137 c 0
 340 202 361 288 361 352 c 0
 361 401 348 424 322 424 c 0
EndSplineSet
KernsSLIF: 121 8 0 0
EndChar
StartChar: c
Encoding: 99 99 68
Width: 407
Flags: W
HStem: -11 51<147 186> 433 49<261 293>
VStem: 25 76<134 166>
Fore
342 330 m 1
 342 390 l 2
 342 414 306 433 261 433 c 0
 230 433 206 425 185 409 c 0
 136 371 101 267 101 159 c 0
 101 80 130 40 186 40 c 0
 221 40 259 57 331 105 c 2
 346 115 l 1
 354 95 l 1
 304 54 l 2
 249 9 201 -11 147 -11 c 0
 67 -11 25 40 25 136 c 0
 25 241 63 346 118 395 c 0
 174 446 248 482 293 482 c 0
 330 482 365 473 389 458 c 1
 380 432 373 395 365 330 c 1
 342 330 l 1
EndSplineSet
KernsSLIF: 107 -15 0 0 104 -18 0 0
EndChar
StartChar: d
Encoding: 100 100 69
Width: 500
Flags: W
HStem: -11 70<61 114> 433 49<243 277>
VStem: 17 72<84 118> 274 75<24 82>
DStem: 446 107 456 88 402 76 375 28
Fore
483 722 m 1
 357 128 l 1
 350 99 349 90 349 82 c 0
 349 68 355 59 363 59 c 0
 372 59 388 66 402 76 c 2
 446 107 l 1
 456 88 l 1
 375 28 l 2
 341 3 317 -9 300 -9 c 0
 283 -9 274 3 274 24 c 0
 274 50 279 82 290 126 c 2
 313 217 l 1
 246 116 213 77 159 33 c 0
 125 6 88 -11 61 -11 c 0
 32 -11 17 21 17 86 c 0
 17 170 37 265 68 323 c 0
 114 410 208 482 277 482 c 0
 302 482 329 477 359 468 c 1
 387 622 l 1
 388 629 389 638 389 646 c 0
 389 663 379 670 355 670 c 2
 307 670 l 1
 311 691 l 1
 383 698 419 707 471 733 c 1
 483 722 l 1
337 351 m 2
 349 410 l 1
 316 427 287 433 243 433 c 0
 216 433 197 428 184 418 c 0
 135 380 89 224 89 98 c 0
 89 73 98 59 114 59 c 0
 133 59 173 83 208 116 c 0
 270 175 319 263 337 351 c 2
EndSplineSet
EndChar
StartChar: e
Encoding: 101 101 70
Width: 389
Flags: W
HStem: -11 47<131 167> 440 42<252 290>
VStem: 15 76<113 135> 300 74<387 404>
Fore
328 111 m 1
 336 92 l 1
 244 17 188 -11 131 -11 c 0
 59 -11 15 35 15 113 c 0
 15 180 45 299 75 349 c 0
 114 413 225 482 290 482 c 0
 340 482 374 451 374 404 c 0
 374 342 335 296 250 259 c 0
 225 248 198 238 181 234 c 2
 99 214 l 1
 94 185 91 158 91 133 c 0
 91 73 120 36 167 36 c 0
 203 36 251 56 304 94 c 2
 328 111 l 1
113 274 m 2
 104 237 l 1
 149 247 185 258 213 272 c 0
 265 297 300 344 300 388 c 0
 300 420 281 440 252 440 c 0
 228 440 197 428 179 412 c 0
 150 386 130 343 113 274 c 2
EndSplineSet
KernsSLIF: 121 15 0 0 120 -12 0 0 119 5 0 0 118 5 0 0 116 -3 0 0 39 8 0 0
EndChar
StartChar: f
Encoding: 102 102 71
Width: 278
Flags: W
HStem: -276 63<-127 -73> 383 54<192 286> 673 60<303 343>
DStem: 134 521 213 549 119 442 192 437 299 446 299 446 292 444 303 439
Fore
286 383 m 1
 182 383 l 1
 174 345 166 307 163 295 c 0
 90 -56 68 -126 7 -198 c 0
 -32 -245 -86 -276 -127 -276 c 0
 -138 -276 -153 -273 -162 -268 c 1
 -157 -259 -143 -211 -139 -188 c 1
 -125 -184 l 1
 -107 -206 -96 -213 -73 -213 c 0
 -37 -213 -7 -182 11 -123 c 0
 33 -54 70 132 100 327 c 1
 109 383 l 1
 28 383 l 1
 33 405 l 1
 58 414 78 422 119 442 c 1
 134 521 l 2
 145 578 157 608 179 630 c 0
 202 654 284 715 308 726 c 0
 316 730 332 733 343 733 c 0
 366 733 397 727 413 720 c 1
 408 705 l 1
 400 685 390 654 385 638 c 1
 375 634 l 1
 360 658 333 673 303 673 c 0
 257 673 229 635 213 549 c 2
 192 437 l 1
 208 437 l 2
 257 437 268 438 292 444 c 2
 299 446 l 1
 303 439 l 1
 297 425 290 402 286 383 c 1
EndSplineSet
KernsSLIF: 116 11 0 0 115 -2 0 0 39 25 0 0 249 -18 0 0 250 -14 0 0 351 4 0 0 352 -13 0 0 111 -13 0 0 108 50 0 0 106 9 0 0 105 13 0 0 102 16 0 0 335 -17 0 0 101 -17 0 0 328 -16 0 0 322 4 0 0 323 -16 0 0 97 -16 0 0
EndChar
StartChar: g
Encoding: 103 103 72
Width: 500
Flags: W
HStem: -276 28<142 168> 136 32<177 219> 378 46<393 441> 448 34<250 275>
VStem: -37 64<-159 -143> 55 71<259 288> 139 74<52 100> 318 66<-154 -121> 337 72<331 349>
Fore
405 380 m 1xff
 406 375 l 1
 408 360 409 351 409 342 c 0xfe80
 409 253 338 170 240 146 c 1
 238 143 237 142 234 138 c 0
 219 119 213 109 213 100 c 0
 213 81 226 62 260 35 c 2
 320 -14 l 2
 363 -49 384 -85 384 -121 c 0
 384 -204 271 -276 142 -276 c 0
 33 -276 -37 -230 -37 -159 c 0
 -37 -119 -18 -80 16 -52 c 0
 53 -21 84 -6 160 19 c 1
 146 31 139 42 139 52 c 0
 139 66 150 84 166 99 c 2
 207 137 l 1
 196 136 185 136 177 136 c 0
 100 136 55 182 55 259 c 0
 55 330 84 388 140 430 c 0
 184 463 234 482 275 482 c 0
 296 482 321 477 342 469 c 0
 367 459 377 450 393 424 c 1
 447 424 467 426 495 433 c 1
 498 427 l 1
 489 382 l 1
 466 379 456 378 439 378 c 0
 430 378 422 378 405 380 c 1xff
253 -58 m 2
 176 1 l 1
 125 -14 103 -24 77 -45 c 0
 45 -72 27 -107 27 -145 c 0
 27 -206 84 -248 166 -248 c 0
 249 -248 318 -206 318 -154 c 0xff
 318 -121 299 -94 253 -58 c 2
250 448 m 0
 177 448 126 383 126 288 c 0
 126 209 158 168 219 168 c 0
 289 168 337 238 337 341 c 0xfe80
 337 412 308 448 250 448 c 0
EndSplineSet
KernsSLIF: 114 8 0 0 351 -22 0 0 352 -22 0 0 108 -34 0 0 335 -26 0 0 101 -26 0 0 328 -25 0 0 241 -12 0 0 322 -25 0 0 97 -25 0 0
EndChar
StartChar: h
Encoding: 104 104 73
Width: 500
Flags: W
HStem: -9 65<311 374> 414 68<338 414>
VStem: 281 80<30 76>
DStem: 345 303 432 372 294 107 368 116
Fore
236 722 m 1
 138 265 l 1
 158 290 l 2
 204 349 221 367 256 396 c 0
 319 449 380 482 414 482 c 0
 432 482 443 468 443 446 c 0
 443 429 438 398 432 372 c 1
 368 116 l 1
 362 94 361 86 361 76 c 0
 361 65 367 56 374 56 c 0
 384 56 406 67 435 86 c 2
 461 103 l 1
 471 85 l 1
 373 12 337 -9 311 -9 c 0
 292 -9 281 6 281 30 c 0
 281 49 285 71 294 107 c 1
 345 303 l 1
 353 336 360 374 360 392 c 0
 360 405 351 414 338 414 c 0
 296 414 192 317 148 236 c 0
 119 183 102 122 86 7 c 1
 17 -9 l 1
 10 2 l 1
 31 65 70 237 98 388 c 1
 140 622 l 1
 141 629 142 638 142 646 c 0
 142 663 132 670 108 670 c 2
 60 670 l 1
 64 691 l 1
 136 698 172 707 224 733 c 1
 236 722 l 1
EndSplineSet
KernsSLIF: 121 -8 0 0 39 -11 0 0
EndChar
StartChar: i
Encoding: 105 105 74
Width: 278
Flags: W
HStem: -9 65<81 144> 414 68<120 196> 604 108<209 228>
VStem: 51 80<30 76>
DStem: 62 408 73 389 34 388 41 368 130 347 215 420 64 107 138 116
Fore
34 388 m 1
 62 408 l 2
 137 461 174 482 196 482 c 0
 212 482 221 473 221 456 c 0
 221 448 219 437 215 420 c 1
 138 116 l 1
 133 95 131 86 131 76 c 0
 131 66 137 56 144 56 c 0
 153 56 176 67 205 86 c 2
 231 103 l 1
 241 85 l 1
 143 12 107 -9 81 -9 c 0
 62 -9 51 6 51 30 c 0
 51 49 56 76 64 107 c 1
 130 347 l 2
 134 361 138 384 138 391 c 0
 138 404 130 414 120 414 c 0
 113 414 110 412 73 389 c 2
 41 368 l 1
 34 388 l 1
228 712 m 0
 249 712 264 695 264 671 c 0
 264 633 240 604 209 604 c 0
 185 604 170 620 170 645 c 0
 170 679 199 712 228 712 c 0
EndSplineSet
KernsSLIF: 106 -30 0 0 84 -7 0 0
EndChar
StartChar: j
Encoding: 106 106 75
Width: 278
Flags: W
HStem: -276 45<-32 -9> 414 68<127 203> 604 108<210 229>
VStem: 171 94<645 671>
DStem: 69 408 80 389 41 388 48 368 138 351 222 420 38 -144 146 70
Fore
-70 -269 m 1
 -62 -212 l 1
 -41 -225 -23 -231 -9 -231 c 0
 9 -231 27 -196 38 -144 c 1
 138 351 l 1
 138 353 139 357 140 363 c 0
 143 374 145 387 145 391 c 0
 145 404 137 414 127 414 c 0
 120 414 117 412 80 389 c 2
 48 368 l 1
 41 388 l 1
 69 408 l 2
 144 461 181 482 203 482 c 0
 219 482 228 473 228 457 c 0
 228 451 226 438 222 420 c 2
 146 70 l 1
 118 -57 104 -107 84 -152 c 0
 48 -233 8 -276 -32 -276 c 0
 -47 -276 -60 -274 -70 -269 c 1
229 712 m 0
 250 712 265 695 265 671 c 0
 265 633 241 604 210 604 c 0
 186 604 171 620 171 645 c 0
 171 679 200 712 229 712 c 0
EndSplineSet
EndChar
StartChar: k
Encoding: 107 107 76
Width: 444
Flags: W
HStem: -9 61<300 347> 416 66<391 403>
DStem: 419 86 427 67 376 62 381 35
Fore
234 722 m 1
 127 230 l 1
 252 405 335 482 401 482 c 0
 413 482 431 479 449 473 c 1
 432 410 l 1
 415 414 404 416 396 416 c 0
 346 416 300 391 239 330 c 2
 225 316 l 1
 264 193 286 139 321 75 c 0
 330 58 337 52 347 52 c 0
 355 52 362 54 376 62 c 2
 419 86 l 1
 427 67 l 1
 381 35 l 2
 337 4 313 -9 300 -9 c 0
 275 -9 243 59 174 259 c 1
 140 225 116 180 107 132 c 2
 84 8 l 1
 17 -9 l 1
 8 1 l 1
 60 210 76 279 90 354 c 1
 138 622 l 1
 139 629 140 638 140 646 c 0
 140 663 130 670 106 670 c 2
 58 670 l 1
 62 691 l 1
 134 698 170 707 222 733 c 1
 234 722 l 1
EndSplineSet
KernsSLIF: 362 -16 0 0 117 -16 0 0 115 6 0 0 46 -4 0 0 351 2 0 0 352 2 0 0 111 2 0 0 45 -50 0 0 103 -44 0 0 335 5 0 0 101 5 0 0 44 -24 0 0 328 12 0 0 241 14 0 0 322 12 0 0 323 12 0 0 97 12 0 0
EndChar
StartChar: l
Encoding: 108 108 77
Width: 278
Flags: W
HStem: -9 65<66 129>
VStem: 36 80<31 76>
Fore
251 722 m 1
 122 113 l 1
 120 104 l 2
 117 89 116 82 116 76 c 0
 116 66 122 56 129 56 c 0
 139 56 161 67 190 86 c 2
 216 103 l 1
 226 85 l 1
 128 12 92 -9 66 -9 c 0
 47 -9 36 6 36 31 c 0
 36 52 42 82 55 132 c 2
 69 184 l 1
 84 234 145 545 151 600 c 1
 154 622 l 1
 157 640 157 645 157 648 c 0
 157 663 147 670 123 670 c 2
 75 670 l 1
 79 691 l 1
 151 698 187 707 239 733 c 1
 251 722 l 1
EndSplineSet
KernsSLIF: 121 -24 0 0 118 -35 0 0
EndChar
StartChar: m
Encoding: 109 109 78
Width: 778
Flags: W
HStem: -9 65<580 643> 414 68<110 185>
VStem: 550 80<31 76>
DStem: 52 408 63 389 24 388 31 368 308 69 387 113 292 2 366 6
Fore
730 103 m 1
 740 85 l 1
 642 12 606 -9 580 -9 c 0
 561 -9 550 6 550 31 c 0
 550 53 554 79 563 107 c 0
 573 141 590 201 606 264 c 0
 628 351 631 365 631 389 c 0
 631 405 626 414 618 414 c 0
 586 414 536 379 481 318 c 0
 437 269 403 194 387 113 c 2
 366 6 l 1
 297 -9 l 1
 292 2 l 1
 308 69 l 2
 349 244 371 358 371 393 c 0
 371 406 367 414 360 414 c 0
 332 414 287 384 245 338 c 0
 190 278 163 219 139 108 c 2
 117 6 l 1
 49 -9 l 1
 46 2 l 1
 87 145 128 338 128 389 c 0
 128 404 121 414 110 414 c 0
 103 414 100 412 63 389 c 2
 31 368 l 1
 24 388 l 1
 52 408 l 2
 126 461 164 482 185 482 c 0
 199 482 208 470 208 451 c 0
 208 439 206 424 202 408 c 2
 169 275 l 1
 234 363 254 384 298 418 c 0
 353 460 399 482 429 482 c 0
 445 482 455 470 455 451 c 0
 455 444 452 429 448 409 c 1
 418 272 l 1
 467 341 502 376 565 421 c 0
 626 464 664 482 693 482 c 0
 709 482 719 471 719 454 c 0
 719 446 716 430 712 413 c 1
 637 116 l 1
 632 95 630 86 630 76 c 0
 630 65 636 56 643 56 c 0
 653 56 675 67 704 86 c 2
 730 103 l 1
EndSplineSet
KernsSLIF: 121 -11 0 0 119 -23 0 0 118 -23 0 0 112 -14 0 0
EndChar
StartChar: n
Encoding: 110 110 79
Width: 556
Flags: W
HStem: -9 65<354 417> 414 68<110 185>
VStem: 324 80<31 76>
DStem: 52 408 63 389 24 388 31 368 389 319 472 372 337 107 406 96
Fore
24 388 m 1
 52 408 l 2
 125 460 164 482 185 482 c 0
 200 482 208 470 208 449 c 0
 208 438 206 426 202 408 c 2
 164 247 l 1
 216 320 244 354 282 389 c 0
 341 444 410 482 452 482 c 0
 472 482 483 469 483 446 c 0
 483 429 479 401 472 372 c 2
 406 96 l 2
 405 92 404 81 404 76 c 0
 404 65 410 56 417 56 c 0
 427 56 449 67 478 86 c 2
 504 103 l 1
 514 85 l 1
 416 12 380 -9 354 -9 c 0
 335 -9 324 6 324 31 c 0
 324 47 328 70 337 107 c 2
 389 319 l 2
 397 351 400 372 400 390 c 0
 400 405 394 414 383 414 c 0
 338 414 263 352 209 268 c 0
 163 199 142 134 123 8 c 1
 101 4 78 -2 53 -9 c 1
 46 2 l 1
 87 145 128 338 128 389 c 0
 128 404 121 414 110 414 c 0
 103 414 100 412 63 389 c 2
 31 368 l 1
 24 388 l 1
EndSplineSet
KernsSLIF: 121 -15 0 0 119 -27 0 0 118 -27 0 0 39 -19 0 0 112 -18 0 0 84 -83 0 0
EndChar
StartChar: o
Encoding: 111 111 80
Width: 444
Flags: W
HStem: -11 38<145 185> 444 38<241 278>
VStem: 17 76<132 182> 335 76<308 333>
Fore
278 482 m 0
 361 482 411 425 411 331 c 0
 411 230 367 116 305 57 c 0
 260 15 200 -11 145 -11 c 0
 62 -11 17 46 17 152 c 0
 17 274 62 375 143 433 c 0
 188 465 235 482 278 482 c 0
241 444 m 0
 217 444 194 438 181 427 c 0
 132 387 93 264 93 151 c 0
 93 72 127 27 185 27 c 0
 216 27 242 39 260 60 c 0
 304 113 335 219 335 315 c 0
 335 399 302 444 241 444 c 0
EndSplineSet
KernsSLIF: 121 4 0 0 120 -23 0 0 119 -3 0 0 118 -3 0 0 116 -15 0 0 39 -3 0 0 84 -88 0 0
EndChar
StartChar: p
Encoding: 112 112 81
Width: 500
Flags: W
HStem: -11 47<176 207> 412 70<95 169>
VStem: 393 72<347 373>
DStem: 36 408 47 389 8 388 15 368 108 351 186 408 50 8 162 289 108 351 143 165 50 8 125 59
Fore
115 3 m 1
 73 -259 l 1
 41 -264 21 -269 0 -276 c 1
 -7 -270 l 1
 1 -233 l 2
 21 -143 40 -52 50 8 c 2
 108 351 l 1
 110 361 112 381 112 389 c 0
 112 403 105 412 95 412 c 0
 86 412 75 407 47 389 c 2
 15 368 l 1
 8 388 l 1
 36 408 l 2
 110 461 148 482 169 482 c 0
 183 482 191 471 191 452 c 0
 191 440 189 425 186 408 c 1
 162 289 l 1
 198 348 218 374 259 409 c 1
 311 456 364 482 406 482 c 0
 442 482 465 438 465 371 c 0
 465 296 431 186 390 125 c 0
 347 62 232 -11 176 -11 c 0
 165 -11 150 -8 124 0 c 2
 115 3 l 1
143 165 m 2
 125 59 l 1
 151 43 176 36 207 36 c 0
 248 36 280 51 300 80 c 0
 353 156 393 275 393 356 c 0
 393 402 381 424 355 424 c 0
 272 424 165 293 143 165 c 2
EndSplineSet
KernsSLIF: 121 5 0 0 116 -13 0 0
EndChar
StartChar: q
Encoding: 113 113 82
Width: 463
Flags: W
HStem: -11 70<60 118> 433 49<254 284>
VStem: 24 72<78 113>
DStem: 308 209 405 356 232 -205 319 -100
Fore
385 458 m 1
 418 480 l 1
 432 474 l 1
 422 443 416 417 405 356 c 1
 319 -100 l 1
 310 -150 304 -205 300 -259 c 1
 276 -262 245 -268 214 -276 c 1
 205 -262 l 1
 217 -249 227 -229 232 -205 c 1
 308 209 l 1
 271 143 206 71 141 25 c 2
 133 19 l 2
 101 -3 82 -11 60 -11 c 0
 36 -11 24 19 24 78 c 0
 24 181 63 327 103 374 c 0
 125 399 169 435 205 457 c 0
 233 474 257 482 284 482 c 0
 313 482 342 475 385 458 c 1
330 311 m 2
 351 406 l 1
 303 427 282 433 254 433 c 0
 222 433 193 424 181 409 c 0
 139 359 96 209 96 113 c 0
 96 80 104 59 118 59 c 0
 147 59 208 106 260 170 c 0
 297 216 319 260 330 311 c 2
EndSplineSet
KernsSLIF: 117 -15 0 0 99 -18 0 0
EndChar
StartChar: r
Encoding: 114 114 83
Width: 389
Flags: W
HStem: 384 98<318 364>
DStem: 54 408 65 389 26 388 33 368
Fore
368 365 m 1
 354 365 l 1
 343 379 333 384 318 384 c 0
 296 384 269 363 235 319 c 0
 191 262 168 209 150 126 c 2
 124 6 l 1
 111 4 l 2
 88 -1 72 -4 57 -9 c 1
 47 -2 l 1
 87 126 130 332 130 390 c 0
 130 403 123 412 113 412 c 0
 104 412 93 407 65 389 c 2
 33 368 l 1
 26 388 l 1
 54 408 l 2
 128 461 166 482 187 482 c 0
 202 482 210 470 210 450 c 0
 210 438 208 425 204 408 c 2
 198 382 l 1
 192 360 184 320 180 297 c 1
 172 256 l 1
 188 291 200 312 239 368 c 2
 266 407 l 2
 302 458 333 482 364 482 c 0
 369 482 373 481 384 476 c 1
 376 435 371 403 368 365 c 1
EndSplineSet
KernsSLIF: 122 -7 0 0 121 14 0 0 120 -14 0 0 119 4 0 0 118 4 0 0 116 -3 0 0 59 -33 0 0 115 -12 0 0 114 3 0 0 39 4 0 0 113 -30 0 0 46 -95 0 0 112 11 0 0 249 -25 0 0 353 -21 0 0 250 -22 0 0 351 -21 0 0 354 -21 0 0 352 -21 0 0 111 -21 0 0 110 4 0 0 109 4 0 0 108 -39 0 0 107 -30 0 0 106 -5 0 0 105 -1 0 0 45 -48 0 0 104 -31 0 0 103 -24 0 0 102 1 0 0 336 -24 0 0 337 -24 0 0 335 -24 0 0 101 -24 0 0 100 -30 0 0 44 -113 0 0 58 -26 0 0 332 -28 0 0 99 -28 0 0 328 -25 0 0 324 -25 0 0 241 -18 0 0 322 -25 0 0 325 -25 0 0 323 -25 0 0 97 -25 0 0
EndChar
StartChar: s
Encoding: 115 115 84
Width: 389
Flags: W
HStem: -11 40<116 150> 442 40<208 245>
VStem: 47 59<316 348> 267 67<138 174>
Fore
31 148 m 1
 56 148 l 1
 56 64 l 1
 84 40 115 29 150 29 c 0
 221 29 267 73 267 138 c 0
 267 177 251 195 207 203 c 2
 144 215 l 2
 78 228 47 260 47 316 c 0
 47 352 58 377 84 404 c 0
 132 452 193 482 245 482 c 0
 278 482 306 474 345 455 c 1
 334 404 330 377 326 342 c 1
 303 342 l 1
 303 397 l 1
 287 424 249 442 208 442 c 0
 151 442 106 401 106 348 c 0
 106 307 125 290 185 279 c 2
 228 271 l 2
 302 257 334 228 334 174 c 0
 334 124 313 87 262 47 c 0
 211 7 165 -11 116 -11 c 0
 81 -11 47 -2 9 16 c 1
 20 62 26 97 31 148 c 1
EndSplineSet
KernsSLIF: 116 -22 0 0 39 -10 0 0
EndChar
StartChar: t
Encoding: 116 116 85
Width: 333
Flags: W
HStem: -9 65<86 150> 390 44<200 245.066>
VStem: 56 80<31 76>
DStem: 255 117 265 99 210 86 249 86
Fore
125 390 m 1
 41 390 l 1
 43 403 l 1
 61 408 87 419 131 440 c 1
 156 610 l 1
 187 622 214 634 234 646 c 1
 245 631 l 1
 227 577 216 528 200 434 c 1
 238 434 272 436 310 440 c 1
 299 390 l 1
 192 390 l 1
 179 328 l 1
 150 183 136 102 136 76 c 0
 136 64 141 56 150 56 c 0
 161 56 181 66 210 86 c 2
 255 117 l 1
 265 99 l 1
 249 86 l 1
 234 74 l 2
 156 11 121 -9 86 -9 c 0
 67 -9 56 6 56 31 c 0
 56 43 58 58 64 86 c 0
 67 98 68 100 69 107 c 1
 125 390 l 1
EndSplineSet
KernsSLIF: 59 -40 0 0 39 -19 0 0 351 -20 0 0 352 -20 0 0 111 -20 0 0 104 -27 0 0 335 -18 0 0 101 -18 0 0 58 -32 0 0 328 -13 0 0 241 -11 0 0 322 -13 0 0 323 -13 0 0 97 -13 0 0 83 -29 0 0
EndChar
StartChar: u
Encoding: 117 117 86
Width: 556
Flags: W
HStem: -11 70<102 159> 412 70<119 192>
VStem: 67 79<30 85> 322 80<31 76>
DStem: 60 408 71 389 32 388 39 368 134 374 210 408 71 77 153 137 485 482 485 482 417 465 492 473
Fore
333 97 m 1
 370 239 l 1
 286 101 165 -11 102 -11 c 0
 82 -11 67 7 67 30 c 0
 67 44 69 68 71 77 c 2
 134 374 l 2
 135 378 136 388 136 392 c 0
 136 403 128 412 119 412 c 0
 110 412 99 407 71 389 c 2
 39 368 l 1
 32 388 l 1
 60 408 l 2
 134 461 172 482 192 482 c 0
 206 482 215 470 215 451 c 0
 215 438 213 424 210 408 c 1
 153 137 l 1
 148 112 146 99 146 85 c 0
 146 68 151 59 159 59 c 0
 199 59 277 130 336 221 c 0
 367 268 392 336 407 414 c 2
 417 465 l 1
 485 482 l 1
 492 473 l 1
 462 358 431 225 408 116 c 1
 407 110 l 2
 404 95 402 84 402 76 c 0
 402 66 407 59 415 59 c 0
 426 59 452 70 476 86 c 2
 502 103 l 1
 512 85 l 1
 414 12 378 -9 352 -9 c 0
 333 -9 322 6 322 31 c 0
 322 46 326 73 333 97 c 1
EndSplineSet
KernsSLIF: 39 -19 0 0
EndChar
StartChar: v
Encoding: 118 118 87
Width: 500
Flags: W
HStem: -11 50<186 228> 420 50<166 214> 422 55<91 111>
VStem: 76 72<121 148> 413 64<350 384>
Fore
332 423 m 1xd8
 382 470 l 2
 390 478 402 482 415 482 c 0
 451 482 477 441 477 384 c 0
 477 344 460 277 438 227 c 0
 407 158 359 91 312 48 c 0
 266 7 228 -11 186 -11 c 0
 122 -11 76 44 76 121 c 0
 76 221 118 304 229 424 c 1
 203 421 187 420 166 420 c 0xd8
 153 420 146 420 138 421 c 0
 125 422 116 422 111 422 c 0xb8
 87 422 67 411 60 394 c 2
 43 352 l 1
 21 352 l 1
 34 407 45 443 59 470 c 1xd8
 70 475 79 477 91 477 c 0xb8
 92 477 97 477 103 476 c 2
 115 475 l 2
 144 472 186 470 214 470 c 0
 242 470 255 473 275 482 c 1
 285 464 l 1
 187 342 148 251 148 146 c 0
 148 81 179 39 228 39 c 0
 316 39 413 202 413 350 c 0
 413 390 397 413 370 413 c 0
 361 413 352 410 343 404 c 1
 332 423 l 1xd8
EndSplineSet
KernsSLIF: 59 -35 0 0 115 -13 0 0 46 -53 0 0 249 -15 0 0 353 -13 0 0 351 -13 0 0 352 -13 0 0 111 -13 0 0 108 -27 0 0 45 19 0 0 103 -21 0 0 336 -17 0 0 337 -17 0 0 335 -17 0 0 101 -17 0 0 44 -71 0 0 58 -29 0 0 99 -20 0 0 327 -14 0 0 328 -14 0 0 324 -14 0 0 241 -19 0 0 322 -14 0 0 325 -14 0 0 323 -14 0 0 97 -14 0 0
EndChar
StartChar: w
Encoding: 119 119 88
Width: 722
Flags: W
HStem: -11 50<160 203 412 453> 420 50<167 214> 422 55<91 111>
VStem: 72 73<116 150> 338 65<95 134> 635 64<350 384>
DStem: 469 482 469 482 395 460 476 474
Fore
554 423 m 1xdc
 604 470 l 2
 612 478 624 482 637 482 c 0
 673 482 699 441 699 384 c 0
 699 344 682 277 660 227 c 0
 598 90 493 -11 412 -11 c 0
 367 -11 338 32 338 95 c 0
 338 118 341 143 350 187 c 1
 276 44 224 -11 160 -11 c 0
 107 -11 72 44 72 126 c 0
 72 211 106 283 196 388 c 0
 213 407 217 412 223 420 c 2
 226 424 l 1
 201 421 188 420 167 420 c 0xdc
 154 420 146 420 138 421 c 0
 125 422 116 422 111 422 c 0xbc
 87 422 67 411 60 394 c 2
 43 352 l 1
 21 352 l 1
 34 407 45 443 59 470 c 1xdc
 70 475 79 477 91 477 c 0xbc
 92 477 97 477 103 476 c 2
 115 475 l 2
 144 472 186 470 214 470 c 0
 242 470 255 473 275 482 c 1
 285 464 l 1
 186 352 145 255 145 136 c 0
 145 78 168 39 203 39 c 0
 233 39 271 80 311 155 c 0
 340 209 354 249 366 311 c 2
 395 460 l 1
 469 482 l 1
 476 474 l 1
 424 290 l 2
 412 247 403 181 403 134 c 0
 403 79 424 39 453 39 c 0
 538 39 635 205 635 350 c 0
 635 390 619 413 592 413 c 0
 583 413 574 410 565 404 c 1
 554 423 l 1xdc
EndSplineSet
KernsSLIF: 59 -35 0 0 115 -13 0 0 46 -52 0 0 249 -15 0 0 353 -13 0 0 351 -13 0 0 352 -13 0 0 111 -13 0 0 108 -27 0 0 45 19 0 0 103 -21 0 0 336 -17 0 0 337 -17 0 0 335 -17 0 0 101 -17 0 0 44 -71 0 0 58 -29 0 0 99 -20 0 0 327 -13 0 0 328 -13 0 0 324 -13 0 0 241 -19 0 0 322 -13 0 0 325 -13 0 0 323 -13 0 0 97 -13 0 0
EndChar
StartChar: x
Encoding: 120 120 89
Width: 500
Flags: W
HStem: -11 65<52 80> 406 76<422 454> 416 66<142 171>
DStem: 225 215 231 182 185 153 155 65 231 182 282 269 242 113 300 168 312 354 317 318 275 299 282 269
Fore
21 88 m 1xc0
 41 91 l 1
 52 63 l 2
 54 58 65 54 80 54 c 0
 108 54 142 86 185 153 c 2
 225 215 l 1
 214 277 l 2
 197 375 175 416 142 416 c 0
 123 416 103 402 73 368 c 1
 56 378 l 1
 114 461 l 2
 123 474 145 482 171 482 c 0xa0
 230 482 257 446 269 347 c 1
 275 299 l 1
 312 354 l 2
 374 446 414 482 454 482 c 0
 463 482 472 479 484 472 c 1
 469 387 l 1
 455 383 l 1
 450 398 438 406 422 406 c 0
 391 406 364 383 317 318 c 2
 282 269 l 1
 300 168 l 2
 305 139 316 102 325 83 c 0
 335 63 348 53 363 53 c 0
 379 53 404 68 440 98 c 1
 449 79 l 1
 400 35 l 2
 368 6 336 -11 314 -11 c 0
 278 -11 255 28 242 113 c 1
 231 182 l 1
 155 65 l 2
 124 18 85 -11 52 -11 c 0
 40 -11 24 -7 9 1 c 1
 10 8 11 11 13 23 c 0
 19 55 21 68 21 88 c 1xc0
EndSplineSet
KernsSLIF: 113 -12 0 0 111 -13 0 0 335 -9 0 0 101 -9 0 0 99 -15 0 0 97 -2 0 0
EndChar
StartChar: y
Encoding: 121 121 90
Width: 500
Flags: W
HStem: -276 42<74 111> -11 21G<122.5 153.5> 462 20G<153.5 168.5>
VStem: -8 57<-198 -172> 111 73<358 419>
DStem: 41 -146 41 -146 -7 -180 51 -150 85 442 64 398 3 386 14 368 110 343 180 322 93 100 165 128
Fore
-7 -180 m 1
 41 -146 l 1
 51 -150 l 1
 50 -159 49 -167 49 -172 c 0
 49 -207 76 -234 111 -234 c 0
 181 -234 231 -161 282 16 c 2
 331 187 l 1
 256 74 172 -11 135 -11 c 0
 110 -11 92 18 92 60 c 1
 93 100 l 1
 110 343 l 1
 111 351 111 357 111 358 c 0
 111 391 103 410 89 410 c 0
 85 410 78 407 68 401 c 2
 64 398 l 1
 14 368 l 1
 3 386 l 1
 85 442 l 2
 133 475 147 482 160 482 c 0
 177 482 184 464 184 419 c 0
 184 391 182 353 180 322 c 1
 165 128 l 1
 164 115 l 1
 163 90 172 67 184 67 c 0
 206 67 255 111 290 162 c 0
 323 211 358 284 370 331 c 1
 405 463 l 1
 427 465 450 471 479 482 c 1
 490 473 l 1
 349 33 l 2
 290 -152 180 -276 74 -276 c 0
 29 -276 -8 -241 -8 -198 c 0
 -8 -193 -8 -187 -7 -180 c 1
EndSplineSet
KernsSLIF: 59 -39 0 0 115 -18 0 0 46 -37 0 0 249 -16 0 0 353 -16 0 0 351 -16 0 0 352 -16 0 0 111 -16 0 0 108 -27 0 0 45 7 0 0 103 -34 0 0 336 -18 0 0 337 -18 0 0 335 -18 0 0 101 -18 0 0 44 -56 0 0 58 -32 0 0 99 -22 0 0 327 -14 0 0 328 -14 0 0 324 -14 0 0 241 -19 0 0 322 -14 0 0 325 -14 0 0 323 -14 0 0 97 -14 0 0
EndChar
StartChar: z
Encoding: 122 122 91
Width: 444
Flags: W
HStem: -11 68<302 324> 398 47<259 350> 413 69<126 144>
DStem: 352 421 410 441 -1 21 71 59
Fore
-1 21 m 1xa0
 352 421 l 1
 319 404 295 398 259 398 c 0xc0
 238 398 212 401 178 408 c 0
 158 412 147 413 133 413 c 0
 120 413 111 412 94 408 c 1
 64 350 l 1
 43 350 l 1
 75 472 l 1
 99 479 119 482 136 482 c 0xa0
 150 482 170 478 198 471 c 2
 216 466 l 2
 264 453 316 445 350 445 c 0xc0
 364 445 374 449 384 459 c 2
 407 482 l 1
 416 473 l 1
 410 441 l 1
 71 59 l 1
 107 74 134 80 166 80 c 0
 185 80 219 75 252 68 c 2
 270 64 l 2
 291 59 307 57 319 57 c 0
 340 57 352 64 358 82 c 1
 380 142 l 1
 402 142 l 1
 391 95 383 61 372 -1 c 1
 343 -9 334 -11 322 -11 c 0
 295 -11 264 -6 204 9 c 0
 152 21 124 26 99 26 c 0
 64 26 37 17 8 -6 c 1
 -1 21 l 1xa0
EndSplineSet
EndChar
StartChar: braceleft
Encoding: 123 123 92
Width: 333
Flags: W
VStem: 40 69<-21 -3> 76 70<235 253>
DStem: 72 202 140 182 45 46 112 20 140 599 215 613 111 427 185 441
Fore
45 46 m 1x80
 72 202 l 1
 75 218 76 232 76 247 c 0
 76 284 61 300 15 315 c 1
 77 333 100 360 111 427 c 1
 140 599 l 1
 159 702 201 733 319 733 c 1
 255 717 228 686 215 613 c 1
 185 441 l 2
 171 360 147 332 79 315 c 1
 128 300 146 281 146 241 c 0x40
 146 225 144 205 140 182 c 2
 112 20 l 1
 110 7 109 -3 109 -17 c 0
 109 -66 126 -87 175 -100 c 1
 123 -99 101 -96 80 -87 c 0
 53 -75 40 -50 40 -10 c 0
 40 8 42 27 45 46 c 1x80
EndSplineSet
EndChar
StartChar: bar
Encoding: 124 124 93
Width: 606
Flags: W
HStem: 0 21G<275 331>
VStem: 275 56<0 733>
Fore
275 0 m 1
 275 733 l 1
 331 733 l 1
 331 0 l 1
 275 0 l 1
EndSplineSet
EndChar
StartChar: braceright
Encoding: 125 125 94
Width: 333
Flags: W
VStem: 187 70<379 397> 224 69<635 652>
DStem: 148 192 222 206 118 20 193 34 221 613 288 587 193 451 261 431
Fore
288 587 m 1x40
 261 431 l 1
 258 415 257 401 257 385 c 0
 257 349 272 332 318 318 c 1
 256 300 233 273 222 206 c 1
 193 34 l 1
 174 -69 132 -100 14 -100 c 1
 78 -84 105 -53 118 20 c 1
 148 192 l 2
 162 273 186 301 254 318 c 1
 205 332 187 352 187 392 c 0x80
 187 408 189 428 193 451 c 2
 221 613 l 2
 223 625 224 636 224 650 c 0
 224 699 207 720 158 733 c 1
 210 732 232 729 253 720 c 0
 280 708 293 683 293 642 c 0
 293 625 291 606 288 587 c 1x40
EndSplineSet
EndChar
StartChar: asciitilde
Encoding: 126 126 95
Width: 606
Flags: W
HStem: 188 56<403.316 419> 259 57<178 196>
Fore
521 328 m 1
 555 301 l 1
 512 223 468 188 417 188 c 0
 391 188 363 197 287 229 c 0
 224 256 215 259 191 259 c 0
 151 259 125 237 85 169 c 1
 51 196 l 1
 100 283 139 316 190 316 c 0
 220 316 247 308 318 277 c 0
 379 250 397 244 416 244 c 0
 453 244 490 273 521 328 c 1
EndSplineSet
EndChar
StartChar: exclamdown
Encoding: 161 161 96
Width: 333
Flags: W
HStem: 350 117<172 188>
DStem: 168 266 168 266 138 249 174 263
Fore
188 467 m 0
 213 467 233 446 233 419 c 0
 233 381 206 350 172 350 c 0
 145 350 128 368 128 397 c 0
 128 435 155 467 188 467 c 0
111 -250 m 1
 26 -276 l 1
 15 -267 l 1
 62 -86 76 -27 138 249 c 1
 168 266 l 1
 174 263 l 1
 153 109 l 2
 144 42 127 -102 118 -179 c 1
 111 -250 l 1
EndSplineSet
EndChar
StartChar: cent
Encoding: 162 162 97
Width: 500
Flags: W
HStem: -11 51<163 210>
VStem: 56 74<138 161>
DStem: 132 -2 163 -11 97 -96 129 -96 297 432 330 427 157 64 184 45 343 551 376 551 316 480 349 480
Fore
316 480 m 1
 343 551 l 1
 376 551 l 1
 349 480 l 1
 374 480 396 473 418 458 c 1
 405 400 399 365 397 330 c 1
 374 330 l 1
 374 394 l 2
 374 407 363 415 330 427 c 1
 184 45 l 1
 193 42 202 40 210 40 c 0
 259 40 310 63 379 115 c 1
 386 95 l 1
 326 46 l 2
 280 9 225 -10 163 -11 c 1
 129 -96 l 1
 97 -96 l 1
 132 -2 l 1
 101 7 88 18 75 45 c 0
 62 69 56 102 56 140 c 0
 56 250 105 367 170 413 c 0
 226 452 272 474 316 480 c 1
157 64 m 1
 297 432 l 1
 291 433 286 433 283 433 c 0
 246 433 208 413 189 382 c 0
 163 341 130 211 130 149 c 0
 130 113 139 85 157 64 c 1
EndSplineSet
EndChar
StartChar: sterling
Encoding: 163 163 98
Width: 500
Flags: W
HStem: -14 76<339 395> 322 35<40 129 209 344> 663 45<349 385>
VStem: 437 23<558 584.268>
Fore
477 159 m 1
 441 1 l 1
 425 -9 405 -14 382 -14 c 0
 364 -14 336 -9 230 11 c 2
 225 12 l 1
 219 13 l 1
 213 14 l 2
 168 22 136 26 116 26 c 0
 88 26 83 24 64 10 c 0
 53 1 37 -10 23 -18 c 1
 11 -13 2 8 2 27 c 1
 79 68 108 131 126 299 c 1
 129 322 l 1
 34 322 l 1
 41 357 l 1
 135 357 l 1
 159 499 186 567 243 632 c 0
 289 684 333 708 385 708 c 0
 421 708 445 701 479 680 c 1
 466 641 461 607 460 558 c 1
 437 558 l 1
 437 612 l 2
 437 639 396 663 349 663 c 0
 300 663 267 631 255 569 c 2
 250 544 l 1
 219 400 l 1
 209 357 l 1
 351 357 l 1
 344 322 l 1
 201 322 l 1
 162 169 136 110 91 64 c 1
 129 75 150 79 176 79 c 0
 189 79 220 77 236 74 c 2
 295 66 l 2
 308 64 330 62 339 62 c 2
 369 62 l 2
 384 62 389 62 395 63 c 0
 411 65 423 77 431 99 c 2
 453 159 l 1
 477 159 l 1
EndSplineSet
EndChar
StartChar: fraction
Encoding: 164 8260 99
Width: 167
Flags: W
HStem: 0 21G<-170 -114> 679 20G<281 337>
DStem: 281 699 337 699 -170 0 -114 0
Fore
-114 0 m 1
 -170 0 l 1
 281 699 l 1
 337 699 l 1
 -114 0 l 1
EndSplineSet
EndChar
StartChar: yen
Encoding: 165 165 100
Width: 500
Flags: W
HStem: -3 21G<298 321> 203 34<95 205 275 380> 310 34<111 205 302 392>
DStem: 205 203 270 203 192 125 254 93
Fore
270 203 m 1
 254 93 l 1
 252 77 251 69 251 58 c 0
 251 37 259 30 282 28 c 2
 323 25 l 1
 321 -3 l 1
 298 -3 l 1
 216 0 l 2
 204 0 183 -1 144 -2 c 2
 98 -3 l 1
 101 25 l 1
 142 28 l 2
 161 30 170 34 174 43 c 0
 178 49 184 80 192 125 c 1
 205 203 l 1
 90 203 l 1
 96 237 l 1
 210 237 l 1
 212 248 212 253 212 259 c 0
 212 272 210 287 205 310 c 1
 106 310 l 1
 112 344 l 1
 196 344 l 1
 187 386 l 2
 149 562 117 630 71 630 c 0
 63 630 53 627 35 618 c 1
 35 642 l 1
 55 659 72 674 96 699 c 1
 163 701 209 596 261 319 c 1
 356 557 429 666 512 691 c 1
 508 621 l 1
 455 609 420 572 362 467 c 2
 356 457 l 1
 337 421 328 404 321 387 c 2
 302 344 l 1
 398 344 l 1
 392 310 l 1
 290 310 l 1
 283 293 279 274 275 237 c 1
 386 237 l 1
 380 203 l 1
 270 203 l 1
EndSplineSet
EndChar
StartChar: florin
Encoding: 166 402 101
Width: 500
Flags: W
HStem: -276 64<5 74> 370 34<127 232 310 414>
DStem: 232 370 305 370 148 -87 254 123
Fore
5 -276 m 1
 17 -196 l 1
 28 -192 l 1
 41 -206 54 -212 74 -212 c 0
 99 -212 121 -187 133 -146 c 1
 134 -140 l 1
 143 -110 145 -104 148 -87 c 2
 232 370 l 1
 119 370 l 1
 128 404 l 1
 237 404 l 1
 257 491 276 540 315 600 c 0
 360 669 408 711 440 709 c 2
 440 709 442 709 445 708 c 2
 470 703 l 1
 458 624 l 1
 440 640 423 647 404 647 c 0
 384 647 363 633 355 614 c 0
 345 590 336 552 321 467 c 2
 310 404 l 1
 422 404 l 1
 414 370 l 1
 305 370 l 1
 254 123 l 1
 230 2 173 -156 135 -210 c 1
 114 -243 49 -276 5 -276 c 1
EndSplineSet
EndChar
StartChar: section
Encoding: 167 167 102
Width: 500
Flags: W
HStem: -220 46<159 191> 661 45<304 336>
VStem: 49 63<255 288> 117 57<497 543> 330 60<-44 -3> 384 62<217 252>
DStem: 177 399 220 461 296 329 343 385
Fore
71 -29 m 1xf8
 65 -115 l 1
 101 -157 137 -174 191 -174 c 0
 269 -174 330 -117 330 -44 c 0xf8
 330 5 308 33 236 72 c 2
 185 100 l 2
 83 156 49 195 49 255 c 0
 49 316 75 353 158 413 c 1
 130 444 117 470 117 497 c 0
 117 550 139 594 191 644 c 0
 237 689 277 706 336 706 c 0
 388 706 424 694 463 666 c 1
 432 537 l 1
 407 537 l 1
 412 617 l 1
 382 647 347 661 304 661 c 0
 231 661 174 609 174 543 c 0
 174 509 191 479 220 461 c 2
 343 385 l 2
 390 356 407 343 420 327 c 0
 437 306 446 281 446 252 c 0xf4
 446 190 412 140 339 95 c 1
 378 60 390 37 390 -3 c 0
 390 -56 363 -107 312 -155 c 1
 263 -199 215 -220 159 -220 c 0
 103 -220 56 -203 14 -168 c 1
 47 -27 l 1
 71 -29 l 1xf8
296 329 m 2
 177 399 l 1
 131 361 112 328 112 288 c 0
 112 246 139 213 202 177 c 2
 318 111 l 1
 366 150 384 179 384 217 c 0xf4
 384 261 360 291 296 329 c 2
EndSplineSet
EndChar
StartChar: currency
Encoding: 168 164 103
Width: 500
Flags: W
HStem: 115 52<250 254> 523 52<237 271>
VStem: 17 52<338 356> 431 52<338 356>
DStem: 14 545 45 577 70 489 102 521 68 203 100 171 14 149 45 118 400 171 432 203 455 118 486 149 455 577 486 545 398 521 430 489
Fore
14 545 m 1
 45 577 l 1
 102 521 l 1
 147 559 192 575 250 575 c 0
 307 575 353 559 398 521 c 1
 455 577 l 1
 486 545 l 1
 430 489 l 1
 467 446 483 403 483 346 c 0
 483 292 468 251 432 203 c 1
 486 149 l 1
 455 118 l 1
 400 171 l 1
 351 131 308 115 250 115 c 0
 192 115 149 131 100 171 c 1
 45 118 l 1
 14 149 l 1
 68 203 l 1
 32 251 17 292 17 346 c 0
 17 404 33 446 70 489 c 1
 14 545 l 1
251 523 m 0
 148 523 69 446 69 345 c 0
 69 246 149 167 250 167 c 0
 351 167 431 246 431 345 c 0
 431 444 351 523 251 523 c 0
EndSplineSet
EndChar
StartChar: quotesingle
Encoding: 169 39 104
Width: 333
Flags: W
Fore
170 508 m 1
 140 508 l 1
 202 695 l 2
 210 720 226 733 247 733 c 0
 270 733 288 716 288 694 c 0
 288 681 285 669 279 661 c 2
 170 508 l 1
EndSplineSet
EndChar
StartChar: quotedblleft
Encoding: 170 8220 105
Width: 500
Flags: W
DStem: 271 733 271 733 239 720 278 724 468 733 468 733 436 720 475 724
Fore
107 488 m 1
 98 506 l 1
 147 600 188 662 239 720 c 1
 271 733 l 1
 278 724 l 1
 231 651 206 588 196 513 c 1
 169 508 141 500 107 488 c 1
304 488 m 1
 295 506 l 1
 344 600 385 662 436 720 c 1
 468 733 l 1
 475 724 l 1
 428 651 403 588 393 513 c 1
 366 508 338 500 304 488 c 1
EndSplineSet
KernsSLIF: 89 -13 1 0 87 -12 1 0 86 -17 1 0 84 -16 1 0 262 -149 1 0 256 -149 1 0 257 -149 1 0 225 -153 1 0 65 -149 1 0
EndChar
StartChar: guillemotleft
Encoding: 171 171 106
Width: 500
Flags: W
Fore
208 70 m 1
 57 251 l 1
 57 267 l 1
 251 440 l 1
 270 424 l 1
 133 256 l 1
 228 85 l 1
 208 70 l 1
375 70 m 1
 224 251 l 1
 224 267 l 1
 418 440 l 1
 437 424 l 1
 300 256 l 1
 395 85 l 1
 375 70 l 1
EndSplineSet
EndChar
StartChar: guilsinglleft
Encoding: 172 8249 107
Width: 333
Flags: W
Fore
208 70 m 1
 57 251 l 1
 57 267 l 1
 251 440 l 1
 270 424 l 1
 133 256 l 1
 228 85 l 1
 208 70 l 1
EndSplineSet
EndChar
StartChar: guilsinglright
Encoding: 173 8250 108
Width: 333
Flags: W
Fore
125 440 m 1
 276 259 l 1
 276 243 l 1
 82 70 l 1
 63 86 l 1
 200 254 l 1
 105 425 l 1
 125 440 l 1
EndSplineSet
KernsSLIF: 89 -114 1 0 87 -63 1 0 86 -84 1 0 84 -103 1 0 262 -72 1 0 256 -72 1 0 257 -72 1 0 225 -80 1 0 65 -72 1 0
EndChar
StartChar: fi
Encoding: 174 64257 109
Width: 528
Flags: W
HStem: -276 63<-127 -73> -9 63<331 392> 462 20G<431 439.5> 604 108<447 465>
VStem: 297 82<33 74> 408 94<645 671>
DStem: 134 521 213 549 119 442 192 437 362 355 445 406 303 81 384 108
Fore
465 712 m 0
 484 712 502 693 502 671 c 0
 502 633 478 604 447 604 c 0
 423 604 408 620 408 645 c 0
 408 678 437 712 465 712 c 0
192 437 m 1
 281 432 l 2
 306 431 334 440 393 467 c 0
 416 478 427 482 435 482 c 0
 444 482 450 469 450 448 c 0
 450 435 449 424 445 406 c 1
 384 108 l 1
 380 92 379 82 379 74 c 0
 379 62 384 54 392 54 c 0
 404 54 422 62 439 75 c 2
 473 101 l 1
 482 81 l 1
 407 21 357 -9 331 -9 c 0
 309 -9 297 6 297 33 c 0
 297 46 299 64 303 81 c 1
 362 355 l 1
 362 357 362 357 363 360 c 0
 368 374 370 386 370 393 c 0
 370 405 362 415 351 415 c 0
 345 415 341 414 324 406 c 2
 272 383 l 1
 182 383 l 1
 173 342 166 307 163 295 c 0
 91 -55 68 -126 7 -198 c 0
 -32 -245 -86 -276 -127 -276 c 0
 -138 -276 -153 -273 -162 -268 c 1
 -157 -259 -143 -211 -139 -188 c 1
 -125 -184 l 1
 -107 -206 -96 -213 -73 -213 c 0
 -37 -213 -7 -182 11 -123 c 0
 33 -54 70 132 100 327 c 1
 109 383 l 1
 28 383 l 1
 33 405 l 1
 58 414 78 422 119 442 c 1
 134 521 l 2
 145 578 157 608 179 630 c 0
 210 662 279 718 296 726 c 0
 305 730 320 733 332 733 c 0
 343 733 354 731 375 724 c 1
 367 701 363 681 354 635 c 1
 342 632 l 1
 332 658 314 673 292 673 c 0
 257 673 228 627 213 549 c 1
 192 437 l 1
EndSplineSet
Ligature: 0 0 'liga' f i
EndChar
StartChar: fl
Encoding: 175 64258 110
Width: 545
Flags: W
HStem: -276 63<-127 -73> -9 65<336 403> 383 54<192 286> 670 64<300 345> 673 24<376 389>
VStem: 307 80<30 79>
DStem: 134 521 213 549 119 442 192 437 299 446 299 446 292 444 303 439 404 506 520 725 320 107 397 150 491 108 500 87 443 74 465 61
Fore
365 632 m 1xec
 355 632 l 1
 346 658 328 670 300 670 c 0
 253 670 230 637 213 549 c 1
 192 437 l 1
 208 437 l 2
 257 437 268 438 292 444 c 2
 299 446 l 1
 303 439 l 1
 297 425 290 402 286 383 c 1
 182 383 l 1
 174 345 166 307 163 295 c 0
 90 -56 68 -126 7 -198 c 0
 -32 -245 -86 -276 -127 -276 c 0
 -138 -276 -153 -273 -162 -268 c 1
 -157 -259 -143 -211 -139 -188 c 1
 -125 -184 l 1
 -107 -206 -96 -213 -73 -213 c 0
 -37 -213 -7 -182 11 -123 c 0
 33 -54 70 132 100 327 c 1
 109 383 l 1
 28 383 l 1
 33 405 l 1
 58 414 78 422 119 442 c 1
 134 521 l 2
 145 578 157 608 179 630 c 0
 203 655 284 716 308 727 c 0
 316 731 333 734 345 734 c 0xf4
 356 734 365 732 383 725 c 1
 376 697 l 1
 422 698 463 709 504 733 c 1
 520 725 l 1
 397 150 l 1
 390 119 387 95 387 79 c 0
 387 64 393 56 403 56 c 0
 413 56 425 61 443 74 c 2
 491 108 l 1
 500 87 l 1
 465 61 l 2
 387 2 367 -9 336 -9 c 0
 317 -9 307 4 307 30 c 0
 307 46 311 71 319 102 c 1
 320 107 l 1
 404 506 l 1
 423 598 424 602 426 642 c 1
 420 664 l 1
 409 668 391 673 387 673 c 2
 371 673 l 1
 365 632 l 1xec
EndSplineSet
Ligature: 0 0 'liga' f l
EndChar
StartChar: endash
Encoding: 177 8211 111
Width: 500
Flags: W
HStem: 228 50<-1 500>
Fore
500 228 m 1
 -10 228 l 1
 0 278 l 1
 510 278 l 1
 500 228 l 1
EndSplineSet
EndChar
StartChar: dagger
Encoding: 178 8224 112
Width: 500
Flags: W
HStem: 1 21G<175 191>
DStem: 221 412 286 412 208 329 276 344 465 471 465 471 296 466 469 467
Fore
61 472 m 1
 231 466 l 1
 245 548 247 571 257 689 c 1
 259 692 l 1
 277 690 286 690 300 690 c 0
 314 690 323 690 341 692 c 1
 344 689 l 1
 332 647 331 639 310 536 c 2
 296 466 l 1
 465 471 l 1
 469 467 l 1
 461 410 l 1
 456 406 l 1
 286 412 l 1
 276 344 l 2
 263 256 253 185 230 5 c 1
 225 0 l 1
 207 1 199 1 183 1 c 0
 167 1 159 1 141 0 c 1
 138 3 l 1
 163 102 199 267 208 329 c 1
 221 412 l 1
 52 407 l 1
 48 411 l 1
 56 468 l 1
 61 472 l 1
EndSplineSet
EndChar
StartChar: daggerdbl
Encoding: 179 8225 113
Width: 500
Flags: W
VStem: 214 82<265 270>
DStem: 181 44 244 44 134 -152 232 -24 203 167 267 164 190 92 253 94 413 100 413 100 253 94 421 92 486 492 486 492 326 486 494 484
Fore
94 484 m 1
 105 490 l 1
 264 484 l 1
 270 524 l 1
 277 573 283 628 288 687 c 1
 293 692 l 1
 310 690 318 690 331 690 c 0
 344 690 352 690 369 692 c 1
 370 687 l 1
 355 622 341 561 337 540 c 2
 334 524 l 1
 326 486 l 1
 486 492 l 1
 494 484 l 1
 488 434 l 1
 479 429 l 1
 317 436 l 1
 305 361 l 2
 298 316 296 295 296 265 c 1
 284 240 277 216 267 164 c 1
 253 94 l 1
 413 100 l 1
 421 92 l 1
 415 42 l 1
 406 37 l 1
 244 44 l 1
 232 -24 l 1
 230 -28 226 -70 223 -109 c 0
 223 -117 222 -132 220 -152 c 1
 212 -162 l 1
 194 -160 185 -160 174 -160 c 0
 163 -160 154 -160 136 -162 c 1
 134 -152 l 1
 181 44 l 1
 19 37 l 1
 10 42 l 1
 20 92 l 1
 31 98 l 1
 190 92 l 1
 203 167 l 2
 211 213 214 235 214 269 c 1
 226 293 230 307 244 380 c 2
 255 436 l 1
 93 429 l 1
 84 434 l 1
 94 484 l 1
EndSplineSet
EndChar
StartChar: periodcentered
Encoding: 180 183 114
Width: 250
Flags: W
Fore
113 312 m 0
 138 312 158 291 158 264 c 0
 158 226 131 195 97 195 c 0
 70 195 53 213 53 242 c 0
 53 280 80 312 113 312 c 0
EndSplineSet
EndChar
StartChar: paragraph
Encoding: 182 182 115
Width: 500
Flags: W
HStem: -224 30<86 137 416 470> 657 32<365 451> 662 29<543 606>
VStem: 33 110<491 518>
DStem: 243 250 383 657 180 -119 236 -189 312 652 383 657 249 288 236 -189 451 657 507 592 304 -189 382 -137
Fore
87 -194 m 1xb0
 117 -194 l 2
 158 -194 170 -180 180 -119 c 1
 243 250 l 1
 195 257 168 269 133 298 c 0
 70 350 33 430 33 516 c 0
 33 631 94 692 209 692 c 0
 224 692 234 692 250 691 c 0xb0
 279 690 298 690 308 690 c 2
 365 690 l 1
 410 689 l 2xd0
 433 689 470 689 543 691 c 2
 611 692 l 1
 606 662 l 1
 583 662 l 2
 531 662 517 649 507 592 c 1
 382 -137 l 2
 381 -143 380 -151 380 -155 c 0
 380 -184 393 -194 432 -194 c 2
 475 -194 l 1
 470 -224 l 1
 397 -223 l 2
 335 -222 291 -221 270 -221 c 0
 245 -221 200 -222 137 -223 c 2
 82 -224 l 1
 87 -194 l 1xb0
451 657 m 1xd0
 383 657 l 1
 236 -189 l 1
 304 -189 l 1
 451 657 l 1xd0
249 288 m 1
 312 652 l 1
 287 655 270 657 256 657 c 0
 179 657 143 605 143 493 c 0
 143 378 180 307 249 288 c 1
EndSplineSet
EndChar
StartChar: bullet
Encoding: 183 8226 116
Width: 500
Flags: W
Fore
258 526 m 0
 352 526 430 448 430 354 c 0
 430 260 352 182 258 182 c 0
 163 182 86 260 86 355 c 0
 86 448 165 526 258 526 c 0
EndSplineSet
EndChar
StartChar: quotesinglbase
Encoding: 184 8218 117
Width: 278
Flags: W
Fore
112 95 m 1
 200 120 l 1
 211 108 l 1
 167 19 123 -47 68 -110 c 1
 36 -122 l 1
 27 -115 l 1
 66 -61 95 11 112 95 c 1
EndSplineSet
EndChar
StartChar: quotedblbase
Encoding: 185 8222 118
Width: 500
Flags: W
Fore
128 95 m 1
 216 120 l 1
 227 108 l 1
 183 19 139 -47 84 -110 c 1
 52 -122 l 1
 43 -115 l 1
 82 -61 111 11 128 95 c 1
325 95 m 1
 413 120 l 1
 424 108 l 1
 380 19 336 -47 281 -110 c 1
 249 -122 l 1
 240 -115 l 1
 279 -61 308 11 325 95 c 1
EndSplineSet
KernsSLIF: 89 -83 1 0 87 -47 1 0 86 -74 1 0 84 -62 1 0 225 -5 1 0 65 2 1 0
EndChar
StartChar: quotedblright
Encoding: 186 8221 119
Width: 500
Flags: W
Fore
269 733 m 1
 278 715 l 1
 229 621 188 559 137 501 c 1
 105 488 l 1
 98 497 l 1
 145 570 170 632 180 708 c 1
 206 712 236 721 269 733 c 1
466 733 m 1
 475 715 l 1
 426 621 385 559 334 501 c 1
 302 488 l 1
 295 497 l 1
 342 570 367 632 377 708 c 1
 403 712 433 721 466 733 c 1
EndSplineSet
KernsSLIF: 89 -10 1 0 87 -9 1 0 86 -14 1 0 84 -13 1 0 262 -146 1 0 256 -146 1 0 257 -146 1 0 225 -150 1 0 65 -146 1 0
EndChar
StartChar: guillemotright
Encoding: 187 187 120
Width: 500
Flags: W
Fore
125 440 m 1
 276 259 l 1
 276 243 l 1
 82 70 l 1
 63 86 l 1
 200 254 l 1
 105 425 l 1
 125 440 l 1
292 440 m 1
 443 259 l 1
 443 243 l 1
 249 70 l 1
 230 86 l 1
 367 254 l 1
 272 425 l 1
 292 440 l 1
EndSplineSet
KernsSLIF: 89 -114 1 0 87 -63 1 0 86 -85 1 0 84 -103 1 0 262 -72 1 0 256 -72 1 0 257 -72 1 0 225 -80 1 0 65 -72 1 0
EndChar
StartChar: ellipsis
Encoding: 188 8230 121
Width: 1000
Flags: W
HStem: -5 21G<132.5 162.5 465.5 495.5 798.5 828.5>
VStem: 102 105<42 64> 435 105<42 64> 768 105<42 64>
CounterMasks: 1 00
Fore
162 112 m 0
 187 112 207 91 207 64 c 0
 207 27 179 -5 146 -5 c 0
 119 -5 102 13 102 42 c 0
 102 80 129 112 162 112 c 0
495 112 m 0
 520 112 540 91 540 64 c 0
 540 27 512 -5 479 -5 c 0
 452 -5 435 13 435 42 c 0
 435 80 462 112 495 112 c 0
828 112 m 0
 853 112 873 91 873 64 c 0
 873 27 845 -5 812 -5 c 0
 785 -5 768 13 768 42 c 0
 768 80 795 112 828 112 c 0
EndSplineSet
Ligature: 0 1 'liga' period period period
EndChar
StartChar: perthousand
Encoding: 189 8240 122
Width: 1000
Flags: W
HStem: 0 23<439 457 759 777> 278 23<477.49 492 807 825> 398 23<183 190> 676 23<218.49 233>
VStem: 72 64<485 530> 283 64<573 613> 331 64<87 132> 542 64<175 215> 654 64<87 132> 865 64<175 215>
DStem: 550 717 591 717 94 -6 139 -6
Fore
231 699 m 0xfdc0
 300 699 347 648 347 573 c 0
 347 477 274 398 186 398 c 0
 117 398 72 449 72 530 c 0
 72 621 145 699 231 699 c 0xfdc0
230 676 m 0
 205 676 186 663 169 633 c 0
 150 599 136 537 136 485 c 0
 136 442 153 421 188 421 c 0
 214 421 233 434 250 464 c 0
 269 498 283 560 283 613 c 0
 283 655 266 676 230 676 c 0
490 301 m 0
 559 301 606 250 606 175 c 0
 606 79 533 0 445 0 c 0
 376 0 331 51 331 132 c 0xfbc0
 331 223 404 301 490 301 c 0
489 278 m 0
 464 278 445 265 428 235 c 0
 409 201 395 139 395 87 c 0
 395 44 412 23 447 23 c 0
 473 23 492 36 509 66 c 0
 528 100 542 162 542 215 c 0
 542 257 525 278 489 278 c 0
813 301 m 0
 882 301 929 250 929 175 c 0
 929 79 856 0 768 0 c 0
 699 0 654 52 654 132 c 0
 654 223 727 301 813 301 c 0
812 278 m 0
 787 278 768 265 751 235 c 0
 732 201 718 139 718 87 c 0
 718 44 735 23 770 23 c 0
 796 23 815 36 832 66 c 0
 851 100 865 162 865 215 c 0
 865 257 848 278 812 278 c 0
94 -6 m 1
 550 717 l 1
 591 717 l 1
 139 -6 l 1
 94 -6 l 1
EndSplineSet
EndChar
StartChar: questiondown
Encoding: 191 191 123
Width: 500
Flags: W
HStem: -246 59<214 238> 350 117<309 325>
VStem: 57 82<-114 -100> 265 105<397 419> 285 36<201 212>
DStem: 235 133 266 93 131 33 196 14
Fore
347 -105 m 1xe8
 369 -111 l 1
 367 -118 363 -127 359 -137 c 0
 357 -141 356 -144 355 -145 c 1
 329 -209 l 1
 285 -236 254 -246 214 -246 c 0
 120 -246 57 -192 57 -112 c 0
 57 -60 79 -17 131 33 c 2
 235 133 l 2
 273 169 285 188 285 210 c 0
 285 227 278 241 258 261 c 1
 283 267 l 1
 308 250 321 230 321 204 c 0
 321 170 305 137 266 93 c 2
 196 14 l 2
 157 -30 139 -67 139 -102 c 0
 139 -151 181 -187 238 -187 c 0
 279 -187 301 -174 327 -135 c 2
 347 -105 l 1xe8
325 467 m 0
 350 467 370 446 370 419 c 0
 370 381 343 350 309 350 c 0
 282 350 265 368 265 397 c 0xf0
 265 435 292 467 325 467 c 0
EndSplineSet
EndChar
StartChar: grave
Encoding: 193 96 124
Width: 333
Flags: W
Fore
276 518 m 1
 114 619 l 2
 93 632 86 641 86 656 c 0
 86 673 104 687 124 687 c 0
 134 687 145 680 157 669 c 2
 310 518 l 1
 276 518 l 1
EndSplineSet
EndChar
StartChar: acute
Encoding: 194 180 125
Width: 333
Flags: W
Fore
122 518 m 1
 275 669 l 2
 287 681 298 687 308 687 c 0
 328 687 346 672 346 656 c 0
 346 641 339 632 318 619 c 2
 156 518 l 1
 122 518 l 1
EndSplineSet
Ligature: 0 1 'liga' space acutecomb
EndChar
StartChar: circumflex
Encoding: 195 710 126
Width: 333
Flags: W
Fore
262 679 m 1
 350 510 l 1
 314 510 l 1
 232 614 l 1
 95 510 l 1
 56 510 l 1
 213 679 l 1
 262 679 l 1
EndSplineSet
EndChar
StartChar: tilde
Encoding: 196 732 127
Width: 333
Flags: W
Fore
92 535 m 1
 63 535 l 1
 83 608 112 638 161 638 c 0
 180 638 201 633 224 624 c 2
 284 600 l 2
 291 597 302 595 311 595 c 0
 331 595 342 604 362 638 c 1
 390 638 l 1
 378 573 342 535 293 535 c 0
 280 535 252 542 229 551 c 2
 191 566 l 1
 189 567 l 2
 188 567 185 568 182 570 c 0
 165 577 155 579 144 579 c 0
 119 579 107 569 92 535 c 1
EndSplineSet
Ligature: 0 1 'liga' space tildecomb
EndChar
StartChar: macron
Encoding: 197 175 128
Width: 333
Flags: W
HStem: 538 51<84 375>
Fore
386 589 m 1
 375 538 l 1
 74 538 l 1
 85 589 l 1
 386 589 l 1
EndSplineSet
Ligature: 0 1 'liga' space uni0304
EndChar
StartChar: breve
Encoding: 198 728 129
Width: 333
Flags: W
HStem: 518 59<219 237>
Fore
92 677 m 1
 121 677 l 1
 127 611 164 577 230 577 c 0
 290 577 326 604 364 677 c 1
 393 677 l 1
 379 625 369 603 348 577 c 0
 316 537 275 518 223 518 c 0
 171 518 133 538 112 576 c 0
 97 603 92 626 92 677 c 1
EndSplineSet
Ligature: 0 1 'liga' space uni0306
EndChar
StartChar: dotaccent
Encoding: 199 729 130
Width: 333
Flags: W
Fore
230 645 m 0
 258 645 283 620 283 592 c 0
 283 563 258 537 229 537 c 0
 200 537 175 563 175 592 c 0
 175 620 200 645 230 645 c 0
EndSplineSet
Ligature: 0 1 'liga' space uni0307
EndChar
StartChar: dieresis
Encoding: 200 168 131
Width: 333
Flags: W
VStem: 78 100<588 590> 278 100<588 590>
Fore
128 637 m 0
 154 637 178 613 178 588 c 0
 178 562 154 537 128 537 c 0
 102 537 78 562 78 588 c 0
 78 614 102 637 128 637 c 0
328 637 m 0
 354 637 378 613 378 588 c 0
 378 562 354 537 328 537 c 0
 302 537 278 562 278 588 c 0
 278 614 302 637 328 637 c 0
EndSplineSet
Ligature: 0 1 'liga' space uni0308
EndChar
StartChar: ring
Encoding: 202 730 132
Width: 333
Flags: W
HStem: 518 36<259 272> 682 36<254 272>
VStem: 159 38<618 631> 321 38<618 631>
Fore
260 718 m 0
 314 718 359 673 359 618 c 0
 359 562 314 518 259 518 c 0
 203 518 159 562 159 618 c 0
 159 674 204 718 260 718 c 0
259 682 m 0
 222 682 197 656 197 618 c 0
 197 580 222 554 259 554 c 0
 296 554 321 580 321 618 c 0
 321 656 296 682 259 682 c 0
EndSplineSet
Ligature: 0 1 'liga' space uni030A
EndChar
StartChar: cedilla
Encoding: 203 184 133
Width: 333
Flags: W
HStem: -216 35<70 88> -98 36<83 120> -20 20G<102 140>
VStem: 130 72<-138 -130>
DStem: 102 0 140 0 41 -96 96 -64
Fore
50 -104 m 1
 41 -96 l 1
 102 0 l 1
 140 0 l 1
 96 -64 l 1
 107 -63 114 -62 120 -62 c 0
 170 -62 202 -89 202 -132 c 0
 202 -183 154 -216 79 -216 c 0
 52 -216 33 -212 -9 -196 c 1
 8 -167 l 1
 43 -178 58 -181 77 -181 c 0
 108 -181 130 -162 130 -136 c 0
 130 -114 111 -98 83 -98 c 0
 76 -98 67 -99 57 -102 c 2
 50 -104 l 1
EndSplineSet
Ligature: 0 1 'liga' space uni0327
EndChar
StartChar: hungarumlaut
Encoding: 205 733 134
Width: 333
Flags: W
Fore
46 518 m 1
 155 704 l 2
 166 723 177 731 192 731 c 0
 214 731 228 719 228 700 c 0
 228 689 225 685 209 666 c 2
 79 518 l 1
 46 518 l 1
203 518 m 1
 312 704 l 1
 324 723 334 731 349 731 c 0
 371 731 385 719 385 700 c 0
 385 689 382 684 366 666 c 2
 236 518 l 1
 203 518 l 1
EndSplineSet
Ligature: 0 1 'liga' space uni030B
EndChar
StartChar: ogonek
Encoding: 206 731 135
Width: 333
Flags: W
HStem: -207 56<92 132> -38 20G<109 143>
VStem: 38 56<-142 -105>
Fore
182 -117 m 1
 196 -121 l 1
 163 -181 131 -207 92 -207 c 0
 59 -207 38 -181 38 -142 c 0
 38 -106 52 -79 98 -30 c 2
 109 -18 l 1
 143 -18 l 1
 141 -21 l 1
 138 -23 136 -26 134 -29 c 0
 103 -64 94 -82 94 -105 c 0
 94 -132 110 -151 132 -151 c 0
 149 -151 162 -142 182 -117 c 1
EndSplineSet
Ligature: 0 1 'liga' space uni0328
EndChar
StartChar: caron
Encoding: 207 711 136
Width: 333
Flags: W
Fore
246 510 m 1
 200 510 l 1
 104 679 l 1
 141 679 l 1
 231 574 l 1
 373 679 l 1
 409 679 l 1
 246 510 l 1
EndSplineSet
EndChar
StartChar: emdash
Encoding: 208 8212 137
Width: 1000
Flags: W
HStem: 228 50<-1 1000>
Fore
1000 228 m 1
 -10 228 l 1
 0 278 l 1
 1010 278 l 1
 1000 228 l 1
EndSplineSet
EndChar
StartChar: AE
Encoding: 225 198 138
Width: 941
Flags: W
HStem: -3 30<195.667 221> -3 42<619 742> 279 40<290 486> 334 42<581 685> 537 155<833 881> 648 41<587 679 675 781> 655 36<404 546> 662 29<344 412>
DStem: 434 607 495 620 66 62 290 319 486 279 573 334 448 66 530 81 546 655 623 614 492 319 581 376 844 161 871 161 828 101 866 135
Fore
486 279 m 1x74
 264 279 l 1
 246 249 l 1
 232 227 l 1
 156 98 l 2
 155 97 154 95 152 91 c 0
 140 72 136 62 136 54 c 0
 136 36 156 27 197 27 c 2
 221 27 l 1
 221 -3 l 1xb0
 145 0 l 1
 114 0 l 2
 100 0 80 0 44 -2 c 2
 -4 -3 l 1x70
 -4 27 l 1
 30 32 l 2
 41 33 54 44 66 62 c 2
 434 607 l 2
 441 618 447 634 447 643 c 0
 447 653 429 662 410 662 c 2
 344 662 l 1xb1
 344 692 l 1x38
 404 691 l 2x32
 489 689 531 689 587 689 c 0x34
 605 689 662 689 675 690 c 2
 795 691 l 2x31
 819 692 830 692 833 692 c 0x38
 851 692 881 691 902 689 c 1x34
 891 651 884 601 881 537 c 1
 857 537 l 1x38
 849 626 l 1
 848 640 809 650 755 650 c 0
 738 650 710 649 679 648 c 0
 672 648 655 647 632 646 c 1
 628 638 626 630 623 614 c 2
 581 376 l 1
 598 376 l 2
 676 376 736 378 817 382 c 1
 821 375 l 1
 802 330 l 1
 776 331 l 2
 728 333 697 334 670 334 c 2
 573 334 l 1
 530 81 l 1
 529 72 528 64 528 50 c 2
 528 46 l 1
 554 44 l 2
 588 41 620 39 640 39 c 0
 685 39 771 44 787 48 c 0
 809 53 818 65 828 101 c 2
 844 161 l 1
 871 161 l 1
 866 135 l 2
 857 86 852 56 850 36 c 1
 846 0 l 1
 813 -1 l 2
 778 -2 756 -3 742 -3 c 0
 734 -3 702 -2 588 -1 c 0
 567 0 548 0 532 0 c 0
 502 0 468 -1 425 -2 c 2
 384 -3 l 1
 389 23 l 1
 431 30 442 38 448 66 c 1
 486 279 l 1x74
290 319 m 1
 492 319 l 1
 546 655 l 1
 532 655 l 2x32
 522 655 513 647 495 620 c 2
 290 319 l 1
EndSplineSet
EndChar
StartChar: ordfeminine
Encoding: 227 170 139
Width: 333
Flags: W
HStem: 404 43<82 118> 670 29<208 235>
VStem: 60 47<454 472> 211 48<426 463>
DStem: 312 699 312 699 291 688 319 694
Fore
319 694 m 1
 260 471 l 2
 259 468 259 465 259 463 c 0
 259 453 264 446 271 446 c 0
 278 446 286 450 303 463 c 0
 307 466 310 468 313 471 c 2
 317 473 l 1
 321 461 l 1
 266 420 240 404 227 404 c 0
 217 404 211 412 211 426 c 0
 211 433 213 446 215 457 c 1
 231 535 l 1
 183 470 159 445 123 422 c 0
 104 410 91 404 82 404 c 0
 70 404 60 425 60 454 c 0
 60 514 96 623 125 650 c 0
 160 682 198 699 235 699 c 0
 253 699 265 697 291 688 c 1
 312 699 l 1
 319 694 l 1
141 613 m 2
 124 566 l 1
 115 539 107 496 107 468 c 0
 107 454 111 447 118 447 c 0
 140 447 197 500 221 543 c 0
 239 574 248 599 265 659 c 1
 238 667 224 670 208 670 c 0
 170 670 158 660 141 613 c 2
EndSplineSet
EndChar
StartChar: Lslash
Encoding: 232 321 140
Width: 556
Flags: W
HStem: -3 42<244.983 304 304.062 356.806> 672 20G<328 352>
DStem: 123 301 210 348 81 55 164 81 130 340 123 301 -16 262 -4 233 167 559 256 613 130 340 217 386 360 463 372 434 217 386 210 348
Fore
130 340 m 1
 167 559 l 1
 172 591 176 621 176 635 c 0
 176 653 165 661 141 662 c 2
 94 664 l 1
 97 692 l 1
 161 690 l 2
 204 689 222 689 238 689 c 2
 328 692 l 1
 352 692 l 1
 349 664 l 1
 307 661 l 2
 270 658 263 651 256 613 c 1
 217 386 l 1
 360 463 l 1
 372 434 l 1
 210 348 l 1
 164 81 l 1
 163 72 162 64 162 50 c 2
 162 46 l 1
 228 40 255 39 304 39 c 0
 371 39 435 44 448 49 c 0
 457 54 466 71 475 103 c 2
 492 165 l 1
 523 165 l 1
 510 103 499 25 500 0 c 1
 467 -1 l 2
 434 -2 409 -3 395 -3 c 2
 385 -3 l 1
 170 0 l 2
 150 0 88 -1 57 -2 c 2
 16 -3 l 1
 21 23 l 1
 65 30 77 37 81 55 c 1
 123 301 l 1
 -4 233 l 1
 -16 262 l 1
 130 340 l 1
EndSplineSet
EndChar
StartChar: Oslash
Encoding: 233 216 141
Width: 778
Flags: W
HStem: -18 42<329 361> 664 42<433 463>
VStem: 53 88<248 298> 660 88<408 442>
DStem: 110 68 134 43 32 -15 60 -39 602 600 624 567 168 131 189 97 733 721 762 695 661 643 688 616
Fore
762 695 m 1
 688 616 l 1
 733 560 748 513 748 432 c 0
 748 175 568 -18 329 -18 c 0
 246 -18 191 -1 134 43 c 1
 60 -39 l 1
 32 -15 l 1
 110 68 l 1
 68 128 53 184 53 273 c 0
 53 522 227 706 463 706 c 0
 543 706 600 688 661 643 c 1
 733 721 l 1
 762 695 l 1
624 567 m 1
 189 97 l 1
 234 45 284 24 361 24 c 0
 438 24 503 50 552 100 c 0
 621 171 660 283 660 412 c 0
 660 480 651 517 624 567 c 1
168 131 m 1
 602 600 l 1
 550 647 505 664 433 664 c 0
 357 664 296 640 250 593 c 0
 181 523 141 407 141 275 c 0
 141 216 148 177 168 131 c 1
EndSplineSet
KernsSLIF: 65 -66 0 0
EndChar
StartChar: OE
Encoding: 234 338 142
Width: 1028
Flags: W
HStem: -18 42<308 329> -3 42<676 829> 334 42<668 761> 537 156<919 968> 651 39<779 863> 665 42<423 450>
VStem: 56 88<253 287>
DStem: 600 439 660 334 571 270 617 81 931 161 958 161 915 101 953 135
Fore
660 334 m 1x2a
 617 81 l 1
 616 72 615 64 615 50 c 2
 615 46 l 1
 646 41 682 39 724 39 c 0
 774 39 857 44 874 48 c 0
 896 53 905 65 915 101 c 2
 931 161 l 1
 958 161 l 1
 953 135 l 2
 944 86 939 56 937 36 c 1
 933 0 l 1
 900 -1 l 2
 865 -2 843 -3 829 -3 c 0
 821 -3 789 -2 675 -1 c 0
 645 0 645 0 612 0 c 2
 596 0 l 1
 572 -1 l 1
 556 -2 l 2
 549 -3 543 -3 538 -3 c 0x6a
 531 -3 526 0 526 4 c 0
 526 7 527 12 529 20 c 1
 544 90 l 1
 502 44 478 26 438 8 c 0
 399 -9 357 -18 310 -18 c 0
 149 -18 56 85 56 264 c 0
 56 392 104 517 186 599 c 0
 256 670 345 707 448 707 c 0xa6
 534 707 581 686 635 623 c 1
 642 673 l 1
 644 690 647 694 656 693 c 2x32
 667 692 l 1
 676 692 l 2
 704 690 706 690 728 690 c 2
 779 690 l 1x2a
 868 692 l 1
 919 693 l 2x32
 939 693 966 692 989 690 c 1x2a
 978 652 971 601 968 537 c 1
 944 537 l 1x32
 936 626 l 1
 935 642 894 651 829 651 c 0
 805 651 773 650 737 648 c 2
 716 647 l 1
 712 639 709 629 707 614 c 1
 668 376 l 1
 685 376 l 2
 763 376 823 378 904 382 c 1
 908 375 l 1
 889 330 l 1
 863 331 l 2
 815 333 784 334 757 334 c 2
 660 334 l 1x2a
571 270 m 2
 600 439 l 1
 603 458 605 478 605 496 c 0
 605 606 542 665 427 665 c 0
 358 665 298 641 255 596 c 0
 185 523 144 407 144 285 c 0
 144 124 213 24 325 24 c 0xa6
 440 24 547 131 571 270 c 2
EndSplineSet
EndChar
StartChar: ordmasculine
Encoding: 235 186 143
Width: 333
Flags: W
HStem: 404 23<149 175> 676 23<212 235>
VStem: 66 49<498 517> 273 49<595 613>
Fore
235 699 m 0
 290 699 322 666 322 609 c 0
 322 497 243 404 149 404 c 0
 96 404 66 439 66 500 c 0
 66 610 141 699 235 699 c 0
212 676 m 0
 155 676 115 606 115 506 c 0
 115 454 136 427 175 427 c 0
 203 427 225 442 243 473 c 0
 260 504 273 557 273 601 c 0
 273 649 251 676 212 676 c 0
EndSplineSet
EndChar
StartChar: ae
Encoding: 241 230 144
Width: 638
Flags: W
HStem: -11 47<97 141 383 420> 228 24<214 282> 434 48<180 212>
VStem: 1 73<89 113> 549 74<388 403>
Fore
579 113 m 1
 586 91 l 1
 488 12 443 -11 383 -11 c 0
 320 -11 287 15 268 81 c 1
 198 13 154 -11 97 -11 c 0
 33 -11 1 24 1 92 c 0
 1 199 73 252 216 252 c 2
 284 252 l 1
 289 267 290 278 290 307 c 0
 290 390 252 434 180 434 c 0
 162 434 145 431 127 425 c 1
 121 420 118 416 116 411 c 2
 96 353 l 1
 78 358 l 1
 72 426 l 1
 81 431 84 434 97 442 c 0
 145 474 168 482 212 482 c 0
 283 482 320 457 351 388 c 1
 434 456 486 482 539 482 c 0
 588 482 623 450 623 403 c 0
 623 354 584 302 522 271 c 0
 477 248 418 234 349 230 c 1
 338 172 336 155 336 132 c 0
 336 73 368 36 420 36 c 0
 454 36 483 49 541 88 c 0
 550 94 551 95 559 100 c 2
 579 113 l 1
282 228 m 1
 244 228 l 2
 129 228 74 188 74 104 c 0
 74 61 98 36 141 36 c 0
 198 36 251 89 272 170 c 0
 277 187 279 204 282 228 c 1
353 255 m 1
 381 258 393 259 404 261 c 0
 492 277 549 327 549 388 c 0
 549 421 529 440 493 440 c 0
 454 440 420 417 391 373 c 0
 369 337 359 309 353 255 c 1
EndSplineSet
KernsSLIF: 121 15 0 0 119 5 0 0 118 5 0 0
EndChar
StartChar: dotlessi
Encoding: 245 305 145
Width: 278
Flags: W
HStem: -9 65<81 144> 412 70<121 196>
VStem: 51 80<30 76>
DStem: 62 408 73 389 34 388 41 368 130 347 215 420 64 107 138 116
Fore
34 388 m 1
 62 408 l 2
 137 461 174 482 196 482 c 0
 212 482 221 473 221 456 c 0
 221 448 219 436 215 420 c 2
 138 116 l 1
 133 95 131 86 131 76 c 0
 131 65 137 56 144 56 c 0
 154 56 176 67 205 86 c 2
 231 103 l 1
 241 85 l 1
 143 12 107 -9 81 -9 c 0
 62 -9 51 6 51 30 c 0
 51 49 56 76 64 107 c 1
 130 347 l 2
 134 361 138 384 138 391 c 0
 138 403 131 412 121 412 c 0
 112 412 101 407 73 389 c 2
 41 368 l 1
 34 388 l 1
EndSplineSet
EndChar
StartChar: lslash
Encoding: 248 322 146
Width: 278
Flags: W
HStem: -9 65<66 129>
VStem: 36 80<31 76>
DStem: 97 339 181 392 49 107 123 116 106 381 97 339 -10 309 2 280 155 622 251 722 106 381 190 434 290 496 302 467 190 434 181 392
Fore
106 381 m 1
 155 622 l 1
 156 628 157 638 157 646 c 0
 157 663 148 670 123 670 c 2
 75 670 l 1
 79 691 l 1
 151 698 187 707 239 733 c 1
 251 722 l 1
 190 434 l 1
 290 496 l 1
 302 467 l 1
 181 392 l 1
 123 116 l 1
 120 104 l 1
 117 88 116 82 116 76 c 0
 116 66 122 56 129 56 c 0
 139 56 161 67 190 86 c 2
 216 103 l 1
 226 85 l 1
 128 12 92 -9 66 -9 c 0
 47 -9 36 6 36 31 c 0
 36 46 40 72 48 102 c 1
 49 107 l 1
 97 339 l 1
 2 280 l 1
 -10 309 l 1
 106 381 l 1
EndSplineSet
EndChar
StartChar: oslash
Encoding: 249 248 147
Width: 444
Flags: W
HStem: -11 38<146 185> 444 38<242 277>
VStem: 16 76<148 169> 335 76<310 330 335 346>
DStem: 35 56 52 29 -18 -4 6 -24 325 384 333 346 95 124 103 86 436 510 460 490 376 442 394 415
Fore
376 442 m 1
 436 510 l 1
 460 490 l 1
 394 415 l 1
 405 388 411 361 411 330 c 0
 411 244 376 141 326 80 c 0
 281 25 209 -11 146 -11 c 0
 104 -11 77 1 52 29 c 1
 6 -24 l 1
 -18 -4 l 1
 35 56 l 1
 21 84 16 110 16 150 c 0
 16 250 53 347 117 414 c 0
 158 457 216 482 277 482 c 0
 320 482 349 471 376 442 c 1
333 346 m 1
 103 86 l 1
 120 45 144 27 185 27 c 0
 226 27 258 49 285 97 c 0
 313 146 335 240 335 312 c 0
 335 318 334 326 333 335 c 1
 333 346 l 1
95 124 m 1
 325 384 l 1
 307 426 283 444 242 444 c 0
 199 444 166 422 139 376 c 0
 111 327 92 238 92 159 c 0
 92 148 93 139 95 124 c 1
EndSplineSet
EndChar
StartChar: oe
Encoding: 250 339 148
Width: 669
Flags: W
HStem: -11 47<419 454> 440 42<535 574>
VStem: 17 76<127 182> 332 43<127 326> 580 74<385 401>
Fore
613 111 m 1
 619 88 l 1
 529 14 477 -11 419 -11 c 0
 361 -11 322 18 310 71 c 1
 251 10 210 -11 148 -11 c 0
 60 -11 17 42 17 152 c 0
 17 247 48 334 103 396 c 0
 150 449 217 482 274 482 c 0
 331 482 371 455 400 396 c 1
 489 462 529 482 574 482 c 0
 621 482 654 448 654 401 c 0
 654 355 629 317 578 284 c 0
 537 258 488 239 384 210 c 1
 377 171 375 149 375 127 c 0
 375 71 405 36 454 36 c 0
 492 36 535 55 591 95 c 2
 613 111 l 1
238 444 m 0
 188 444 156 415 129 346 c 0
 105 285 93 222 93 153 c 0
 93 68 123 27 187 27 c 0
 224 27 254 44 273 76 c 0
 307 134 332 239 332 326 c 0
 332 403 299 444 238 444 c 0
388 234 m 1
 512 262 580 316 580 387 c 0
 580 421 564 440 535 440 c 0
 492 440 450 411 425 366 c 0
 409 336 401 307 388 234 c 1
EndSplineSet
EndChar
StartChar: germandbls
Encoding: 251 223 149
Width: 500
Flags: W
HStem: -276 59<-124 -74> -16 44<269 297> 685 48<340 394>
VStem: 295 62<332 372> 380 65<119 165> 426 62<597 632>
Fore
111 383 m 1xf4
 30 383 l 1
 34 405 l 1
 90 428 l 2
 115 439 122 443 123 449 c 2
 138 530 l 2
 149 589 165 613 220 655 c 0
 278 699 353 733 394 733 c 0
 445 733 488 687 488 632 c 0xf4
 488 577 467 534 402 456 c 0
 366 413 357 396 357 372 c 0
 357 350 365 329 396 275 c 2
 414 244 l 2
 437 203 445 183 445 165 c 0
 445 86 346 -16 269 -16 c 0
 244 -16 220 -9 191 5 c 1
 199 28 210 87 212 112 c 1
 232 112 l 1
 232 56 l 1
 249 38 273 28 297 28 c 0
 345 28 380 66 380 119 c 0xf8
 380 138 376 155 366 174 c 2
 312 279 l 2
 302 299 295 320 295 332 c 0
 295 349 304 368 327 400 c 0
 331 405 331 405 335 411 c 2
 344 424 l 2
 345 426 350 432 353 437 c 0
 409 515 426 553 426 597 c 0
 426 647 389 685 340 685 c 0
 291 685 249 653 230 601 c 0
 222 579 202 489 183 389 c 2
 181 378 l 1
 109 39 l 1
 82 -86 51 -156 -3 -214 c 0
 -41 -254 -84 -276 -124 -276 c 0
 -137 -276 -149 -275 -160 -272 c 1
 -151 -247 -145 -224 -138 -189 c 1
 -127 -187 l 1
 -109 -208 -93 -217 -74 -217 c 0
 -43 -217 -11 -189 5 -148 c 0
 16 -121 35 -48 43 0 c 1
 111 383 l 1xf4
EndSplineSet
EndChar
StartChar: Adieresis
Encoding: 256 196 150
Width: 722
Flags: W
HStem: 0 21G<83 102.5 545 565> 277 36<270 491> 685 20G<462 508> 747 100<383 385 573.886 590>
VStem: 333 100<788.664 801> 533 100<788.664 801>
DStem: 449 601 508 705 486 313 595 80 462 705 449 601 89 112 270 313 462 705 245 277 89 112 143 102 491 277 508 705 516 89 595 80
Fore
462 705 m 1
 508 705 l 1
 595 80 l 1
 603 35 604 35 651 28 c 2
 677 25 l 1
 677 -3 l 1
 575 0 575 0 555 0 c 0
 535 0 535 0 433 -3 c 1
 433 25 l 1
 477 28 l 2
 505 30 520 39 520 55 c 0
 520 59 519 69 518 77 c 0
 517 82 516 85 516 86 c 2
 516 89 l 1
 491 277 l 1
 245 277 l 1
 143 102 l 2
 124 69 117 55 117 47 c 0
 117 38 132 29 148 28 c 2
 200 25 l 1
 200 -3 l 1
 114 0 112 0 93 0 c 0
 73 0 73 0 -19 -3 c 1
 -19 27 l 1
 1 32 l 2
 35 40 53 56 89 112 c 1
 462 705 l 1
449 601 m 1
 270 313 l 1
 486 313 l 1
 449 601 l 1
383 847 m 0
 409 847 433 823 433 798 c 0
 433 772 409 747 383 747 c 0
 357 747 333 772 333 798 c 0
 333 824 357 847 383 847 c 0
583 847 m 0
 609 847 633 823 633 798 c 0
 633 772 609 747 583 747 c 0
 557 747 533 772 533 798 c 0
 533 824 557 847 583 847 c 0
EndSplineSet
KernsSLIF: 121 -37 0 0 119 -38 0 0 118 -42 0 0 117 -23 0 0 116 -17 0 0 39 -66 0 0 186 -76 0 0 113 -3 0 0 46 -7 0 0 111 -16 0 0 45 -7 0 0 172 -56 0 0 171 -56 0 0 103 -34 0 0 100 -1 0 0 44 -20 0 0 99 -17 0 0 98 -15 0 0 97 6 0 0 89 -58 0 0 87 -71 0 0 86 -93 0 0 85 -51 0 0 84 -35 0 0 81 -47 0 0 79 -47 0 0 71 -47 0 0 67 -44 0 0
Ligature: 0 0 'liga' A uni0308
EndChar
StartChar: Aacute
Encoding: 257 193 151
Width: 722
Flags: W
HStem: 0 21G<83 102.5 545 565> 277 36<270 491> 685 20G<462 508>
DStem: 449 601 508 705 486 313 595 80 462 705 449 601 89 112 270 313 462 705 245 277 89 112 143 102 491 277 508 705 516 89 595 80
Fore
462 705 m 1
 508 705 l 1
 595 80 l 1
 603 35 604 35 651 28 c 2
 677 25 l 1
 677 -3 l 1
 575 0 575 0 555 0 c 0
 535 0 535 0 433 -3 c 1
 433 25 l 1
 477 28 l 2
 505 30 520 39 520 55 c 0
 520 59 519 69 518 77 c 0
 517 82 516 85 516 86 c 2
 516 89 l 1
 491 277 l 1
 245 277 l 1
 143 102 l 2
 124 69 117 55 117 47 c 0
 117 38 132 29 148 28 c 2
 200 25 l 1
 200 -3 l 1
 114 0 112 0 93 0 c 0
 73 0 73 0 -19 -3 c 1
 -19 27 l 1
 1 32 l 2
 35 40 53 56 89 112 c 1
 462 705 l 1
449 601 m 1
 270 313 l 1
 486 313 l 1
 449 601 l 1
393 728 m 1
 546 879 l 2
 558 891 569 897 579 897 c 0
 599 897 617 882 617 866 c 0
 617 851 610 842 589 829 c 2
 427 728 l 1
 393 728 l 1
EndSplineSet
KernsSLIF: 121 -37 0 0 119 -38 0 0 118 -42 0 0 117 -23 0 0 116 -17 0 0 39 -66 0 0 113 -3 0 0 46 -7 0 0 111 -16 0 0 45 -7 0 0 172 -56 0 0 171 -56 0 0 103 -34 0 0 101 -11 0 0 100 -1 0 0 44 -20 0 0 99 -17 0 0 98 -15 0 0 97 6 0 0 89 -58 0 0 87 -71 0 0 86 -93 0 0 85 -51 0 0 84 -35 0 0 81 -47 0 0 79 -47 0 0 71 -47 0 0 67 -44 0 0
Ligature: 0 0 'liga' A acutecomb
EndChar
StartChar: Agrave
Encoding: 258 192 152
Width: 722
Flags: W
HStem: 0 21G<83 102.5 545 565> 277 36<270 491> 685 20G<462 508>
DStem: 449 601 508 705 486 313 595 80 462 705 449 601 89 112 270 313 462 705 245 277 89 112 143 102 491 277 508 705 516 89 595 80
Fore
462 705 m 1
 508 705 l 1
 595 80 l 1
 603 35 604 35 651 28 c 2
 677 25 l 1
 677 -3 l 1
 575 0 575 0 555 0 c 0
 535 0 535 0 433 -3 c 1
 433 25 l 1
 477 28 l 2
 505 30 520 39 520 55 c 0
 520 59 519 69 518 77 c 0
 517 82 516 85 516 86 c 2
 516 89 l 1
 491 277 l 1
 245 277 l 1
 143 102 l 2
 124 69 117 55 117 47 c 0
 117 38 132 29 148 28 c 2
 200 25 l 1
 200 -3 l 1
 114 0 112 0 93 0 c 0
 73 0 73 0 -19 -3 c 1
 -19 27 l 1
 1 32 l 2
 35 40 53 56 89 112 c 1
 462 705 l 1
449 601 m 1
 270 313 l 1
 486 313 l 1
 449 601 l 1
541 728 m 1
 379 829 l 2
 358 842 351 851 351 866 c 0
 351 883 369 897 389 897 c 0
 399 897 410 890 422 879 c 2
 575 728 l 1
 541 728 l 1
EndSplineSet
KernsSLIF: 46 -7 0 0 44 -20 0 0 89 -58 0 0 87 -71 0 0 86 -93 0 0 85 -51 0 0 84 -35 0 0 81 -47 0 0 79 -47 0 0 71 -47 0 0 67 -44 0 0
Ligature: 0 0 'liga' A gravecomb
EndChar
StartChar: Acircumflex
Encoding: 259 194 153
Width: 722
Flags: W
HStem: 0 21G<83 102.5 545 565> 277 36<270 491> 685 20G<462 508>
DStem: 449 601 508 705 486 313 595 80 462 705 449 601 89 112 270 313 462 705 245 277 89 112 143 102 491 277 508 705 516 89 595 80
Fore
462 705 m 1
 508 705 l 1
 595 80 l 1
 603 35 604 35 651 28 c 2
 677 25 l 1
 677 -3 l 1
 575 0 575 0 555 0 c 0
 535 0 535 0 433 -3 c 1
 433 25 l 1
 477 28 l 2
 505 30 520 39 520 55 c 0
 520 59 519 69 518 77 c 0
 517 82 516 85 516 86 c 2
 516 89 l 1
 491 277 l 1
 245 277 l 1
 143 102 l 2
 124 69 117 55 117 47 c 0
 117 38 132 29 148 28 c 2
 200 25 l 1
 200 -3 l 1
 114 0 112 0 93 0 c 0
 73 0 73 0 -19 -3 c 1
 -19 27 l 1
 1 32 l 2
 35 40 53 56 89 112 c 1
 462 705 l 1
449 601 m 1
 270 313 l 1
 486 313 l 1
 449 601 l 1
542 889 m 1
 630 720 l 1
 594 720 l 1
 512 824 l 1
 375 720 l 1
 336 720 l 1
 493 889 l 1
 542 889 l 1
EndSplineSet
KernsSLIF: 46 -7 0 0 44 -20 0 0 89 -58 0 0 87 -71 0 0 86 -93 0 0 85 -51 0 0 84 -35 0 0 81 -47 0 0 79 -47 0 0 71 -47 0 0 67 -44 0 0
Ligature: 0 0 'liga' A uni0302
EndChar
StartChar: Abreve
Encoding: 260 258 154
Width: 722
Flags: W
HStem: 0 21G<83 102.5 545 565> 277 36<270 491> 685 20G<462 508> 728 59<476 508>
DStem: 449 601 508 705 486 313 595 80 462 705 449 601 89 112 270 313 462 705 245 277 89 112 143 102 491 277 508 705 516 89 595 80
Fore
462 705 m 1
 508 705 l 1
 595 80 l 1
 603 35 604 35 651 28 c 2
 677 25 l 1
 677 -3 l 1
 575 0 575 0 555 0 c 0
 535 0 535 0 433 -3 c 1
 433 25 l 1
 477 28 l 2
 505 30 520 39 520 55 c 0
 520 59 519 69 518 77 c 0
 517 82 516 85 516 86 c 2
 516 89 l 1
 491 277 l 1
 245 277 l 1
 143 102 l 2
 124 69 117 55 117 47 c 0
 117 38 132 29 148 28 c 2
 200 25 l 1
 200 -3 l 1
 114 0 112 0 93 0 c 0
 73 0 73 0 -19 -3 c 1
 -19 27 l 1
 1 32 l 2
 35 40 53 56 89 112 c 1
 462 705 l 1
449 601 m 1
 270 313 l 1
 486 313 l 1
 449 601 l 1
357 887 m 1
 386 887 l 1
 392 821 429 787 495 787 c 0
 555 787 591 814 629 887 c 1
 658 887 l 1
 644 835 634 813 613 787 c 0
 581 747 540 728 488 728 c 0
 436 728 398 748 377 786 c 0
 362 813 357 836 357 887 c 1
EndSplineSet
Ligature: 0 0 'liga' A uni0306
EndChar
StartChar: Atilde
Encoding: 261 195 155
Width: 722
Flags: W
HStem: 0 21G<83 102.5 545 565> 277 36<270 491> 685 20G<462 508> 763 60<553 571> 807 59<404 421>
DStem: 449 601 508 705 486 313 595 80 462 705 449 601 89 112 270 313 462 705 245 277 89 112 143 102 491 277 508 705 516 89 595 80
Fore
462 705 m 1xe0
 508 705 l 1
 595 80 l 1
 603 35 604 35 651 28 c 2
 677 25 l 1
 677 -3 l 1
 575 0 575 0 555 0 c 0
 535 0 535 0 433 -3 c 1
 433 25 l 1
 477 28 l 2
 505 30 520 39 520 55 c 0
 520 59 519 69 518 77 c 0
 517 82 516 85 516 86 c 2
 516 89 l 1
 491 277 l 1
 245 277 l 1
 143 102 l 2
 124 69 117 55 117 47 c 0
 117 38 132 29 148 28 c 2
 200 25 l 1
 200 -3 l 1
 114 0 112 0 93 0 c 0
 73 0 73 0 -19 -3 c 1
 -19 27 l 1
 1 32 l 2
 35 40 53 56 89 112 c 1
 462 705 l 1xe0
449 601 m 1
 270 313 l 1
 486 313 l 1
 449 601 l 1
352 763 m 1xf0
 323 763 l 1xf0
 343 836 372 866 421 866 c 0xe8
 440 866 461 861 484 852 c 2
 544 828 l 2
 551 825 562 823 571 823 c 0xf0
 591 823 602 832 622 866 c 1
 650 866 l 1xe8
 638 801 602 763 553 763 c 0xf0
 540 763 512 770 489 779 c 2
 451 794 l 1
 449 795 l 2
 448 795 445 796 442 798 c 0
 425 805 415 807 404 807 c 0xe8
 379 807 367 797 352 763 c 1xf0
EndSplineSet
KernsSLIF: 46 -7 0 0 44 -20 0 0 89 -58 0 0 87 -71 0 0 86 -93 0 0 85 -51 0 0 84 -35 0 0 81 -47 0 0 79 -47 0 0 71 -47 0 0 67 -44 0 0
Ligature: 0 0 'liga' A tildecomb
EndChar
StartChar: Aring
Encoding: 262 197 156
Width: 722
Flags: W
HStem: 0 21G<83 102.5 545 565> 277 36<270 491> 685 20G<462 508> 737 36<494 498> 901 36<484 497>
VStem: 394 38<837 846> 556 38<837 846>
DStem: 449 601 508 705 486 313 595 80 462 705 449 601 89 112 270 313 462 705 245 277 89 112 143 102 491 277 508 705 516 89 595 80
Fore
462 705 m 1
 508 705 l 1
 595 80 l 1
 603 35 604 35 651 28 c 2
 677 25 l 1
 677 -3 l 1
 575 0 575 0 555 0 c 0
 535 0 535 0 433 -3 c 1
 433 25 l 1
 477 28 l 2
 505 30 520 39 520 55 c 0
 520 59 519 69 518 77 c 0
 517 82 516 85 516 86 c 2
 516 89 l 1
 491 277 l 1
 245 277 l 1
 143 102 l 2
 124 69 117 55 117 47 c 0
 117 38 132 29 148 28 c 2
 200 25 l 1
 200 -3 l 1
 114 0 112 0 93 0 c 0
 73 0 73 0 -19 -3 c 1
 -19 27 l 1
 1 32 l 2
 35 40 53 56 89 112 c 1
 462 705 l 1
449 601 m 1
 270 313 l 1
 486 313 l 1
 449 601 l 1
495 937 m 0
 549 937 594 892 594 837 c 0
 594 781 549 737 494 737 c 0
 438 737 394 781 394 837 c 0
 394 893 439 937 495 937 c 0
494 901 m 0
 457 901 432 875 432 837 c 0
 432 799 457 773 494 773 c 0
 531 773 556 799 556 837 c 0
 556 875 531 901 494 901 c 0
EndSplineSet
KernsSLIF: 121 -37 0 0 119 -38 0 0 118 -42 0 0 117 -23 0 0 116 -17 0 0 39 -66 0 0 186 -76 0 0 113 -3 0 0 46 -7 0 0 111 -16 0 0 45 -7 0 0 172 -56 0 0 171 -56 0 0 103 -34 0 0 101 -11 0 0 100 -1 0 0 44 -20 0 0 99 -17 0 0 98 -15 0 0 97 6 0 0 89 -58 0 0 87 -71 0 0 86 -93 0 0 85 -51 0 0 84 -35 0 0 81 -47 0 0 79 -47 0 0 71 -47 0 0 67 -44 0 0
Ligature: 0 0 'liga' A uni030A
EndChar
StartChar: Aogonek
Encoding: 263 260 157
Width: 722
Flags: W
HStem: -187 56<623 664> -20 20G<83 102.5 545 564.5> 277 36<270 491> 685 20G<462 508>
VStem: 570 56<-122 -85>
DStem: 449 601 508 705 486 313 595 80 462 705 449 601 89 112 270 313 462 705 245 277 89 112 143 102 491 277 508 705 516 89 595 80
Fore
677 25 m 1
 677 -3 l 1
 670 -4 670 -4 660 -15 c 0
 636 -44 626 -64 626 -85 c 0
 626 -111 642 -131 664 -131 c 0
 681 -131 694 -122 714 -97 c 1
 728 -101 l 1
 695 -160 663 -187 623 -187 c 0
 591 -187 570 -161 570 -122 c 0
 570 -86 584 -59 630 -10 c 2
 637 -2 l 1
 578 0 574 0 555 0 c 0
 535 0 535 0 433 -3 c 1
 433 25 l 1
 477 28 l 2
 505 30 520 39 520 55 c 0
 520 59 519 69 518 77 c 0
 517 82 516 85 516 86 c 2
 516 89 l 1
 491 277 l 1
 245 277 l 1
 143 102 l 2
 124 69 117 55 117 47 c 0
 117 38 132 29 148 28 c 2
 200 25 l 1
 200 -3 l 1
 114 0 112 0 93 0 c 0
 73 0 73 0 -19 -3 c 1
 -19 27 l 1
 1 32 l 2
 35 40 53 56 89 112 c 1
 462 705 l 1
 508 705 l 1
 595 80 l 1
 603 35 604 35 651 28 c 2
 677 25 l 1
449 601 m 1
 270 313 l 1
 486 313 l 1
 449 601 l 1
EndSplineSet
Ligature: 0 0 'liga' A uni0328
EndChar
StartChar: Ccedilla
Encoding: 264 199 158
Width: 667
Flags: W
HStem: -216 35<268 296> -98 36<290 327> -18 53<343 376> 653 53<418 456>
VStem: 45 88<279 313> 337 72<-138 -130>
DStem: 299 -16 335 -18 248 -96 303 -64
Fore
335 -18 m 1
 303 -64 l 1
 310 -63 321 -62 327 -62 c 0
 377 -62 409 -89 409 -132 c 0
 409 -183 361 -216 286 -216 c 0
 259 -216 240 -212 198 -196 c 1
 215 -167 l 1
 250 -178 265 -181 284 -181 c 0
 315 -181 337 -162 337 -136 c 0
 337 -114 318 -98 290 -98 c 0
 282 -98 274 -99 257 -104 c 1
 248 -96 l 1
 299 -16 l 1
 296 -15 l 2
 134 1 45 107 45 284 c 0
 45 437 105 555 222 634 c 0
 292 681 374 706 456 706 c 0
 518 706 575 694 651 665 c 1
 637 619 629 576 624 519 c 1
 597 519 l 1
 597 603 l 1
 541 639 489 653 418 653 c 0
 339 653 275 629 228 581 c 0
 167 519 133 420 133 309 c 0
 133 131 219 35 376 35 c 0
 454 35 506 53 600 110 c 1
 610 103 l 1
 600 67 l 1
 509 5 439 -18 343 -18 c 2
 338 -18 l 1
 335 -18 l 1
EndSplineSet
KernsSLIF: 65 -4 0 0
Ligature: 0 0 'liga' C uni0327
EndChar
StartChar: Cacute
Encoding: 265 262 159
Width: 667
Flags: W
HStem: -18 53<343 376> 653 53<418 456>
VStem: 45 88<282 311>
Fore
597 519 m 1
 597 603 l 1
 541 639 489 653 418 653 c 0
 339 653 275 629 228 581 c 0
 167 519 133 420 133 309 c 0
 133 131 219 35 376 35 c 0
 454 35 506 53 600 110 c 1
 610 103 l 1
 600 67 l 1
 510 5 439 -18 343 -18 c 0
 152 -18 45 90 45 284 c 0
 45 437 105 555 222 634 c 0
 292 681 374 706 456 706 c 0
 518 706 575 694 651 665 c 1
 637 619 629 576 624 519 c 1
 597 519 l 1
389 728 m 1
 542 879 l 2
 554 891 565 897 575 897 c 0
 595 897 613 882 613 866 c 0
 613 851 606 842 585 829 c 2
 423 728 l 1
 389 728 l 1
EndSplineSet
Ligature: 0 0 'liga' C acutecomb
EndChar
StartChar: Ccaron
Encoding: 266 268 160
Width: 667
Flags: W
HStem: -18 53<343 376> 653 53<418 456>
VStem: 45 88<282 311>
Fore
597 519 m 1
 597 603 l 1
 541 639 489 653 418 653 c 0
 339 653 275 629 228 581 c 0
 167 519 133 420 133 309 c 0
 133 131 219 35 376 35 c 0
 454 35 506 53 600 110 c 1
 610 103 l 1
 600 67 l 1
 510 5 439 -18 343 -18 c 0
 152 -18 45 90 45 284 c 0
 45 437 105 555 222 634 c 0
 292 681 374 706 456 706 c 0
 518 706 575 694 651 665 c 1
 637 619 629 576 624 519 c 1
 597 519 l 1
473 720 m 1
 427 720 l 1
 331 889 l 1
 368 889 l 1
 458 784 l 1
 600 889 l 1
 636 889 l 1
 473 720 l 1
EndSplineSet
Ligature: 0 0 'liga' C uni030C
EndChar
StartChar: Dcaron
Encoding: 267 270 161
Width: 778
Flags: W
HStem: -3 44<299 349> 650 39<220 293.504> 655 37<384 424>
VStem: 649 92<412 446>
DStem: 173 559 268 650 86 55 172 93
Fore
33 23 m 1xb0
 41 25 l 2
 72 31 83 39 86 55 c 1
 173 559 l 2
 178 589 182 621 182 635 c 0
 182 653 171 661 147 662 c 2
 94 664 l 1
 97 692 l 1xb0
 198 689 201 689 210 689 c 2
 220 689 l 1xd0
 424 692 l 2
 519 693 604 675 650 642 c 0
 711 599 741 529 741 431 c 0
 741 265 645 114 489 34 c 0
 437 8 388 -3 316 -3 c 0
 305 -3 290 -3 270 -2 c 0
 227 -1 195 0 176 0 c 2
 144 0 l 1
 121 0 l 1
 28 -3 l 1
 33 23 l 1xb0
268 650 m 1xd0
 172 93 l 2
 169 75 168 68 168 56 c 1
 236 46 285 41 329 41 c 0
 416 41 489 69 543 124 c 0
 611 193 649 298 649 415 c 0
 649 579 566 655 384 655 c 0xb0
 366 655 346 654 315 652 c 0
 288 651 283 650 268 650 c 1xd0
489 720 m 1
 443 720 l 1
 347 889 l 1
 384 889 l 1
 474 784 l 1
 616 889 l 1
 652 889 l 1
 489 720 l 1
EndSplineSet
Ligature: 0 0 'liga' D uni030C
EndChar
StartChar: Edieresis
Encoding: 268 203 162
Width: 611
Flags: W
HStem: -3 42<257.6 307.969 308.062 355.106> 334 42<229 351> 537 155<501 549> 650 40<343 446> 747 100<270 280 470 479>
VStem: 220 100<788.664 801> 420 100<788.664 801>
DStem: 182 559 271 614 95 55 229 376 182 559 221 334 95 55 178 81 512 161 539 161 496 101 534 135
Fore
221 334 m 1xde
 178 81 l 1
 177 72 176 64 176 50 c 2
 176 46 l 1
 245 40 267 39 308 39 c 0
 362 39 435 44 455 48 c 0
 477 53 486 65 496 101 c 2
 512 161 l 1
 539 161 l 1
 534 135 l 2
 525 86 520 56 518 36 c 1
 514 0 l 1
 481 -1 l 2
 448 -2 423 -3 409 -3 c 2
 399 -3 l 1
 184 0 l 2
 164 0 102 -1 71 -2 c 2
 30 -3 l 1
 35 23 l 1
 79 30 91 37 95 55 c 1
 182 559 l 2
 187 589 191 621 191 635 c 0
 191 653 180 661 156 662 c 2
 102 664 l 1
 105 692 l 1xee
 150 691 l 2
 201 689 228 689 265 689 c 0
 275 689 334 689 343 690 c 2xde
 463 691 l 2
 487 692 498 692 501 692 c 0
 519 692 549 691 570 689 c 1
 559 651 552 601 549 537 c 1
 525 537 l 1xee
 517 626 l 1
 516 641 475 650 413 650 c 0
 391 650 359 649 327 648 c 2
 280 646 l 1
 276 638 274 630 271 614 c 2
 229 376 l 1
 266 376 l 2
 344 376 404 378 485 382 c 1
 489 375 l 1
 470 330 l 1
 444 331 l 2
 396 333 365 334 338 334 c 2
 221 334 l 1xde
270 847 m 0
 296 847 320 823 320 798 c 0
 320 772 296 747 270 747 c 0
 244 747 220 772 220 798 c 0
 220 824 244 847 270 847 c 0
470 847 m 0
 496 847 520 823 520 798 c 0
 520 772 496 747 470 747 c 0
 444 747 420 772 420 798 c 0
 420 824 444 847 470 847 c 0
EndSplineSet
Ligature: 0 0 'liga' E uni0308
EndChar
StartChar: Eacute
Encoding: 269 201 163
Width: 611
Flags: W
HStem: -3 42<257.6 307.969 308.062 355.106> 334 42<229 351> 334 355<221 264.954> 537 155<501 549> 650 40<343 446>
DStem: 182 559 271 614 95 55 229 376 182 559 221 334 95 55 178 81 512 161 539 161 496 101 534 135
Fore
221 334 m 1xa0
 178 81 l 1
 177 72 176 64 176 50 c 2
 176 46 l 1
 245 40 267 39 308 39 c 0
 362 39 435 44 455 48 c 0
 477 53 486 65 496 101 c 2
 512 161 l 1
 539 161 l 1
 534 135 l 2
 525 86 520 56 518 36 c 1
 514 0 l 1
 481 -1 l 2
 448 -2 423 -3 409 -3 c 2
 399 -3 l 1
 184 0 l 2
 164 0 102 -1 71 -2 c 2
 30 -3 l 1
 35 23 l 1
 79 30 91 37 95 55 c 1
 182 559 l 2
 187 589 191 621 191 635 c 0
 191 653 180 661 156 662 c 2
 102 664 l 1
 105 692 l 1x90
 150 691 l 2
 201 689 228 689 265 689 c 0xa0
 275 689 334 689 343 690 c 2x88
 463 691 l 2
 487 692 498 692 501 692 c 0x90
 519 692 549 691 570 689 c 1xa0
 559 651 552 601 549 537 c 1
 525 537 l 1x90
 517 626 l 1
 516 641 475 650 413 650 c 0
 391 650 359 649 327 648 c 2
 280 646 l 1
 276 638 274 630 271 614 c 2
 229 376 l 1
 266 376 l 2
 344 376 404 378 485 382 c 1
 489 375 l 1
 470 330 l 1
 444 331 l 2
 396 333 365 334 338 334 c 2xc8
 221 334 l 1xa0
274 728 m 1
 427 879 l 2
 439 891 450 897 460 897 c 0
 480 897 498 882 498 866 c 0
 498 851 491 842 470 829 c 2
 308 728 l 1
 274 728 l 1
EndSplineSet
Ligature: 0 0 'liga' E acutecomb
EndChar
StartChar: Egrave
Encoding: 270 200 164
Width: 611
Flags: W
HStem: -3 42<257.6 307.969 308.062 355.106> 334 42<229 351> 334 355<221 264.954> 537 155<501 549> 650 40<343 446>
DStem: 182 559 271 614 95 55 229 376 182 559 221 334 95 55 178 81 512 161 539 161 496 101 534 135
Fore
221 334 m 1xa0
 178 81 l 1
 177 72 176 64 176 50 c 2
 176 46 l 1
 245 40 267 39 308 39 c 0
 362 39 435 44 455 48 c 0
 477 53 486 65 496 101 c 2
 512 161 l 1
 539 161 l 1
 534 135 l 2
 525 86 520 56 518 36 c 1
 514 0 l 1
 481 -1 l 2
 448 -2 423 -3 409 -3 c 2
 399 -3 l 1
 184 0 l 2
 164 0 102 -1 71 -2 c 2
 30 -3 l 1
 35 23 l 1
 79 30 91 37 95 55 c 1
 182 559 l 2
 187 589 191 621 191 635 c 0
 191 653 180 661 156 662 c 2
 102 664 l 1
 105 692 l 1x90
 150 691 l 2
 201 689 228 689 265 689 c 0xa0
 275 689 334 689 343 690 c 2x88
 463 691 l 2
 487 692 498 692 501 692 c 0x90
 519 692 549 691 570 689 c 1xa0
 559 651 552 601 549 537 c 1
 525 537 l 1x90
 517 626 l 1
 516 641 475 650 413 650 c 0
 391 650 359 649 327 648 c 2
 280 646 l 1
 276 638 274 630 271 614 c 2
 229 376 l 1
 266 376 l 2
 344 376 404 378 485 382 c 1
 489 375 l 1
 470 330 l 1
 444 331 l 2
 396 333 365 334 338 334 c 2xc8
 221 334 l 1xa0
454 728 m 1
 292 829 l 2
 271 842 264 851 264 866 c 0
 264 883 282 897 302 897 c 0
 312 897 323 890 335 879 c 2
 488 728 l 1
 454 728 l 1
EndSplineSet
Ligature: 0 0 'liga' E gravecomb
EndChar
StartChar: Ecircumflex
Encoding: 271 202 165
Width: 611
Flags: W
HStem: -3 42<257.6 307.969 308.062 355.106> 334 42<229 351> 334 355<221 264.954> 537 155<501 549> 650 40<343 446>
DStem: 182 559 271 614 95 55 229 376 182 559 221 334 95 55 178 81 512 161 539 161 496 101 534 135
Fore
221 334 m 1xa0
 178 81 l 1
 177 72 176 64 176 50 c 2
 176 46 l 1
 245 40 267 39 308 39 c 0
 362 39 435 44 455 48 c 0
 477 53 486 65 496 101 c 2
 512 161 l 1
 539 161 l 1
 534 135 l 2
 525 86 520 56 518 36 c 1
 514 0 l 1
 481 -1 l 2
 448 -2 423 -3 409 -3 c 2
 399 -3 l 1
 184 0 l 2
 164 0 102 -1 71 -2 c 2
 30 -3 l 1
 35 23 l 1
 79 30 91 37 95 55 c 1
 182 559 l 2
 187 589 191 621 191 635 c 0
 191 653 180 661 156 662 c 2
 102 664 l 1
 105 692 l 1x90
 150 691 l 2
 201 689 228 689 265 689 c 0xa0
 275 689 334 689 343 690 c 2x88
 463 691 l 2
 487 692 498 692 501 692 c 0x90
 519 692 549 691 570 689 c 1xa0
 559 651 552 601 549 537 c 1
 525 537 l 1x90
 517 626 l 1
 516 641 475 650 413 650 c 0
 391 650 359 649 327 648 c 2
 280 646 l 1
 276 638 274 630 271 614 c 2
 229 376 l 1
 266 376 l 2
 344 376 404 378 485 382 c 1
 489 375 l 1
 470 330 l 1
 444 331 l 2
 396 333 365 334 338 334 c 2xc8
 221 334 l 1xa0
413 889 m 1
 501 720 l 1
 465 720 l 1
 383 824 l 1
 246 720 l 1
 207 720 l 1
 364 889 l 1
 413 889 l 1
EndSplineSet
Ligature: 0 0 'liga' E uni0302
EndChar
StartChar: Ecaron
Encoding: 272 282 166
Width: 611
Flags: W
HStem: -3 42<257.6 307.969 308.062 355.106> 334 42<229 351> 334 355<221 264.954> 537 155<501 549> 650 40<343 446>
DStem: 182 559 271 614 95 55 229 376 182 559 221 334 95 55 178 81 512 161 539 161 496 101 534 135
Fore
221 334 m 1xa0
 178 81 l 1
 177 72 176 64 176 50 c 2
 176 46 l 1
 245 40 267 39 308 39 c 0
 362 39 435 44 455 48 c 0
 477 53 486 65 496 101 c 2
 512 161 l 1
 539 161 l 1
 534 135 l 2
 525 86 520 56 518 36 c 1
 514 0 l 1
 481 -1 l 2
 448 -2 423 -3 409 -3 c 2
 399 -3 l 1
 184 0 l 2
 164 0 102 -1 71 -2 c 2
 30 -3 l 1
 35 23 l 1
 79 30 91 37 95 55 c 1
 182 559 l 2
 187 589 191 621 191 635 c 0
 191 653 180 661 156 662 c 2
 102 664 l 1
 105 692 l 1x90
 150 691 l 2
 201 689 228 689 265 689 c 0xa0
 275 689 334 689 343 690 c 2x88
 463 691 l 2
 487 692 498 692 501 692 c 0x90
 519 692 549 691 570 689 c 1xa0
 559 651 552 601 549 537 c 1
 525 537 l 1x90
 517 626 l 1
 516 641 475 650 413 650 c 0
 391 650 359 649 327 648 c 2
 280 646 l 1
 276 638 274 630 271 614 c 2
 229 376 l 1
 266 376 l 2
 344 376 404 378 485 382 c 1
 489 375 l 1
 470 330 l 1
 444 331 l 2
 396 333 365 334 338 334 c 2xc8
 221 334 l 1xa0
405 720 m 1
 359 720 l 1
 263 889 l 1
 300 889 l 1
 390 784 l 1
 532 889 l 1
 568 889 l 1
 405 720 l 1
EndSplineSet
Ligature: 0 0 'liga' E uni030C
EndChar
StartChar: Edotaccent
Encoding: 273 278 167
Width: 611
Flags: W
HStem: -3 42<257.6 307.969 308.062 355.106> 334 42<229 351> 537 155<501 549> 650 40<343 446> 747 108<381 391>
VStem: 334 108<802 804>
DStem: 182 559 271 614 95 55 229 376 182 559 221 334 95 55 178 81 512 161 539 161 496 101 534 135
Fore
221 334 m 1xdc
 178 81 l 1
 177 72 176 64 176 50 c 2
 176 46 l 1
 245 40 267 39 308 39 c 0
 362 39 435 44 455 48 c 0
 477 53 486 65 496 101 c 2
 512 161 l 1
 539 161 l 1
 534 135 l 2
 525 86 520 56 518 36 c 1
 514 0 l 1
 481 -1 l 2
 448 -2 423 -3 409 -3 c 2
 399 -3 l 1
 184 0 l 2
 164 0 102 -1 71 -2 c 2
 30 -3 l 1
 35 23 l 1
 79 30 91 37 95 55 c 1
 182 559 l 2
 187 589 191 621 191 635 c 0
 191 653 180 661 156 662 c 2
 102 664 l 1
 105 692 l 1xec
 150 691 l 2
 201 689 228 689 265 689 c 0
 275 689 334 689 343 690 c 2xdc
 463 691 l 2
 487 692 498 692 501 692 c 0
 519 692 549 691 570 689 c 1
 559 651 552 601 549 537 c 1
 525 537 l 1xec
 517 626 l 1
 516 641 475 650 413 650 c 0
 391 650 359 649 327 648 c 2
 280 646 l 1
 276 638 274 630 271 614 c 2
 229 376 l 1
 266 376 l 2
 344 376 404 378 485 382 c 1
 489 375 l 1
 470 330 l 1
 444 331 l 2
 396 333 365 334 338 334 c 2
 221 334 l 1xdc
389 855 m 0
 417 855 442 830 442 802 c 0
 442 773 417 747 388 747 c 0
 359 747 334 773 334 802 c 0
 334 830 359 855 389 855 c 0
EndSplineSet
Ligature: 0 0 'liga' E uni0307
EndChar
StartChar: Eogonek
Encoding: 274 280 168
Width: 611
Flags: W
HStem: -187 56<447 488> -3 42<257.6 307.969 308.062 355.106> 334 42<229 351> 537 155<501 549> 650 40<343 446>
VStem: 394 56<-122 -85>
DStem: 182 559 271 614 95 55 229 376 182 559 221 334 95 55 178 81 512 161 539 161 496 101 534 135
Fore
221 334 m 1xec
 178 81 l 1
 177 72 176 64 176 50 c 2
 176 46 l 1
 245 40 267 39 308 39 c 0
 362 39 435 44 455 48 c 0
 477 53 486 65 496 101 c 2
 512 161 l 1
 539 161 l 1
 534 135 l 2
 525 86 520 56 518 36 c 1
 514 0 l 1
 496 -1 488 -7 472 -30 c 0
 457 -51 450 -68 450 -85 c 0
 450 -111 466 -131 488 -131 c 0
 505 -131 518 -122 538 -97 c 1
 552 -101 l 1
 519 -160 487 -187 447 -187 c 0
 415 -187 394 -161 394 -122 c 0
 394 -86 408 -59 454 -10 c 2
 461 -2 l 1
 434 -3 424 -3 409 -3 c 2
 399 -3 l 1
 184 0 l 2
 164 0 102 -1 71 -2 c 2
 30 -3 l 1
 35 23 l 1
 79 30 91 37 95 55 c 1
 182 559 l 2
 187 589 191 621 191 635 c 0
 191 653 180 661 156 662 c 2
 102 664 l 1
 105 692 l 1xf4
 150 691 l 2
 201 689 228 689 265 689 c 0
 275 689 334 689 343 690 c 2xec
 463 691 l 2
 487 692 498 692 501 692 c 0
 519 692 549 691 570 689 c 1
 559 651 552 601 549 537 c 1
 525 537 l 1xf4
 517 626 l 1
 516 641 475 650 413 650 c 0
 391 650 359 649 327 648 c 2
 280 646 l 1
 276 638 274 630 271 614 c 2
 229 376 l 1
 266 376 l 2
 344 376 404 378 485 382 c 1
 489 375 l 1
 470 330 l 1
 444 331 l 2
 396 333 365 334 338 334 c 2
 221 334 l 1xec
EndSplineSet
Ligature: 0 0 'liga' E uni0328
EndChar
StartChar: Gbreve
Encoding: 275 286 169
Width: 722
Flags: W
HStem: -18 45<355 390> 653 53<433 468> 728 59<466 499>
VStem: 50 88<267 303>
DStem: 546 153 633 219 528 60 610 84
Fore
528 60 m 1
 546 153 l 1
 551 177 553 197 553 212 c 0
 553 236 544 240 469 244 c 2
 435 246 l 1
 440 274 l 1
 482 270 518 269 569 269 c 0
 620 269 655 270 694 274 c 1
 692 246 l 1
 660 240 l 2
 647 238 635 228 633 219 c 1
 610 84 l 1
 609 80 609 76 609 73 c 0
 609 66 610 58 612 44 c 1
 608 37 l 1
 595 35 578 31 552 22 c 2
 522 12 l 2
 461 -9 409 -18 355 -18 c 0
 159 -18 50 87 50 274 c 0
 50 424 112 548 229 632 c 0
 301 683 374 706 466 706 c 0
 535 706 592 695 675 665 c 1
 661 619 653 576 648 519 c 1
 621 519 l 1
 621 603 l 1
 565 639 511 653 434 653 c 0
 351 653 286 629 237 579 c 0
 173 515 138 414 138 297 c 0
 138 120 224 27 390 27 c 0
 444 27 483 36 528 60 c 1
347 887 m 1
 376 887 l 1
 382 821 419 787 485 787 c 0
 545 787 581 814 619 887 c 1
 648 887 l 1
 634 835 624 813 603 787 c 0
 571 747 530 728 478 728 c 0
 426 728 388 748 367 786 c 0
 352 813 347 836 347 887 c 1
EndSplineSet
Ligature: 0 0 'liga' G uni0306
EndChar
StartChar: Idieresis
Encoding: 276 207 170
Width: 333
Flags: W
HStem: -3 21G<7 39 227 259> 672 20G<345 354> 747 100<138.886 153 348 356>
VStem: 98 100<788.664 801> 298 100<788.664 801>
DStem: 176 559 265 613 104 125 176 78
Fore
103 664 m 1
 106 692 l 1
 170 690 l 2
 213 689 231 689 248 689 c 2
 345 692 l 1
 354 692 l 1
 351 664 l 1
 316 661 l 2
 277 657 272 652 265 613 c 1
 176 78 l 1
 175 74 174 63 174 57 c 0
 174 37 184 30 210 28 c 2
 262 25 l 1
 259 -3 l 1
 227 -3 l 1
 133 0 l 1
 39 -3 l 1
 7 -3 l 1
 10 25 l 1
 46 28 l 2
 86 31 89 36 104 125 c 1
 176 559 l 1
 179 576 185 629 185 636 c 0
 185 653 174 661 150 662 c 2
 103 664 l 1
148 847 m 0
 174 847 198 823 198 798 c 0
 198 772 174 747 148 747 c 0
 122 747 98 772 98 798 c 0
 98 824 122 847 148 847 c 0
348 847 m 0
 374 847 398 823 398 798 c 0
 398 772 374 747 348 747 c 0
 322 747 298 772 298 798 c 0
 298 824 322 847 348 847 c 0
EndSplineSet
Ligature: 0 0 'liga' I uni0308
EndChar
StartChar: Iacute
Encoding: 277 205 171
Width: 333
Flags: W
HStem: -3 21G<7 39 227 259> 672 20G<345 354>
DStem: 176 559 265 613 104 125 176 78
Fore
103 664 m 1
 106 692 l 1
 170 690 l 2
 213 689 231 689 248 689 c 2
 345 692 l 1
 354 692 l 1
 351 664 l 1
 316 661 l 2
 277 657 272 652 265 613 c 1
 176 78 l 1
 175 74 174 63 174 57 c 0
 174 37 184 30 210 28 c 2
 262 25 l 1
 259 -3 l 1
 227 -3 l 1
 133 0 l 1
 39 -3 l 1
 7 -3 l 1
 10 25 l 1
 46 28 l 2
 86 31 89 36 104 125 c 1
 176 559 l 1
 179 576 185 629 185 636 c 0
 185 653 174 661 150 662 c 2
 103 664 l 1
182 728 m 1
 335 879 l 2
 347 891 358 897 368 897 c 0
 388 897 406 882 406 866 c 0
 406 851 399 842 378 829 c 2
 216 728 l 1
 182 728 l 1
EndSplineSet
Ligature: 0 0 'liga' I acutecomb
EndChar
StartChar: Igrave
Encoding: 278 204 172
Width: 333
Flags: W
HStem: -3 21G<7 39 227 259> 672 20G<345 354>
DStem: 176 559 265 613 104 125 176 78
Fore
103 664 m 1
 106 692 l 1
 170 690 l 2
 213 689 231 689 248 689 c 2
 345 692 l 1
 354 692 l 1
 351 664 l 1
 316 661 l 2
 277 657 272 652 265 613 c 1
 176 78 l 1
 175 74 174 63 174 57 c 0
 174 37 184 30 210 28 c 2
 262 25 l 1
 259 -3 l 1
 227 -3 l 1
 133 0 l 1
 39 -3 l 1
 7 -3 l 1
 10 25 l 1
 46 28 l 2
 86 31 89 36 104 125 c 1
 176 559 l 1
 179 576 185 629 185 636 c 0
 185 653 174 661 150 662 c 2
 103 664 l 1
280 728 m 1
 118 829 l 2
 97 842 90 851 90 866 c 0
 90 883 108 897 128 897 c 0
 138 897 149 890 161 879 c 2
 314 728 l 1
 280 728 l 1
EndSplineSet
Ligature: 0 0 'liga' I gravecomb
EndChar
StartChar: Icircumflex
Encoding: 279 206 173
Width: 333
Flags: W
HStem: -3 21G<7 39 227 259> 672 20G<345 354>
DStem: 176 559 265 613 104 125 176 78
Fore
103 664 m 1
 106 692 l 1
 170 690 l 2
 213 689 231 689 248 689 c 2
 345 692 l 1
 354 692 l 1
 351 664 l 1
 316 661 l 2
 277 657 272 652 265 613 c 1
 176 78 l 1
 175 74 174 63 174 57 c 0
 174 37 184 30 210 28 c 2
 262 25 l 1
 259 -3 l 1
 227 -3 l 1
 133 0 l 1
 39 -3 l 1
 7 -3 l 1
 10 25 l 1
 46 28 l 2
 86 31 89 36 104 125 c 1
 176 559 l 1
 179 576 185 629 185 636 c 0
 185 653 174 661 150 662 c 2
 103 664 l 1
302 889 m 1
 390 720 l 1
 354 720 l 1
 272 824 l 1
 135 720 l 1
 96 720 l 1
 253 889 l 1
 302 889 l 1
EndSplineSet
Ligature: 0 0 'liga' I uni0302
EndChar
StartChar: Idotaccent
Encoding: 280 304 174
Width: 333
Flags: W
HStem: -3 21G<7 39 227 259> 672 20G<345 354> 747 108<246 259>
VStem: 195 108<802 804>
DStem: 176 559 265 613 104 125 176 78
Fore
103 664 m 1
 106 692 l 1
 170 690 l 2
 213 689 231 689 248 689 c 2
 345 692 l 1
 354 692 l 1
 351 664 l 1
 316 661 l 2
 277 657 272 652 265 613 c 1
 176 78 l 1
 175 74 174 63 174 57 c 0
 174 37 184 30 210 28 c 2
 262 25 l 1
 259 -3 l 1
 227 -3 l 1
 133 0 l 1
 39 -3 l 1
 7 -3 l 1
 10 25 l 1
 46 28 l 2
 86 31 89 36 104 125 c 1
 176 559 l 1
 179 576 185 629 185 636 c 0
 185 653 174 661 150 662 c 2
 103 664 l 1
250 855 m 0
 278 855 303 830 303 802 c 0
 303 773 278 747 249 747 c 0
 220 747 195 773 195 802 c 0
 195 830 220 855 250 855 c 0
EndSplineSet
Ligature: 0 0 'liga' I uni0307
EndChar
StartChar: Lacute
Encoding: 281 313 175
Width: 556
Flags: W
HStem: -3 42<244.983 304 304.062 356.806> 672 20G<328 352>
DStem: 167 559 256 613 81 55 164 81
Fore
349 664 m 1
 307 661 l 2
 270 658 263 651 256 613 c 1
 164 81 l 1
 163 72 162 64 162 50 c 2
 162 46 l 1
 228 40 255 39 304 39 c 0
 371 39 435 44 448 49 c 0
 457 54 466 71 475 103 c 2
 492 165 l 1
 523 165 l 1
 510 103 499 25 500 0 c 1
 467 -1 l 2
 434 -2 409 -3 395 -3 c 2
 385 -3 l 1
 170 0 l 2
 150 0 88 -1 57 -2 c 2
 16 -3 l 1
 21 23 l 1
 65 30 77 37 81 55 c 1
 167 559 l 1
 172 590 176 621 176 635 c 0
 176 653 165 661 141 662 c 2
 94 664 l 1
 97 692 l 1
 161 690 l 2
 204 689 222 689 238 689 c 2
 328 692 l 1
 352 692 l 1
 349 664 l 1
254 728 m 1
 407 879 l 2
 419 891 430 897 440 897 c 0
 460 897 478 882 478 866 c 0
 478 851 471 842 450 829 c 2
 288 728 l 1
 254 728 l 1
EndSplineSet
Ligature: 0 0 'liga' L acutecomb
EndChar
StartChar: Lcaron
Encoding: 282 317 176
Width: 556
Flags: W
HStem: -3 42<244.983 304 304.062 356.806> 672 20G<328 352>
DStem: 167 559 256 613 81 55 164 81
Fore
349 664 m 1
 307 661 l 2
 270 658 263 651 256 613 c 1
 164 81 l 1
 163 72 162 64 162 50 c 2
 162 46 l 1
 228 40 255 39 304 39 c 0
 371 39 435 44 448 49 c 0
 457 54 466 71 475 103 c 2
 492 165 l 1
 523 165 l 1
 510 103 499 25 500 0 c 1
 467 -1 l 2
 434 -2 409 -3 395 -3 c 2
 385 -3 l 1
 170 0 l 2
 150 0 88 -1 57 -2 c 2
 16 -3 l 1
 21 23 l 1
 65 30 77 37 81 55 c 1
 167 559 l 1
 172 590 176 621 176 635 c 0
 176 653 165 661 141 662 c 2
 94 664 l 1
 97 692 l 1
 161 690 l 2
 204 689 222 689 238 689 c 2
 328 692 l 1
 352 692 l 1
 349 664 l 1
527 713 m 1
 536 695 l 1
 487 601 446 539 395 481 c 1
 363 468 l 1
 356 477 l 1
 403 550 428 612 438 688 c 1
 464 692 494 701 527 713 c 1
EndSplineSet
Ligature: 0 0 'liga' L uni030C
EndChar
StartChar: Nacute
Encoding: 283 323 177
Width: 778
Flags: W
HStem: -11 21G<558 608> 672 20G<589 608 783 804>
DStem: 180 576 220 566 92 102 140 102 220 566 237 692 558 -11 582 103 662 592 702 542 582 103 608 -11
Fore
237 692 m 1
 582 103 l 1
 662 592 l 2
 664 605 667 631 667 638 c 0
 667 654 657 661 631 662 c 2
 584 664 l 1
 589 692 l 1
 608 692 l 1
 694 689 l 1
 783 692 l 1
 804 692 l 1
 799 664 l 1
 762 662 l 2
 725 659 723 655 702 542 c 1
 608 -11 l 1
 558 -11 l 1
 220 566 l 1
 140 102 l 2
 138 91 137 80 137 72 c 0
 137 39 146 31 186 28 c 2
 228 25 l 1
 223 -3 l 1
 126 0 125 0 113 0 c 2
 2 -3 l 1
 7 25 l 1
 38 28 l 2
 74 32 80 40 92 102 c 1
 180 576 l 1
 181 579 182 586 183 594 c 0
 184 596 184 598 184 599 c 0
 185 602 185 605 185 606 c 0
 185 614 170 633 155 645 c 0
 144 654 122 661 105 662 c 2
 70 664 l 1
 75 692 l 1
 91 691 l 2
 114 690 129 689 132 689 c 2
 146 689 l 1
 156 689 l 1
 237 692 l 1
405 728 m 1
 558 879 l 2
 570 891 581 897 591 897 c 0
 611 897 629 882 629 866 c 0
 629 851 622 842 601 829 c 2
 439 728 l 1
 405 728 l 1
EndSplineSet
Ligature: 0 0 'liga' N acutecomb
EndChar
StartChar: Ncaron
Encoding: 284 327 178
Width: 778
Flags: W
HStem: -11 21G<558 608> 672 20G<589 608 783 804>
DStem: 180 576 220 566 92 102 140 102 220 566 237 692 558 -11 582 103 662 592 702 542 582 103 608 -11
Fore
237 692 m 1
 582 103 l 1
 662 592 l 2
 664 605 667 631 667 638 c 0
 667 654 657 661 631 662 c 2
 584 664 l 1
 589 692 l 1
 608 692 l 1
 694 689 l 1
 783 692 l 1
 804 692 l 1
 799 664 l 1
 762 662 l 2
 725 659 723 655 702 542 c 1
 608 -11 l 1
 558 -11 l 1
 220 566 l 1
 140 102 l 2
 138 91 137 80 137 72 c 0
 137 39 146 31 186 28 c 2
 228 25 l 1
 223 -3 l 1
 126 0 125 0 113 0 c 2
 2 -3 l 1
 7 25 l 1
 38 28 l 2
 74 32 80 40 92 102 c 1
 180 576 l 1
 181 579 182 586 183 594 c 0
 184 596 184 598 184 599 c 0
 185 602 185 605 185 606 c 0
 185 614 170 633 155 645 c 0
 144 654 122 661 105 662 c 2
 70 664 l 1
 75 692 l 1
 91 691 l 2
 114 690 129 689 132 689 c 2
 146 689 l 1
 156 689 l 1
 237 692 l 1
489 720 m 1
 443 720 l 1
 347 889 l 1
 384 889 l 1
 474 784 l 1
 616 889 l 1
 652 889 l 1
 489 720 l 1
EndSplineSet
Ligature: 0 0 'liga' N uni030C
EndChar
StartChar: Ntilde
Encoding: 285 209 179
Width: 778
Flags: W
HStem: -11 21G<558 608> 672 20G<589 608 783 804> 763 60<548 566> 807 59<399 416>
DStem: 180 576 220 566 92 102 140 102 220 566 237 692 558 -11 582 103 662 592 702 542 582 103 608 -11
Fore
237 692 m 1xc0
 582 103 l 1
 662 592 l 2
 664 605 667 631 667 638 c 0
 667 654 657 661 631 662 c 2
 584 664 l 1
 589 692 l 1
 608 692 l 1
 694 689 l 1
 783 692 l 1
 804 692 l 1
 799 664 l 1
 762 662 l 2
 725 659 723 655 702 542 c 1
 608 -11 l 1
 558 -11 l 1
 220 566 l 1
 140 102 l 2
 138 91 137 80 137 72 c 0
 137 39 146 31 186 28 c 2
 228 25 l 1
 223 -3 l 1
 126 0 125 0 113 0 c 2
 2 -3 l 1
 7 25 l 1
 38 28 l 2
 74 32 80 40 92 102 c 1
 180 576 l 1
 181 579 182 586 183 594 c 0
 184 596 184 598 184 599 c 0
 185 602 185 605 185 606 c 0
 185 614 170 633 155 645 c 0
 144 654 122 661 105 662 c 2
 70 664 l 1
 75 692 l 1
 91 691 l 2
 114 690 129 689 132 689 c 2
 146 689 l 1
 156 689 l 1
 237 692 l 1xc0
347 763 m 1xe0
 318 763 l 1xe0
 338 836 367 866 416 866 c 0xd0
 435 866 456 861 479 852 c 2
 539 828 l 2
 546 825 557 823 566 823 c 0xe0
 586 823 597 832 617 866 c 1
 645 866 l 1xd0
 633 801 597 763 548 763 c 0xe0
 535 763 507 770 484 779 c 2
 446 794 l 1
 444 795 l 2
 443 795 440 796 437 798 c 0
 420 805 410 807 399 807 c 0xd0
 374 807 362 797 347 763 c 1xe0
EndSplineSet
Ligature: 0 0 'liga' N tildecomb
EndChar
StartChar: Odieresis
Encoding: 286 214 180
Width: 778
Flags: W
HStem: -18 42<323 360> 664 42<433 464> 747 100<375.886 390 585 587>
VStem: 53 88<253 303> 335 100<788.664 801> 535 100<788.664 801> 660 88<397 431>
Fore
464 706 m 0
 644 706 748 603 748 425 c 0
 748 267 670 120 544 42 c 0
 479 1 408 -18 323 -18 c 0
 147 -18 53 83 53 272 c 0
 53 523 227 706 464 706 c 0
433 664 m 0
 357 664 297 641 250 593 c 0
 181 524 141 407 141 277 c 0
 141 110 216 24 360 24 c 0
 438 24 503 50 552 100 c 0
 620 170 660 283 660 409 c 0
 660 519 628 594 563 632 c 0
 530 652 481 664 433 664 c 0
385 847 m 0
 411 847 435 823 435 798 c 0
 435 772 411 747 385 747 c 0
 359 747 335 772 335 798 c 0
 335 824 359 847 385 847 c 0
585 847 m 0
 611 847 635 823 635 798 c 0
 635 772 611 747 585 747 c 0
 559 747 535 772 535 798 c 0
 535 824 559 847 585 847 c 0
EndSplineSet
KernsSLIF: 89 -30 0 0 88 -62 0 0 87 -36 0 0 86 -54 0 0 84 -5 0 0 65 -65 0 0
Ligature: 0 0 'liga' O uni0308
EndChar
StartChar: Oacute
Encoding: 287 211 181
Width: 778
Flags: W
HStem: -18 42<323 360> 664 42<433 464>
VStem: 53 88<253 303> 660 88<397 431>
Fore
464 706 m 0
 644 706 748 603 748 425 c 0
 748 267 670 120 544 42 c 0
 479 1 408 -18 323 -18 c 0
 147 -18 53 83 53 272 c 0
 53 523 227 706 464 706 c 0
433 664 m 0
 357 664 297 641 250 593 c 0
 181 524 141 407 141 277 c 0
 141 110 216 24 360 24 c 0
 438 24 503 50 552 100 c 0
 620 170 660 283 660 409 c 0
 660 519 628 594 563 632 c 0
 530 652 481 664 433 664 c 0
402 728 m 1
 555 879 l 2
 567 891 578 897 588 897 c 0
 608 897 626 882 626 866 c 0
 626 851 619 842 598 829 c 2
 436 728 l 1
 402 728 l 1
EndSplineSet
KernsSLIF: 89 -30 0 0 87 -36 0 0 86 -54 0 0 84 -5 0 0 65 -65 0 0
Ligature: 0 0 'liga' O acutecomb
EndChar
StartChar: Ograve
Encoding: 288 210 182
Width: 778
Flags: W
HStem: -18 42<323 360> 664 42<433 464>
VStem: 53 88<253 303> 660 88<397 431>
Fore
464 706 m 0
 644 706 748 603 748 425 c 0
 748 267 670 120 544 42 c 0
 479 1 408 -18 323 -18 c 0
 147 -18 53 83 53 272 c 0
 53 523 227 706 464 706 c 0
433 664 m 0
 357 664 297 641 250 593 c 0
 181 524 141 407 141 277 c 0
 141 110 216 24 360 24 c 0
 438 24 503 50 552 100 c 0
 620 170 660 283 660 409 c 0
 660 519 628 594 563 632 c 0
 530 652 481 664 433 664 c 0
530 728 m 1
 368 829 l 2
 347 842 340 851 340 866 c 0
 340 883 358 897 378 897 c 0
 388 897 399 890 411 879 c 2
 564 728 l 1
 530 728 l 1
EndSplineSet
KernsSLIF: 89 -30 0 0 86 -54 0 0 84 -5 0 0
Ligature: 0 0 'liga' O gravecomb
EndChar
StartChar: Ocircumflex
Encoding: 289 212 183
Width: 778
Flags: W
HStem: -18 42<323 360> 664 42<433 464>
VStem: 53 88<253 303> 660 88<397 431>
Fore
464 706 m 0
 644 706 748 603 748 425 c 0
 748 267 670 120 544 42 c 0
 479 1 408 -18 323 -18 c 0
 147 -18 53 83 53 272 c 0
 53 523 227 706 464 706 c 0
433 664 m 0
 357 664 297 641 250 593 c 0
 181 524 141 407 141 277 c 0
 141 110 216 24 360 24 c 0
 438 24 503 50 552 100 c 0
 620 170 660 283 660 409 c 0
 660 519 628 594 563 632 c 0
 530 652 481 664 433 664 c 0
523 889 m 1
 611 720 l 1
 575 720 l 1
 493 824 l 1
 356 720 l 1
 317 720 l 1
 474 889 l 1
 523 889 l 1
EndSplineSet
KernsSLIF: 89 -30 0 0 86 -54 0 0 84 -5 0 0
Ligature: 0 0 'liga' O uni0302
EndChar
StartChar: Otilde
Encoding: 290 213 184
Width: 778
Flags: W
HStem: -18 42<323 360> 664 42<433 464> 763 60<558 576> 807 59<409 426>
VStem: 53 88<253 303> 660 88<397 431>
Fore
464 706 m 0xcc
 644 706 748 603 748 425 c 0
 748 267 670 120 544 42 c 0
 479 1 408 -18 323 -18 c 0
 147 -18 53 83 53 272 c 0
 53 523 227 706 464 706 c 0xcc
433 664 m 0
 357 664 297 641 250 593 c 0
 181 524 141 407 141 277 c 0
 141 110 216 24 360 24 c 0
 438 24 503 50 552 100 c 0
 620 170 660 283 660 409 c 0
 660 519 628 594 563 632 c 0
 530 652 481 664 433 664 c 0
357 763 m 1xec
 328 763 l 1xec
 348 836 377 866 426 866 c 0xdc
 445 866 466 861 489 852 c 2
 549 828 l 2
 556 825 567 823 576 823 c 0xec
 596 823 607 832 627 866 c 1
 655 866 l 1xdc
 643 801 607 763 558 763 c 0xec
 545 763 517 770 494 779 c 2
 456 794 l 1
 454 795 l 2
 453 795 450 796 447 798 c 0
 430 805 420 807 409 807 c 0xdc
 384 807 372 797 357 763 c 1xec
EndSplineSet
KernsSLIF: 89 -30 0 0 86 -54 0 0 84 -5 0 0
Ligature: 0 0 'liga' O tildecomb
EndChar
StartChar: Ohungarumlaut
Encoding: 291 336 185
Width: 778
Flags: W
HStem: -18 42<323 360> 664 42<433 464>
VStem: 53 88<253 303> 660 88<397 431>
Fore
464 706 m 0
 644 706 748 603 748 425 c 0
 748 267 670 120 544 42 c 0
 479 1 408 -18 323 -18 c 0
 147 -18 53 83 53 272 c 0
 53 523 227 706 464 706 c 0
433 664 m 0
 357 664 297 641 250 593 c 0
 181 524 141 407 141 277 c 0
 141 110 216 24 360 24 c 0
 438 24 503 50 552 100 c 0
 620 170 660 283 660 409 c 0
 660 519 628 594 563 632 c 0
 530 652 481 664 433 664 c 0
329 728 m 1
 438 914 l 2
 449 933 460 941 475 941 c 0
 497 941 511 929 511 910 c 0
 511 899 508 895 492 876 c 2
 362 728 l 1
 329 728 l 1
486 728 m 1
 595 914 l 1
 607 933 617 941 632 941 c 0
 654 941 668 929 668 910 c 0
 668 899 665 894 649 876 c 2
 519 728 l 1
 486 728 l 1
EndSplineSet
Ligature: 0 0 'liga' O uni030B
EndChar
StartChar: Racute
Encoding: 292 340 186
Width: 667
Flags: W
HStem: -3 27<631 639> 656 33<259 385>
VStem: 196 75<580 635> 496 88<541 562>
DStem: 187 559 271 580 112 125 186 93
Fore
105 664 m 1
 108 692 l 1
 226 689 244 689 259 689 c 2
 409 692 l 2
 520 694 584 646 584 560 c 0
 584 499 553 444 495 402 c 0
 459 376 430 364 375 354 c 1
 559 79 l 1
 588 37 599 29 639 24 c 1
 639 -3 l 1
 626 -3 l 2
 607 -1 593 0 592 0 c 2
 581 0 l 1
 573 0 l 1
 507 -3 l 1
 432 124 401 172 267 367 c 1
 270 378 l 1
 314 378 l 2
 418 378 496 448 496 543 c 0
 496 617 450 656 363 656 c 0
 336 656 316 654 287 648 c 1
 284 635 282 628 280 620 c 0
 276 602 271 582 271 580 c 1
 186 93 l 2
 183 76 182 67 182 58 c 0
 182 38 191 30 218 28 c 2
 267 25 l 1
 264 -3 l 1
 238 -3 l 1
 141 0 l 2
 117 0 98 0 51 -2 c 2
 9 -3 l 1
 13 25 l 1
 54 28 l 2
 94 32 96 34 112 125 c 1
 187 559 l 1
 192 589 196 621 196 635 c 0
 196 653 185 661 161 662 c 2
 105 664 l 1
349 728 m 1
 502 879 l 2
 514 891 525 897 535 897 c 0
 555 897 573 882 573 866 c 0
 573 851 566 842 545 829 c 2
 383 728 l 1
 349 728 l 1
EndSplineSet
Ligature: 0 0 'liga' R acutecomb
EndChar
StartChar: Rcaron
Encoding: 293 344 187
Width: 667
Flags: W
HStem: -3 27<631 639> 656 33<259 387>
VStem: 196 75<580 635> 496 88<541 562>
DStem: 187 559 271 580 112 125 186 93
Fore
105 664 m 1
 108 692 l 1
 226 689 244 689 259 689 c 2
 409 692 l 2
 520 694 584 646 584 560 c 0
 584 499 553 444 495 402 c 0
 459 376 430 364 375 354 c 1
 559 79 l 1
 588 37 599 29 639 24 c 1
 639 -3 l 1
 626 -3 l 2
 607 -1 593 0 592 0 c 2
 581 0 l 1
 573 0 l 1
 507 -3 l 1
 432 124 401 172 267 367 c 1
 270 378 l 1
 314 378 l 2
 418 378 496 448 496 543 c 0
 496 617 450 656 363 656 c 0
 336 656 316 654 287 648 c 1
 284 635 282 628 280 620 c 0
 276 602 271 582 271 580 c 1
 186 93 l 2
 183 76 182 67 182 58 c 0
 182 38 191 30 218 28 c 2
 267 25 l 1
 264 -3 l 1
 238 -3 l 1
 141 0 l 2
 117 0 98 0 51 -2 c 2
 9 -3 l 1
 13 25 l 1
 54 28 l 2
 94 32 96 34 112 125 c 1
 187 559 l 1
 192 589 196 621 196 635 c 0
 196 653 185 661 161 662 c 2
 105 664 l 1
433 720 m 1
 387 720 l 1
 291 889 l 1
 328 889 l 1
 418 784 l 1
 560 889 l 1
 596 889 l 1
 433 720 l 1
EndSplineSet
Ligature: 0 0 'liga' R uni030C
EndChar
StartChar: Sacute
Encoding: 294 346 188
Width: 556
Flags: W
HStem: -18 48<197 232> 658 48<339 374>
VStem: 108 72<471 508> 406 79<191 234>
Fore
451 537 m 1
 451 613 l 1
 421 645 388 658 339 658 c 0
 247 658 180 595 180 508 c 0
 180 442 210 405 276 391 c 2
 341 377 l 2
 442 355 485 313 485 234 c 0
 485 99 352 -18 197 -18 c 0
 144 -18 91 -5 42 20 c 1
 53 72 60 117 66 172 c 1
 96 172 l 1
 96 73 l 1
 140 42 178 30 232 30 c 0
 335 30 406 96 406 191 c 0
 406 248 379 283 325 296 c 2
 230 319 l 2
 146 339 108 386 108 471 c 0
 108 529 129 580 172 621 c 1
 225 675 301 706 374 706 c 0
 421 706 461 696 506 672 c 1
 492 629 485 591 481 537 c 1
 451 537 l 1
332 728 m 1
 485 879 l 2
 497 891 508 897 518 897 c 0
 538 897 556 882 556 866 c 0
 556 851 549 842 528 829 c 2
 366 728 l 1
 332 728 l 1
EndSplineSet
Ligature: 0 0 'liga' S acutecomb
EndChar
StartChar: Scaron
Encoding: 295 352 189
Width: 556
Flags: W
HStem: -18 48<197 232> 658 48<339 374>
VStem: 108 72<471 508> 406 79<191 234>
Fore
451 537 m 1
 451 613 l 1
 421 645 388 658 339 658 c 0
 247 658 180 595 180 508 c 0
 180 442 210 405 276 391 c 2
 341 377 l 2
 442 355 485 313 485 234 c 0
 485 99 352 -18 197 -18 c 0
 144 -18 91 -5 42 20 c 1
 53 72 60 117 66 172 c 1
 96 172 l 1
 96 73 l 1
 140 42 178 30 232 30 c 0
 335 30 406 96 406 191 c 0
 406 248 379 283 325 296 c 2
 230 319 l 2
 146 339 108 386 108 471 c 0
 108 529 129 580 172 621 c 1
 225 675 301 706 374 706 c 0
 421 706 461 696 506 672 c 1
 492 629 485 591 481 537 c 1
 451 537 l 1
396 738 m 1
 350 738 l 1
 254 907 l 1
 291 907 l 1
 381 802 l 1
 523 907 l 1
 559 907 l 1
 396 738 l 1
EndSplineSet
Ligature: 0 0 'liga' S uni030C
EndChar
StartChar: Scedilla
Encoding: 296 350 190
Width: 556
Flags: W
HStem: -216 35<153 180> -98 36<175 211> 658 48<339 374>
VStem: 108 72<471 508> 222 72<-138 -130> 406 79<191 234>
DStem: 182 -18 220 -17 133 -96 188 -64
Fore
220 -17 m 1
 188 -64 l 1
 199 -63 206 -62 211 -62 c 0
 262 -62 294 -89 294 -132 c 0
 294 -183 246 -216 170 -216 c 0
 144 -216 124 -212 83 -196 c 1
 100 -167 l 1
 135 -178 150 -181 169 -181 c 0
 200 -181 222 -162 222 -136 c 0
 222 -114 203 -98 175 -98 c 0
 168 -98 159 -99 148 -102 c 2
 142 -104 l 1
 133 -96 l 1
 182 -18 l 1
 132 -15 79 -1 42 20 c 1
 53 72 60 117 66 172 c 1
 96 172 l 1
 96 73 l 1
 140 42 178 30 232 30 c 0
 335 30 406 96 406 191 c 0
 406 248 379 283 325 296 c 2
 230 319 l 2
 146 339 108 386 108 471 c 0
 108 529 129 580 172 621 c 1
 225 675 301 706 374 706 c 0
 421 706 461 696 506 672 c 1
 492 629 485 591 481 537 c 1
 451 537 l 1
 451 613 l 1
 421 645 388 658 339 658 c 0
 247 658 180 595 180 508 c 0
 180 442 210 405 276 391 c 2
 341 377 l 2
 442 355 485 313 485 234 c 0
 485 106 369 -4 220 -17 c 1
EndSplineSet
Ligature: 0 0 'liga' S uni0327
EndChar
StartChar: Tcaron
Encoding: 297 356 191
Width: 611
Flags: W
HStem: 0 21G<243 260.5> 646 45<166 308 390 514>
DStem: 71 692 97 588 53 528 82 528 308 646 390 646 222 125 296 93
Fore
390 646 m 1
 296 93 l 1
 293 74 292 67 292 58 c 0
 292 37 302 29 328 28 c 2
 387 25 l 1
 384 -3 l 1
 340 -2 l 2
 301 -1 270 0 251 0 c 0
 235 0 206 -1 166 -2 c 2
 109 -3 l 1
 113 25 l 1
 164 28 l 2
 204 31 206 34 222 125 c 1
 308 646 l 1
 196 646 l 2
 159 646 121 640 115 633 c 0
 109 626 102 610 97 588 c 1
 82 528 l 1
 53 528 l 1
 71 692 l 1
 166 691 l 2
 252 690 316 689 353 689 c 0
 388 689 456 690 544 691 c 2
 635 692 l 1
 608 528 l 1
 580 528 l 1
 584 592 l 1
 585 602 583 621 580 629 c 0
 577 641 541 646 463 646 c 2
 390 646 l 1
385 720 m 1
 339 720 l 1
 243 889 l 1
 280 889 l 1
 370 784 l 1
 512 889 l 1
 548 889 l 1
 385 720 l 1
EndSplineSet
Ligature: 0 0 'liga' T uni030C
EndChar
StartChar: Udieresis
Encoding: 298 220 192
Width: 778
Flags: W
HStem: -19 58<276 314> 672 20G<782 798> 747 100<369 377 559.886 572>
VStem: 97 78<140 158> 319 100<788.664 801> 519 100<788.664 801>
DStem: 167 581 270 692 103 206 182 215 627 622 708 613 556 177 623 106
Fore
795 664 m 1
 759 661 l 2
 721 657 714 651 708 613 c 1
 623 106 l 1
 618 70 617 65 617 50 c 0
 617 37 626 31 649 29 c 2
 709 25 l 1
 704 -3 l 1
 672 -2 l 2
 640 -1 618 0 614 0 c 2
 552 -3 l 1
 530 -3 l 1
 525 2 l 1
 538 57 544 83 552 129 c 1
 500 69 468 44 409 15 c 0
 361 -9 320 -19 276 -19 c 0
 164 -19 97 43 97 144 c 0
 97 160 99 185 103 206 c 1
 167 581 l 1
 171 602 174 630 174 639 c 0
 174 656 166 661 140 662 c 2
 88 664 l 1
 91 692 l 1
 123 691 l 2
 151 690 171 689 181 689 c 0
 192 689 212 690 239 691 c 2
 270 692 l 1
 182 215 l 2
 177 187 175 171 175 154 c 0
 175 84 229 39 314 39 c 0
 352 39 389 48 427 68 c 0
 478 93 508 119 556 177 c 1
 627 622 l 1
 628 626 628 629 628 634 c 0
 628 653 617 661 593 662 c 2
 545 664 l 1
 548 692 l 1
 611 690 l 2
 655 689 676 689 691 689 c 2
 782 692 l 1
 798 692 l 1
 795 664 l 1
369 847 m 0
 395 847 419 823 419 798 c 0
 419 772 395 747 369 747 c 0
 343 747 319 772 319 798 c 0
 319 824 343 847 369 847 c 0
569 847 m 0
 595 847 619 823 619 798 c 0
 619 772 595 747 569 747 c 0
 543 747 519 772 519 798 c 0
 519 824 543 847 569 847 c 0
EndSplineSet
KernsSLIF: 114 -27 0 0 46 -19 0 0 112 -24 0 0 110 -25 0 0 109 -25 0 0 44 -34 0 0 98 13 0 0 65 16 0 0
Ligature: 0 0 'liga' U uni0308
EndChar
StartChar: Uacute
Encoding: 299 218 193
Width: 778
Flags: W
HStem: -19 58<276 314> 672 20G<782 798>
VStem: 97 78<140 158>
DStem: 167 581 270 692 103 206 182 215 627 622 708 613 556 177 623 106
Fore
795 664 m 1
 759 661 l 2
 721 657 714 651 708 613 c 1
 623 106 l 1
 618 70 617 65 617 50 c 0
 617 37 626 31 649 29 c 2
 709 25 l 1
 704 -3 l 1
 672 -2 l 2
 640 -1 618 0 614 0 c 2
 552 -3 l 1
 530 -3 l 1
 525 2 l 1
 538 57 544 83 552 129 c 1
 500 69 468 44 409 15 c 0
 361 -9 320 -19 276 -19 c 0
 164 -19 97 43 97 144 c 0
 97 160 99 185 103 206 c 1
 167 581 l 1
 171 602 174 630 174 639 c 0
 174 656 166 661 140 662 c 2
 88 664 l 1
 91 692 l 1
 123 691 l 2
 151 690 171 689 181 689 c 0
 192 689 212 690 239 691 c 2
 270 692 l 1
 182 215 l 2
 177 187 175 171 175 154 c 0
 175 84 229 39 314 39 c 0
 352 39 389 48 427 68 c 0
 478 93 508 119 556 177 c 1
 627 622 l 1
 628 626 628 629 628 634 c 0
 628 653 617 661 593 662 c 2
 545 664 l 1
 548 692 l 1
 611 690 l 2
 655 689 676 689 691 689 c 2
 782 692 l 1
 798 692 l 1
 795 664 l 1
403 728 m 1
 556 879 l 2
 568 891 579 897 589 897 c 0
 609 897 627 882 627 866 c 0
 627 851 620 842 599 829 c 2
 437 728 l 1
 403 728 l 1
EndSplineSet
KernsSLIF: 114 -27 0 0 46 -19 0 0 112 -24 0 0 110 -25 0 0 109 -25 0 0 44 -34 0 0 65 16 0 0
Ligature: 0 0 'liga' U acutecomb
EndChar
StartChar: Ugrave
Encoding: 300 217 194
Width: 778
Flags: W
HStem: -19 58<276 314> 672 20G<782 798>
VStem: 97 78<140 158>
DStem: 167 581 270 692 103 206 182 215 627 622 708 613 556 177 623 106
Fore
795 664 m 1
 759 661 l 2
 721 657 714 651 708 613 c 1
 623 106 l 1
 618 70 617 65 617 50 c 0
 617 37 626 31 649 29 c 2
 709 25 l 1
 704 -3 l 1
 672 -2 l 2
 640 -1 618 0 614 0 c 2
 552 -3 l 1
 530 -3 l 1
 525 2 l 1
 538 57 544 83 552 129 c 1
 500 69 468 44 409 15 c 0
 361 -9 320 -19 276 -19 c 0
 164 -19 97 43 97 144 c 0
 97 160 99 185 103 206 c 1
 167 581 l 1
 171 602 174 630 174 639 c 0
 174 656 166 661 140 662 c 2
 88 664 l 1
 91 692 l 1
 123 691 l 2
 151 690 171 689 181 689 c 0
 192 689 212 690 239 691 c 2
 270 692 l 1
 182 215 l 2
 177 187 175 171 175 154 c 0
 175 84 229 39 314 39 c 0
 352 39 389 48 427 68 c 0
 478 93 508 119 556 177 c 1
 627 622 l 1
 628 626 628 629 628 634 c 0
 628 653 617 661 593 662 c 2
 545 664 l 1
 548 692 l 1
 611 690 l 2
 655 689 676 689 691 689 c 2
 782 692 l 1
 798 692 l 1
 795 664 l 1
539 728 m 1
 377 829 l 2
 356 842 349 851 349 866 c 0
 349 883 367 897 387 897 c 0
 397 897 408 890 420 879 c 2
 573 728 l 1
 539 728 l 1
EndSplineSet
KernsSLIF: 65 16 0 0
Ligature: 0 0 'liga' U gravecomb
EndChar
StartChar: Ucircumflex
Encoding: 301 219 195
Width: 778
Flags: W
HStem: -19 58<276 314> 672 20G<782 798>
VStem: 97 78<140 158>
DStem: 167 581 270 692 103 206 182 215 627 622 708 613 556 177 623 106
Fore
795 664 m 1
 759 661 l 2
 721 657 714 651 708 613 c 1
 623 106 l 1
 618 70 617 65 617 50 c 0
 617 37 626 31 649 29 c 2
 709 25 l 1
 704 -3 l 1
 672 -2 l 2
 640 -1 618 0 614 0 c 2
 552 -3 l 1
 530 -3 l 1
 525 2 l 1
 538 57 544 83 552 129 c 1
 500 69 468 44 409 15 c 0
 361 -9 320 -19 276 -19 c 0
 164 -19 97 43 97 144 c 0
 97 160 99 185 103 206 c 1
 167 581 l 1
 171 602 174 630 174 639 c 0
 174 656 166 661 140 662 c 2
 88 664 l 1
 91 692 l 1
 123 691 l 2
 151 690 171 689 181 689 c 0
 192 689 212 690 239 691 c 2
 270 692 l 1
 182 215 l 2
 177 187 175 171 175 154 c 0
 175 84 229 39 314 39 c 0
 352 39 389 48 427 68 c 0
 478 93 508 119 556 177 c 1
 627 622 l 1
 628 626 628 629 628 634 c 0
 628 653 617 661 593 662 c 2
 545 664 l 1
 548 692 l 1
 611 690 l 2
 655 689 676 689 691 689 c 2
 782 692 l 1
 798 692 l 1
 795 664 l 1
535 889 m 1
 623 720 l 1
 587 720 l 1
 505 824 l 1
 368 720 l 1
 329 720 l 1
 486 889 l 1
 535 889 l 1
EndSplineSet
KernsSLIF: 65 16 0 0
Ligature: 0 0 'liga' U uni0302
EndChar
StartChar: Uring
Encoding: 302 366 196
Width: 778
Flags: W
HStem: -19 58<276 314> 672 20G<782 798> 728 36<541 553> 892 36<528 554>
VStem: 97 78<140 158> 441 38<815.207 831> 603 38<815.207 831>
DStem: 167 581 270 692 103 206 182 215 627 622 708 613 556 177 623 106
Fore
795 664 m 1
 759 661 l 2
 721 657 714 651 708 613 c 1
 623 106 l 1
 618 70 617 65 617 50 c 0
 617 37 626 31 649 29 c 2
 709 25 l 1
 704 -3 l 1
 672 -2 l 2
 640 -1 618 0 614 0 c 2
 552 -3 l 1
 530 -3 l 1
 525 2 l 1
 538 57 544 83 552 129 c 1
 500 69 468 44 409 15 c 0
 361 -9 320 -19 276 -19 c 0
 164 -19 97 43 97 144 c 0
 97 160 99 185 103 206 c 1
 167 581 l 1
 171 602 174 630 174 639 c 0
 174 656 166 661 140 662 c 2
 88 664 l 1
 91 692 l 1
 123 691 l 2
 151 690 171 689 181 689 c 0
 192 689 212 690 239 691 c 2
 270 692 l 1
 182 215 l 2
 177 187 175 171 175 154 c 0
 175 84 229 39 314 39 c 0
 352 39 389 48 427 68 c 0
 478 93 508 119 556 177 c 1
 627 622 l 1
 628 626 628 629 628 634 c 0
 628 653 617 661 593 662 c 2
 545 664 l 1
 548 692 l 1
 611 690 l 2
 655 689 676 689 691 689 c 2
 782 692 l 1
 798 692 l 1
 795 664 l 1
542 928 m 0
 596 928 641 883 641 828 c 0
 641 772 596 728 541 728 c 0
 485 728 441 772 441 828 c 0
 441 884 486 928 542 928 c 0
541 892 m 0
 504 892 479 866 479 828 c 0
 479 790 504 764 541 764 c 0
 578 764 603 790 603 828 c 0
 603 866 578 892 541 892 c 0
EndSplineSet
Ligature: 0 0 'liga' U uni030A
EndChar
StartChar: Uhungarumlaut
Encoding: 303 368 197
Width: 778
Flags: W
HStem: -19 58<276 314> 672 20G<782 798>
VStem: 97 78<140 158>
DStem: 167 581 270 692 103 206 182 215 627 622 708 613 556 177 623 106
Fore
795 664 m 1
 759 661 l 2
 721 657 714 651 708 613 c 1
 623 106 l 1
 618 70 617 65 617 50 c 0
 617 37 626 31 649 29 c 2
 709 25 l 1
 704 -3 l 1
 672 -2 l 2
 640 -1 618 0 614 0 c 2
 552 -3 l 1
 530 -3 l 1
 525 2 l 1
 538 57 544 83 552 129 c 1
 500 69 468 44 409 15 c 0
 361 -9 320 -19 276 -19 c 0
 164 -19 97 43 97 144 c 0
 97 160 99 185 103 206 c 1
 167 581 l 1
 171 602 174 630 174 639 c 0
 174 656 166 661 140 662 c 2
 88 664 l 1
 91 692 l 1
 123 691 l 2
 151 690 171 689 181 689 c 0
 192 689 212 690 239 691 c 2
 270 692 l 1
 182 215 l 2
 177 187 175 171 175 154 c 0
 175 84 229 39 314 39 c 0
 352 39 389 48 427 68 c 0
 478 93 508 119 556 177 c 1
 627 622 l 1
 628 626 628 629 628 634 c 0
 628 653 617 661 593 662 c 2
 545 664 l 1
 548 692 l 1
 611 690 l 2
 655 689 676 689 691 689 c 2
 782 692 l 1
 798 692 l 1
 795 664 l 1
329 728 m 1
 438 914 l 2
 449 933 460 941 475 941 c 0
 497 941 511 929 511 910 c 0
 511 899 508 895 492 876 c 2
 362 728 l 1
 329 728 l 1
486 728 m 1
 595 914 l 1
 607 933 617 941 632 941 c 0
 654 941 668 929 668 910 c 0
 668 899 665 894 649 876 c 2
 519 728 l 1
 486 728 l 1
EndSplineSet
Ligature: 0 0 'liga' U uni030B
EndChar
StartChar: Yacute
Encoding: 304 221 198
Width: 667
Flags: W
HStem: -3 21G<390 416> 635 70<100 131>
DStem: 285 251 362 246 264 125 336 78
Fore
52 647 m 1
 67 658 l 2
 86 670 107 686 118 695 c 0
 121 697 124 699 127 702 c 2
 131 705 l 1
 223 704 271 616 346 310 c 1
 374 384 413 452 474 536 c 1
 549 636 602 678 675 697 c 1
 669 626 l 1
 610 616 568 586 510 512 c 0
 436 419 371 301 362 246 c 1
 336 78 l 1
 335 73 334 63 334 57 c 0
 334 37 343 30 370 28 c 2
 419 25 l 1
 416 -3 l 1
 390 -3 l 1
 293 0 l 2
 277 0 254 -1 207 -2 c 2
 154 -3 l 1
 158 25 l 1
 206 28 l 2
 246 31 247 34 264 125 c 1
 285 251 l 1
 286 254 286 257 286 257 c 1
 287 273 248 410 224 477 c 0
 183 589 147 635 100 635 c 0
 89 635 78 632 55 623 c 1
 52 647 l 1
341 728 m 1
 494 879 l 2
 506 891 517 897 527 897 c 0
 547 897 565 882 565 866 c 0
 565 851 558 842 537 829 c 2
 375 728 l 1
 341 728 l 1
EndSplineSet
Ligature: 0 0 'liga' Y acutecomb
EndChar
StartChar: Zacute
Encoding: 305 377 199
Width: 667
Flags: W
HStem: -2 41<414 517> 652 37<238 522>
DStem: 522 652 637 672 20 19 133 39
Fore
20 -3 m 1
 20 19 l 1
 522 652 l 1
 342 652 l 2
 256 652 218 649 162 639 c 1
 156 619 l 2
 144 580 138 555 135 533 c 1
 109 533 l 1
 117 606 120 645 120 692 c 1
 238 691 l 1
 449 689 l 1
 475 689 l 1
 637 692 l 1
 637 672 l 1
 133 39 l 1
 414 39 l 2
 458 39 496 43 541 52 c 1
 549 74 l 1
 573 142 l 1
 580 164 l 1
 606 164 l 1
 593 95 585 38 583 -3 c 1
 517 -2 l 2
 456 -1 339 0 261 0 c 0
 174 0 116 -1 20 -3 c 1
349 728 m 1
 502 879 l 2
 514 891 525 897 535 897 c 0
 555 897 573 882 573 866 c 0
 573 851 566 842 545 829 c 2
 383 728 l 1
 349 728 l 1
EndSplineSet
Ligature: 0 0 'liga' Z acutecomb
EndChar
StartChar: Zcaron
Encoding: 306 381 200
Width: 667
Flags: W
HStem: -2 41<414 517> 652 37<238 522>
DStem: 522 652 637 672 20 19 133 39
Fore
20 -3 m 1
 20 19 l 1
 522 652 l 1
 342 652 l 2
 256 652 218 649 162 639 c 1
 156 619 l 2
 144 580 138 555 135 533 c 1
 109 533 l 1
 117 606 120 645 120 692 c 1
 238 691 l 1
 449 689 l 1
 475 689 l 1
 637 692 l 1
 637 672 l 1
 133 39 l 1
 414 39 l 2
 458 39 496 43 541 52 c 1
 549 74 l 1
 573 142 l 1
 580 164 l 1
 606 164 l 1
 593 95 585 38 583 -3 c 1
 517 -2 l 2
 456 -1 339 0 261 0 c 0
 174 0 116 -1 20 -3 c 1
398 738 m 1
 352 738 l 1
 256 907 l 1
 293 907 l 1
 383 802 l 1
 525 907 l 1
 561 907 l 1
 398 738 l 1
EndSplineSet
Ligature: 0 0 'liga' Z uni030C
EndChar
StartChar: Zdotaccent
Encoding: 307 379 201
Width: 667
Flags: W
HStem: -2 41<414 517> 652 37<238 522> 747 108<387 405>
VStem: 342 108<802 804>
DStem: 522 652 637 672 20 19 133 39
Fore
20 -3 m 1
 20 19 l 1
 522 652 l 1
 342 652 l 2
 256 652 218 649 162 639 c 1
 156 619 l 2
 144 580 138 555 135 533 c 1
 109 533 l 1
 117 606 120 645 120 692 c 1
 238 691 l 1
 449 689 l 1
 475 689 l 1
 637 692 l 1
 637 672 l 1
 133 39 l 1
 414 39 l 2
 458 39 496 43 541 52 c 1
 549 74 l 1
 573 142 l 1
 580 164 l 1
 606 164 l 1
 593 95 585 38 583 -3 c 1
 517 -2 l 2
 456 -1 339 0 261 0 c 0
 174 0 116 -1 20 -3 c 1
397 855 m 0
 425 855 450 830 450 802 c 0
 450 773 425 747 396 747 c 0
 367 747 342 773 342 802 c 0
 342 830 367 855 397 855 c 0
EndSplineSet
Ligature: 0 0 'liga' Z uni0307
EndChar
StartChar: Amacron
Encoding: 308 256 202
Width: 722
Flags: W
HStem: 0 21G<83 102.5 545 565> 277 36<270 491> 685 20G<462 508> 748 51<339 630>
DStem: 449 601 508 705 486 313 595 80 462 705 449 601 89 112 270 313 462 705 245 277 89 112 143 102 491 277 508 705 516 89 595 80
Fore
462 705 m 1
 508 705 l 1
 595 80 l 1
 603 35 604 35 651 28 c 2
 677 25 l 1
 677 -3 l 1
 575 0 575 0 555 0 c 0
 535 0 535 0 433 -3 c 1
 433 25 l 1
 477 28 l 2
 505 30 520 39 520 55 c 0
 520 59 519 69 518 77 c 0
 517 82 516 85 516 86 c 2
 516 89 l 1
 491 277 l 1
 245 277 l 1
 143 102 l 2
 124 69 117 55 117 47 c 0
 117 38 132 29 148 28 c 2
 200 25 l 1
 200 -3 l 1
 114 0 112 0 93 0 c 0
 73 0 73 0 -19 -3 c 1
 -19 27 l 1
 1 32 l 2
 35 40 53 56 89 112 c 1
 462 705 l 1
449 601 m 1
 270 313 l 1
 486 313 l 1
 449 601 l 1
641 799 m 1
 630 748 l 1
 329 748 l 1
 340 799 l 1
 641 799 l 1
EndSplineSet
Ligature: 0 0 'liga' A uni0304
EndChar
StartChar: Tcommaaccent
Encoding: 309 354 203
Width: 611
Flags: W
HStem: -20 20G<243 260.5> 646 45<166 308 390 502>
DStem: 71 692 97 588 53 528 82 528 308 646 390 646 222 125 296 93
Fore
390 646 m 1
 296 93 l 1
 293 74 292 67 292 58 c 0
 292 37 302 29 328 28 c 2
 387 25 l 1
 384 -3 l 1
 340 -2 l 2
 301 -1 270 0 251 0 c 0
 235 0 206 -1 166 -2 c 2
 109 -3 l 1
 113 25 l 1
 164 28 l 2
 204 31 206 34 222 125 c 1
 308 646 l 1
 196 646 l 2
 159 646 121 640 115 633 c 0
 109 626 102 610 97 588 c 1
 82 528 l 1
 53 528 l 1
 71 692 l 1
 166 691 l 2
 252 690 316 689 353 689 c 0
 388 689 456 690 544 691 c 2
 635 692 l 1
 608 528 l 1
 580 528 l 1
 584 592 l 1
 585 602 583 621 580 629 c 0
 577 641 541 646 463 646 c 2
 390 646 l 1
290 -60 m 1
 299 -78 l 1
 250 -172 209 -234 158 -292 c 1
 126 -305 l 1
 119 -296 l 1
 166 -223 191 -161 201 -85 c 1
 227 -81 257 -72 290 -60 c 1
EndSplineSet
Ligature: 0 0 'liga' T uni0327
EndChar
StartChar: Ydieresis
Encoding: 310 376 204
Width: 667
Flags: W
HStem: -3 21G<390 416> 635 70<100 131> 747 100<326 336 516.886 533>
VStem: 276 100<788.664 801> 476 100<788.664 801>
DStem: 285 251 362 246 264 125 336 78
Fore
52 647 m 1
 67 658 l 2
 86 670 107 686 118 695 c 0
 121 697 124 699 127 702 c 2
 131 705 l 1
 223 704 271 616 346 310 c 1
 374 384 413 452 474 536 c 1
 549 636 602 678 675 697 c 1
 669 626 l 1
 610 616 568 586 510 512 c 0
 436 419 371 301 362 246 c 1
 336 78 l 1
 335 73 334 63 334 57 c 0
 334 37 343 30 370 28 c 2
 419 25 l 1
 416 -3 l 1
 390 -3 l 1
 293 0 l 2
 277 0 254 -1 207 -2 c 2
 154 -3 l 1
 158 25 l 1
 206 28 l 2
 246 31 247 34 264 125 c 1
 285 251 l 1
 286 254 286 257 286 257 c 1
 287 273 248 410 224 477 c 0
 183 589 147 635 100 635 c 0
 89 635 78 632 55 623 c 1
 52 647 l 1
326 847 m 0
 352 847 376 823 376 798 c 0
 376 772 352 747 326 747 c 0
 300 747 276 772 276 798 c 0
 276 824 300 847 326 847 c 0
526 847 m 0
 552 847 576 823 576 798 c 0
 576 772 552 747 526 747 c 0
 500 747 476 772 476 798 c 0
 476 824 500 847 526 847 c 0
EndSplineSet
Ligature: 0 0 'liga' Y uni0308
EndChar
StartChar: Emacron
Encoding: 311 274 205
Width: 611
Flags: W
HStem: -3 42<257.6 307.969 308.062 355.106> 334 42<229 351> 537 155<501 549> 650 40<343 446> 748 51<230 521>
DStem: 182 559 271 614 95 55 229 376 182 559 221 334 95 55 178 81 512 161 539 161 496 101 534 135
Fore
221 334 m 1xd8
 178 81 l 1
 177 72 176 64 176 50 c 2
 176 46 l 1
 245 40 267 39 308 39 c 0
 362 39 435 44 455 48 c 0
 477 53 486 65 496 101 c 2
 512 161 l 1
 539 161 l 1
 534 135 l 2
 525 86 520 56 518 36 c 1
 514 0 l 1
 481 -1 l 2
 448 -2 423 -3 409 -3 c 2
 399 -3 l 1
 184 0 l 2
 164 0 102 -1 71 -2 c 2
 30 -3 l 1
 35 23 l 1
 79 30 91 37 95 55 c 1
 182 559 l 2
 187 589 191 621 191 635 c 0
 191 653 180 661 156 662 c 2
 102 664 l 1
 105 692 l 1xe8
 150 691 l 2
 201 689 228 689 265 689 c 0
 275 689 334 689 343 690 c 2xd8
 463 691 l 2
 487 692 498 692 501 692 c 0
 519 692 549 691 570 689 c 1
 559 651 552 601 549 537 c 1
 525 537 l 1xe8
 517 626 l 1
 516 641 475 650 413 650 c 0
 391 650 359 649 327 648 c 2
 280 646 l 1
 276 638 274 630 271 614 c 2
 229 376 l 1
 266 376 l 2
 344 376 404 378 485 382 c 1
 489 375 l 1
 470 330 l 1
 444 331 l 2
 396 333 365 334 338 334 c 2
 221 334 l 1xd8
532 799 m 1
 521 748 l 1
 220 748 l 1
 231 799 l 1
 532 799 l 1
EndSplineSet
Ligature: 0 0 'liga' E uni0304
EndChar
StartChar: Imacron
Encoding: 312 298 206
Width: 333
Flags: W
HStem: -3 21G<7 39 227 259> 672 20G<345 354> 748 51<97 388>
DStem: 176 559 265 613 104 125 176 78
Fore
103 664 m 1
 106 692 l 1
 170 690 l 2
 213 689 231 689 248 689 c 2
 345 692 l 1
 354 692 l 1
 351 664 l 1
 316 661 l 2
 277 657 272 652 265 613 c 1
 176 78 l 1
 175 74 174 63 174 57 c 0
 174 37 184 30 210 28 c 2
 262 25 l 1
 259 -3 l 1
 227 -3 l 1
 133 0 l 1
 39 -3 l 1
 7 -3 l 1
 10 25 l 1
 46 28 l 2
 86 31 89 36 104 125 c 1
 176 559 l 1
 179 576 185 629 185 636 c 0
 185 653 174 661 150 662 c 2
 103 664 l 1
399 799 m 1
 388 748 l 1
 87 748 l 1
 98 799 l 1
 399 799 l 1
EndSplineSet
Ligature: 0 0 'liga' I uni0304
EndChar
StartChar: Iogonek
Encoding: 313 302 207
Width: 333
Flags: W
HStem: -188 56<197 238> -3 21G<7 39 251 255 255 259> 672 20G<345 354>
VStem: 144 56<-122 -85>
DStem: 176 559 265 613 104 125 176 78
Fore
262 25 m 1
 259 -3 l 1
 255 -3 l 1
 251 -3 l 2
 232 -5 200 -57 200 -85 c 0
 200 -112 216 -132 238 -132 c 0
 254 -132 268 -123 288 -97 c 1
 302 -101 l 1
 270 -161 237 -188 197 -188 c 0
 165 -188 144 -162 144 -122 c 0
 144 -87 157 -62 204 -10 c 2
 211 -2 l 1
 148 0 143 0 131 0 c 2
 39 -3 l 1
 7 -3 l 1
 10 25 l 1
 46 28 l 2
 86 31 89 36 104 125 c 1
 176 559 l 1
 179 576 185 629 185 636 c 0
 185 653 174 661 150 662 c 2
 103 664 l 1
 106 692 l 1
 170 690 l 2
 213 689 231 689 248 689 c 2
 345 692 l 1
 354 692 l 1
 351 664 l 1
 316 661 l 2
 277 657 272 652 265 613 c 1
 176 78 l 1
 175 74 174 63 174 57 c 0
 174 37 184 30 210 28 c 2
 262 25 l 1
EndSplineSet
Ligature: 0 0 'liga' I uni0328
EndChar
StartChar: Kcommaaccent
Encoding: 314 310 208
Width: 667
Flags: W
HStem: -3 30<620 646> 665 24<615 662>
DStem: 189 559 278 613 116 125 233 353 189 559 231 340 116 125 188 78
Fore
371 664 m 1
 329 661 l 2
 292 658 285 651 278 613 c 1
 233 353 l 1
 297 403 338 439 382 484 c 2
 510 614 l 2
 538 642 548 655 548 663 c 2
 548 692 l 1
 568 691 l 2
 589 690 605 689 615 689 c 0
 623 689 639 690 660 691 c 2
 683 692 l 1
 683 665 l 1
 662 665 l 2
 645 665 624 655 608 640 c 2
 316 367 l 1
 562 65 l 2
 583 39 603 27 626 27 c 2
 646 27 l 1
 646 -3 l 1
 620 -2 614 -1 578 0 c 1
 509 -3 l 1
 404 140 381 169 231 340 c 1
 188 78 l 1
 187 74 186 63 186 57 c 0
 186 37 195 30 222 28 c 2
 271 25 l 1
 268 -3 l 1
 242 -3 l 1
 145 0 l 2
 126 0 103 -1 55 -2 c 2
 13 -3 l 1
 17 25 l 1
 58 28 l 2
 98 32 99 33 116 125 c 1
 189 559 l 1
 195 592 198 621 198 635 c 0
 198 653 187 661 163 662 c 2
 116 664 l 1
 119 692 l 1
 183 690 l 2
 226 689 244 689 260 689 c 2
 350 692 l 1
 374 692 l 1
 371 664 l 1
358 -60 m 1
 367 -78 l 1
 318 -172 277 -234 226 -292 c 1
 194 -305 l 1
 187 -296 l 1
 234 -223 259 -161 269 -85 c 1
 295 -81 325 -72 358 -60 c 1
EndSplineSet
Ligature: 0 0 'liga' K uni0327
EndChar
StartChar: Lcommaaccent
Encoding: 315 315 209
Width: 556
Flags: W
HStem: -3 42<244.983 304 304.062 356.806> 672 20G<328 352>
DStem: 167 559 256 613 81 55 164 81
Fore
349 664 m 1
 307 661 l 2
 270 658 263 651 256 613 c 1
 164 81 l 1
 163 72 162 64 162 50 c 2
 162 46 l 1
 228 40 255 39 304 39 c 0
 371 39 435 44 448 49 c 0
 457 54 466 71 475 103 c 2
 492 165 l 1
 523 165 l 1
 510 103 499 25 500 0 c 1
 467 -1 l 2
 434 -2 409 -3 395 -3 c 2
 385 -3 l 1
 170 0 l 2
 150 0 88 -1 57 -2 c 2
 16 -3 l 1
 21 23 l 1
 65 30 77 37 81 55 c 1
 167 559 l 1
 172 590 176 621 176 635 c 0
 176 653 165 661 141 662 c 2
 94 664 l 1
 97 692 l 1
 161 690 l 2
 204 689 222 689 238 689 c 2
 328 692 l 1
 352 692 l 1
 349 664 l 1
303 -60 m 1
 312 -78 l 1
 263 -172 222 -234 171 -292 c 1
 139 -305 l 1
 132 -296 l 1
 179 -223 204 -161 214 -85 c 1
 240 -81 270 -72 303 -60 c 1
EndSplineSet
Ligature: 0 0 'liga' L uni0327
EndChar
StartChar: Ncommaaccent
Encoding: 316 325 210
Width: 778
Flags: W
HStem: -11 21G<558 608> 672 20G<589 608 783 804>
DStem: 180 576 220 566 92 102 140 102 220 566 237 692 558 -11 582 103 662 592 702 542 582 103 608 -11
Fore
237 692 m 1
 582 103 l 1
 662 592 l 2
 664 605 667 631 667 638 c 0
 667 654 657 661 631 662 c 2
 584 664 l 1
 589 692 l 1
 608 692 l 1
 694 689 l 1
 783 692 l 1
 804 692 l 1
 799 664 l 1
 762 662 l 2
 725 659 723 655 702 542 c 1
 608 -11 l 1
 558 -11 l 1
 220 566 l 1
 140 102 l 2
 138 91 137 80 137 72 c 0
 137 39 146 31 186 28 c 2
 228 25 l 1
 223 -3 l 1
 126 0 125 0 113 0 c 2
 2 -3 l 1
 7 25 l 1
 38 28 l 2
 74 32 80 40 92 102 c 1
 180 576 l 1
 181 579 182 586 183 594 c 0
 184 596 184 598 184 599 c 0
 185 602 185 605 185 606 c 0
 185 614 170 633 155 645 c 0
 144 654 122 661 105 662 c 2
 70 664 l 1
 75 692 l 1
 91 691 l 2
 114 690 129 689 132 689 c 2
 146 689 l 1
 156 689 l 1
 237 692 l 1
414 -60 m 1
 423 -78 l 1
 374 -172 333 -234 282 -292 c 1
 250 -305 l 1
 243 -296 l 1
 290 -223 315 -161 325 -85 c 1
 351 -81 381 -72 414 -60 c 1
EndSplineSet
Ligature: 0 0 'liga' N uni0327
EndChar
StartChar: Omacron
Encoding: 317 332 211
Width: 778
Flags: W
HStem: -18 42<323 360> 664 42<433 464> 748 51<327 618>
VStem: 53 88<253 303> 660 88<397 431>
Fore
464 706 m 0
 644 706 748 603 748 425 c 0
 748 267 670 120 544 42 c 0
 479 1 408 -18 323 -18 c 0
 147 -18 53 83 53 272 c 0
 53 523 227 706 464 706 c 0
433 664 m 0
 357 664 297 641 250 593 c 0
 181 524 141 407 141 277 c 0
 141 110 216 24 360 24 c 0
 438 24 503 50 552 100 c 0
 620 170 660 283 660 409 c 0
 660 519 628 594 563 632 c 0
 530 652 481 664 433 664 c 0
629 799 m 1
 618 748 l 1
 317 748 l 1
 328 799 l 1
 629 799 l 1
EndSplineSet
Ligature: 0 0 'liga' O uni0304
EndChar
StartChar: Rcommaaccent
Encoding: 318 342 212
Width: 667
Flags: W
HStem: -3 27<631 639> 656 33<259 377>
VStem: 196 75<580 635> 496 88<541 562>
DStem: 187 559 271 580 112 125 186 93
Fore
105 664 m 1
 108 692 l 1
 226 689 244 689 259 689 c 2
 409 692 l 2
 520 694 584 646 584 560 c 0
 584 499 553 444 495 402 c 0
 459 376 430 364 375 354 c 1
 559 79 l 1
 588 37 599 29 639 24 c 1
 639 -3 l 1
 626 -3 l 2
 607 -1 593 0 592 0 c 2
 581 0 l 1
 573 0 l 1
 507 -3 l 1
 432 124 401 172 267 367 c 1
 270 378 l 1
 314 378 l 2
 418 378 496 448 496 543 c 0
 496 617 450 656 363 656 c 0
 336 656 316 654 287 648 c 1
 284 635 282 628 280 620 c 0
 276 602 271 582 271 580 c 1
 186 93 l 2
 183 76 182 67 182 58 c 0
 182 38 191 30 218 28 c 2
 267 25 l 1
 264 -3 l 1
 238 -3 l 1
 141 0 l 2
 117 0 98 0 51 -2 c 2
 9 -3 l 1
 13 25 l 1
 54 28 l 2
 94 32 96 34 112 125 c 1
 187 559 l 1
 192 589 196 621 196 635 c 0
 196 653 185 661 161 662 c 2
 105 664 l 1
358 -60 m 1
 367 -78 l 1
 318 -172 277 -234 226 -292 c 1
 194 -305 l 1
 187 -296 l 1
 234 -223 259 -161 269 -85 c 1
 295 -81 325 -72 358 -60 c 1
EndSplineSet
Ligature: 0 0 'liga' R uni0327
EndChar
StartChar: Gcommaaccent
Encoding: 319 290 213
Width: 722
Flags: W
HStem: -18 45<355 390> 653 53<433 468>
VStem: 50 88<267 304>
DStem: 546 153 633 219 528 60 610 84
Fore
528 60 m 1
 546 153 l 1
 551 177 553 197 553 212 c 0
 553 236 544 240 469 244 c 2
 435 246 l 1
 440 274 l 1
 482 270 518 269 569 269 c 0
 620 269 655 270 694 274 c 1
 692 246 l 1
 660 240 l 2
 647 238 635 228 633 219 c 1
 610 84 l 1
 609 80 609 76 609 73 c 0
 609 66 610 58 612 44 c 1
 608 37 l 1
 595 35 578 31 552 22 c 2
 522 12 l 2
 461 -9 409 -18 355 -18 c 0
 159 -18 50 87 50 274 c 0
 50 424 112 548 229 632 c 0
 301 683 374 706 466 706 c 0
 535 706 592 695 675 665 c 1
 661 619 653 576 648 519 c 1
 621 519 l 1
 621 603 l 1
 565 639 511 653 434 653 c 0
 351 653 286 629 237 579 c 0
 173 515 138 414 138 297 c 0
 138 120 224 27 390 27 c 0
 444 27 483 36 528 60 c 1
386 -60 m 1
 395 -78 l 1
 346 -172 305 -234 254 -292 c 1
 222 -305 l 1
 215 -296 l 1
 262 -223 287 -161 297 -85 c 1
 323 -81 353 -72 386 -60 c 1
EndSplineSet
Ligature: 0 0 'liga' G uni0327
EndChar
StartChar: Umacron
Encoding: 320 362 214
Width: 778
Flags: W
HStem: -19 58<276 314> 672 20G<782 798> 748 51<367 658>
VStem: 97 78<140 158>
DStem: 167 581 270 692 103 206 182 215 627 622 708 613 556 177 623 106
Fore
795 664 m 1
 759 661 l 2
 721 657 714 651 708 613 c 1
 623 106 l 1
 618 70 617 65 617 50 c 0
 617 37 626 31 649 29 c 2
 709 25 l 1
 704 -3 l 1
 672 -2 l 2
 640 -1 618 0 614 0 c 2
 552 -3 l 1
 530 -3 l 1
 525 2 l 1
 538 57 544 83 552 129 c 1
 500 69 468 44 409 15 c 0
 361 -9 320 -19 276 -19 c 0
 164 -19 97 43 97 144 c 0
 97 160 99 185 103 206 c 1
 167 581 l 1
 171 602 174 630 174 639 c 0
 174 656 166 661 140 662 c 2
 88 664 l 1
 91 692 l 1
 123 691 l 2
 151 690 171 689 181 689 c 0
 192 689 212 690 239 691 c 2
 270 692 l 1
 182 215 l 2
 177 187 175 171 175 154 c 0
 175 84 229 39 314 39 c 0
 352 39 389 48 427 68 c 0
 478 93 508 119 556 177 c 1
 627 622 l 1
 628 626 628 629 628 634 c 0
 628 653 617 661 593 662 c 2
 545 664 l 1
 548 692 l 1
 611 690 l 2
 655 689 676 689 691 689 c 2
 782 692 l 1
 798 692 l 1
 795 664 l 1
669 799 m 1
 658 748 l 1
 357 748 l 1
 368 799 l 1
 669 799 l 1
EndSplineSet
Ligature: 0 0 'liga' U uni0304
EndChar
StartChar: Uogonek
Encoding: 321 370 215
Width: 778
Flags: W
HStem: -188 56<634 674> -19 58<276 314> 672 20G<782 798>
VStem: 97 78<142 165> 580 56<-122 -86>
DStem: 167 581 270 692 103 206 182 215 627 622 708 613 556 177 623 106
Fore
798 692 m 1
 795 664 l 1
 759 661 l 2
 721 657 714 651 708 613 c 1
 623 106 l 1
 618 70 617 65 617 50 c 0
 617 37 626 31 649 29 c 2
 709 25 l 1
 704 -3 l 1
 701 -3 l 1
 694 -3 l 2
 671 -3 636 -53 636 -86 c 0
 636 -113 652 -132 674 -132 c 0
 691 -132 704 -123 725 -97 c 1
 739 -101 l 1
 706 -161 674 -188 634 -188 c 0
 601 -188 580 -162 580 -122 c 0
 580 -86 591 -66 641 -10 c 2
 649 -1 l 1
 619 0 616 0 613 0 c 2
 552 -3 l 1
 530 -3 l 1
 525 2 l 1
 538 57 544 83 552 129 c 1
 500 69 468 44 409 15 c 0
 361 -9 320 -19 276 -19 c 0
 164 -19 97 43 97 144 c 0
 97 160 99 185 103 206 c 1
 167 581 l 1
 171 602 174 630 174 639 c 0
 174 656 166 661 140 662 c 2
 88 664 l 1
 91 692 l 1
 123 691 l 2
 151 690 171 689 181 689 c 0
 192 689 212 690 239 691 c 2
 270 692 l 1
 182 215 l 2
 177 187 175 171 175 154 c 0
 175 84 229 39 314 39 c 0
 352 39 389 48 427 68 c 0
 478 93 508 119 556 177 c 1
 627 622 l 1
 628 626 628 629 628 634 c 0
 628 653 617 661 593 662 c 2
 545 664 l 1
 548 692 l 1
 611 690 l 2
 655 689 676 689 691 689 c 2
 782 692 l 1
 798 692 l 1
EndSplineSet
Ligature: 0 0 'liga' U uni0328
EndChar
StartChar: adieresis
Encoding: 322 228 216
Width: 444
Flags: W
HStem: -11 70<38 94> 433 49<234 274> 537 100<184 186 374.886 394>
VStem: 4 72<67 99> 134 100<588 590> 236 73<26 82> 334 100<588 590>
DStem: 271 204 402 472 242 77 310 93
Fore
402 472 m 1
 310 93 l 1
 309 90 309 87 309 82 c 0
 309 68 315 59 324 59 c 0
 339 59 354 68 386 95 c 0
 390 99 393 101 399 106 c 1
 406 85 l 1
 324 17 283 -9 260 -9 c 0
 245 -9 236 4 236 26 c 0
 236 42 238 60 242 77 c 2
 271 204 l 1
 217 128 178 83 136 45 c 0
 98 11 60 -11 38 -11 c 0
 19 -11 4 23 4 67 c 0
 4 145 35 265 79 354 c 0
 104 403 137 433 199 464 c 0
 226 477 246 482 274 482 c 0
 301 482 318 478 359 463 c 1
 392 481 l 1
 402 472 l 1
319 414 m 1
 275 429 257 433 234 433 c 0
 186 433 163 415 139 360 c 0
 104 280 76 163 76 99 c 0
 76 72 82 59 94 59 c 0
 126 59 187 117 244 201 c 0
 278 253 297 305 319 414 c 1
184 637 m 0
 210 637 234 613 234 588 c 0
 234 562 210 537 184 537 c 0
 158 537 134 562 134 588 c 0
 134 614 158 637 184 637 c 0
384 637 m 0
 410 637 434 613 434 588 c 0
 434 562 410 537 384 537 c 0
 358 537 334 562 334 588 c 0
 334 614 358 637 384 637 c 0
EndSplineSet
KernsSLIF: 121 -6 0 0 119 -18 0 0 118 -18 0 0
Ligature: 0 0 'liga' a uni0308
EndChar
StartChar: aacute
Encoding: 323 225 217
Width: 444
Flags: W
HStem: -11 70<38 94> 433 49<234 274>
VStem: 4 72<67 99> 236 73<26 82>
DStem: 271 204 402 472 242 77 310 93
Fore
402 472 m 1
 310 93 l 1
 309 90 309 87 309 82 c 0
 309 68 315 59 324 59 c 0
 339 59 354 68 386 95 c 0
 390 99 393 101 399 106 c 1
 406 85 l 1
 324 17 283 -9 260 -9 c 0
 245 -9 236 4 236 26 c 0
 236 42 238 60 242 77 c 2
 271 204 l 1
 217 128 178 83 136 45 c 0
 98 11 60 -11 38 -11 c 0
 19 -11 4 23 4 67 c 0
 4 145 35 265 79 354 c 0
 104 403 137 433 199 464 c 0
 226 477 246 482 274 482 c 0
 301 482 318 478 359 463 c 1
 392 481 l 1
 402 472 l 1
319 414 m 1
 275 429 257 433 234 433 c 0
 186 433 163 415 139 360 c 0
 104 280 76 163 76 99 c 0
 76 72 82 59 94 59 c 0
 126 59 187 117 244 201 c 0
 278 253 297 305 319 414 c 1
224 518 m 1
 377 669 l 2
 389 681 400 687 410 687 c 0
 430 687 448 672 448 656 c 0
 448 641 441 632 420 619 c 2
 258 518 l 1
 224 518 l 1
EndSplineSet
KernsSLIF: 121 -6 0 0 119 -18 0 0 118 -18 0 0
Ligature: 0 0 'liga' a acutecomb
EndChar
StartChar: agrave
Encoding: 324 224 218
Width: 444
Flags: W
HStem: -11 70<38 94> 433 49<234 274>
VStem: 4 72<67 99> 236 73<26 82>
DStem: 271 204 402 472 242 77 310 93
Fore
402 472 m 1
 310 93 l 1
 309 90 309 87 309 82 c 0
 309 68 315 59 324 59 c 0
 339 59 354 68 386 95 c 0
 390 99 393 101 399 106 c 1
 406 85 l 1
 324 17 283 -9 260 -9 c 0
 245 -9 236 4 236 26 c 0
 236 42 238 60 242 77 c 2
 271 204 l 1
 217 128 178 83 136 45 c 0
 98 11 60 -11 38 -11 c 0
 19 -11 4 23 4 67 c 0
 4 145 35 265 79 354 c 0
 104 403 137 433 199 464 c 0
 226 477 246 482 274 482 c 0
 301 482 318 478 359 463 c 1
 392 481 l 1
 402 472 l 1
319 414 m 1
 275 429 257 433 234 433 c 0
 186 433 163 415 139 360 c 0
 104 280 76 163 76 99 c 0
 76 72 82 59 94 59 c 0
 126 59 187 117 244 201 c 0
 278 253 297 305 319 414 c 1
342 518 m 1
 180 619 l 2
 159 632 152 641 152 656 c 0
 152 673 170 687 190 687 c 0
 200 687 211 680 223 669 c 2
 376 518 l 1
 342 518 l 1
EndSplineSet
KernsSLIF: 121 -6 0 0 119 -18 0 0 118 -18 0 0
Ligature: 0 0 'liga' a gravecomb
EndChar
StartChar: acircumflex
Encoding: 325 226 219
Width: 444
Flags: W
HStem: -11 70<38 94> 433 49<234 274>
VStem: 4 72<67 99> 236 73<26 82>
DStem: 271 204 402 472 242 77 310 93
Fore
402 472 m 1
 310 93 l 1
 309 90 309 87 309 82 c 0
 309 68 315 59 324 59 c 0
 339 59 354 68 386 95 c 0
 390 99 393 101 399 106 c 1
 406 85 l 1
 324 17 283 -9 260 -9 c 0
 245 -9 236 4 236 26 c 0
 236 42 238 60 242 77 c 2
 271 204 l 1
 217 128 178 83 136 45 c 0
 98 11 60 -11 38 -11 c 0
 19 -11 4 23 4 67 c 0
 4 145 35 265 79 354 c 0
 104 403 137 433 199 464 c 0
 226 477 246 482 274 482 c 0
 301 482 318 478 359 463 c 1
 392 481 l 1
 402 472 l 1
319 414 m 1
 275 429 257 433 234 433 c 0
 186 433 163 415 139 360 c 0
 104 280 76 163 76 99 c 0
 76 72 82 59 94 59 c 0
 126 59 187 117 244 201 c 0
 278 253 297 305 319 414 c 1
318 679 m 1
 406 510 l 1
 370 510 l 1
 288 614 l 1
 151 510 l 1
 112 510 l 1
 269 679 l 1
 318 679 l 1
EndSplineSet
Ligature: 0 0 'liga' a uni0302
EndChar
StartChar: abreve
Encoding: 326 259 220
Width: 444
Flags: W
HStem: -11 70<38 94> 433 49<234 274> 518 59<269 293>
VStem: 4 72<67 99> 236 73<26 82>
DStem: 271 204 402 472 242 77 310 93
Fore
402 472 m 1
 310 93 l 1
 309 90 309 87 309 82 c 0
 309 68 315 59 324 59 c 0
 339 59 354 68 386 95 c 0
 390 99 393 101 399 106 c 1
 406 85 l 1
 324 17 283 -9 260 -9 c 0
 245 -9 236 4 236 26 c 0
 236 42 238 60 242 77 c 2
 271 204 l 1
 217 128 178 83 136 45 c 0
 98 11 60 -11 38 -11 c 0
 19 -11 4 23 4 67 c 0
 4 145 35 265 79 354 c 0
 104 403 137 433 199 464 c 0
 226 477 246 482 274 482 c 0
 301 482 318 478 359 463 c 1
 392 481 l 1
 402 472 l 1
319 414 m 1
 275 429 257 433 234 433 c 0
 186 433 163 415 139 360 c 0
 104 280 76 163 76 99 c 0
 76 72 82 59 94 59 c 0
 126 59 187 117 244 201 c 0
 278 253 297 305 319 414 c 1
148 677 m 1
 177 677 l 1
 183 611 220 577 286 577 c 0
 346 577 382 604 420 677 c 1
 449 677 l 1
 435 625 425 603 404 577 c 0
 372 537 331 518 279 518 c 0
 227 518 189 538 168 576 c 0
 153 603 148 626 148 677 c 1
EndSplineSet
Ligature: 0 0 'liga' a uni0306
EndChar
StartChar: atilde
Encoding: 327 227 221
Width: 444
Flags: W
HStem: -11 70<38 94> 433 49<234 274> 535 60<349 367> 579 59<200 217>
VStem: 4 72<67 99> 236 73<26 82>
DStem: 271 204 402 472 242 77 310 93
Fore
402 472 m 1xcc
 310 93 l 1
 309 90 309 87 309 82 c 0
 309 68 315 59 324 59 c 0
 339 59 354 68 386 95 c 0
 390 99 393 101 399 106 c 1
 406 85 l 1
 324 17 283 -9 260 -9 c 0
 245 -9 236 4 236 26 c 0
 236 42 238 60 242 77 c 2
 271 204 l 1
 217 128 178 83 136 45 c 0
 98 11 60 -11 38 -11 c 0
 19 -11 4 23 4 67 c 0
 4 145 35 265 79 354 c 0
 104 403 137 433 199 464 c 0
 226 477 246 482 274 482 c 0
 301 482 318 478 359 463 c 1
 392 481 l 1
 402 472 l 1xcc
319 414 m 1
 275 429 257 433 234 433 c 0
 186 433 163 415 139 360 c 0
 104 280 76 163 76 99 c 0
 76 72 82 59 94 59 c 0
 126 59 187 117 244 201 c 0
 278 253 297 305 319 414 c 1
148 535 m 1xec
 119 535 l 1xec
 139 608 168 638 217 638 c 0xdc
 236 638 257 633 280 624 c 2
 340 600 l 2
 347 597 358 595 367 595 c 0xec
 387 595 398 604 418 638 c 1
 446 638 l 1xdc
 434 573 398 535 349 535 c 0xec
 336 535 308 542 285 551 c 2
 247 566 l 1
 245 567 l 2
 244 567 241 568 238 570 c 0
 221 577 211 579 200 579 c 0xdc
 175 579 163 569 148 535 c 1xec
EndSplineSet
Ligature: 0 0 'liga' a tildecomb
EndChar
StartChar: aring
Encoding: 328 229 222
Width: 444
Flags: W
HStem: -11 70<38 94> 433 49<234 274> 518 36<293.78 319> 682 36<293.78 319>
VStem: 4 72<67 99> 206 38<618 630> 236 73<26 82> 368 38<618 630>
DStem: 271 204 402 472 242 77 310 93
Fore
402 472 m 1xfb
 310 93 l 1
 309 90 309 87 309 82 c 0
 309 68 315 59 324 59 c 0
 339 59 354 68 386 95 c 0
 390 99 393 101 399 106 c 1
 406 85 l 1
 324 17 283 -9 260 -9 c 0
 245 -9 236 4 236 26 c 0
 236 42 238 60 242 77 c 2
 271 204 l 1
 217 128 178 83 136 45 c 0
 98 11 60 -11 38 -11 c 0
 19 -11 4 23 4 67 c 0
 4 145 35 265 79 354 c 0
 104 403 137 433 199 464 c 0
 226 477 246 482 274 482 c 0
 301 482 318 478 359 463 c 1
 392 481 l 1
 402 472 l 1xfb
319 414 m 1
 275 429 257 433 234 433 c 0
 186 433 163 415 139 360 c 0
 104 280 76 163 76 99 c 0
 76 72 82 59 94 59 c 0
 126 59 187 117 244 201 c 0xfd
 278 253 297 305 319 414 c 1
307 718 m 0
 361 718 406 673 406 618 c 0
 406 562 361 518 306 518 c 0
 250 518 206 562 206 618 c 0
 206 674 251 718 307 718 c 0
306 682 m 0
 269 682 244 656 244 618 c 0
 244 580 269 554 306 554 c 0
 343 554 368 580 368 618 c 0
 368 656 343 682 306 682 c 0
EndSplineSet
KernsSLIF: 121 -6 0 0 119 -18 0 0 118 -18 0 0
Ligature: 0 0 'liga' a uni030A
EndChar
StartChar: aogonek
Encoding: 329 261 223
Width: 444
Flags: W
HStem: -187 56<267 307> -11 70<38 94> 433 49<234 274>
VStem: 4 72<67 99> 213 56<-122 -85>
DStem: 271 204 402 472 242 77 310 93
Fore
402 472 m 1
 310 93 l 1
 309 90 309 87 309 82 c 0
 309 68 315 59 324 59 c 0
 339 59 354 68 386 95 c 0
 390 99 393 101 399 106 c 1
 406 85 l 1
 364 53 349 39 309 -8 c 0
 279 -43 269 -63 269 -85 c 0
 269 -112 285 -131 307 -131 c 0
 324 -131 337 -122 358 -97 c 1
 372 -101 l 1
 339 -161 307 -187 267 -187 c 0
 234 -187 213 -161 213 -122 c 0
 213 -86 227 -60 274 -10 c 2
 278 -5 l 1
 270 -8 265 -9 261 -9 c 0
 245 -9 236 3 236 26 c 0
 236 42 238 60 242 77 c 2
 271 204 l 1
 217 128 178 83 136 45 c 0
 98 11 60 -11 38 -11 c 0
 19 -11 4 23 4 67 c 0
 4 145 35 265 79 354 c 0
 104 403 137 433 199 464 c 0
 226 477 246 482 274 482 c 0
 301 482 318 478 359 463 c 1
 392 481 l 1
 402 472 l 1
319 414 m 1
 275 429 257 433 234 433 c 0
 186 433 163 415 139 360 c 0
 104 280 76 163 76 99 c 0
 76 72 82 59 94 59 c 0
 126 59 187 117 244 201 c 0
 278 253 297 305 319 414 c 1
EndSplineSet
Ligature: 0 0 'liga' a uni0328
EndChar
StartChar: cacute
Encoding: 330 263 224
Width: 407
Flags: W
HStem: -11 51<147 186> 433 49<261 293>
VStem: 25 76<134 166>
Fore
342 330 m 1
 342 390 l 2
 342 414 306 433 261 433 c 0
 230 433 206 425 185 409 c 0
 136 371 101 267 101 159 c 0
 101 80 130 40 186 40 c 0
 221 40 259 57 331 105 c 2
 346 115 l 1
 354 95 l 1
 304 54 l 2
 249 9 201 -11 147 -11 c 0
 67 -11 25 40 25 136 c 0
 25 241 63 346 118 395 c 0
 174 446 248 482 293 482 c 0
 330 482 365 473 389 458 c 1
 380 432 373 395 365 330 c 1
 342 330 l 1
199 518 m 1
 352 669 l 2
 364 681 375 687 385 687 c 0
 405 687 423 672 423 656 c 0
 423 641 416 632 395 619 c 2
 233 518 l 1
 199 518 l 1
EndSplineSet
Ligature: 0 0 'liga' c acutecomb
EndChar
StartChar: ccaron
Encoding: 331 269 225
Width: 407
Flags: W
HStem: -11 51<147 186> 433 49<261 293>
VStem: 25 76<134 166>
Fore
342 330 m 1
 342 390 l 2
 342 414 306 433 261 433 c 0
 230 433 206 425 185 409 c 0
 136 371 101 267 101 159 c 0
 101 80 130 40 186 40 c 0
 221 40 259 57 331 105 c 2
 346 115 l 1
 354 95 l 1
 304 54 l 2
 249 9 201 -11 147 -11 c 0
 67 -11 25 40 25 136 c 0
 25 241 63 346 118 395 c 0
 174 446 248 482 293 482 c 0
 330 482 365 473 389 458 c 1
 380 432 373 395 365 330 c 1
 342 330 l 1
303 510 m 1
 257 510 l 1
 161 679 l 1
 198 679 l 1
 288 574 l 1
 430 679 l 1
 466 679 l 1
 303 510 l 1
EndSplineSet
Ligature: 0 0 'liga' c uni030C
EndChar
StartChar: ccedilla
Encoding: 332 231 226
Width: 407
Flags: W
HStem: -216 35<99 122> -98 36<120 157> 433 49<261 293>
VStem: 25 76<134 161> 167 72<-138 -130>
DStem: 132 -10 170 -10 78 -96 133 -64
Fore
170 -10 m 1
 133 -64 l 1
 142 -63 151 -62 157 -62 c 0
 207 -62 239 -89 239 -132 c 0
 239 -183 191 -216 116 -216 c 0
 89 -216 70 -212 28 -196 c 1
 45 -167 l 1
 80 -178 95 -181 114 -181 c 0
 145 -181 167 -162 167 -136 c 0
 167 -114 148 -98 120 -98 c 0
 112 -98 104 -99 87 -104 c 1
 78 -96 l 1
 132 -10 l 1
 61 -3 25 46 25 136 c 0
 25 241 63 346 118 395 c 0
 174 446 248 482 293 482 c 0
 330 482 365 473 389 458 c 1
 380 432 373 395 365 330 c 1
 342 330 l 1
 342 390 l 2
 342 414 306 433 261 433 c 0
 230 433 206 425 185 409 c 0
 136 371 101 267 101 159 c 0
 101 80 130 40 186 40 c 0
 221 40 259 57 331 105 c 2
 346 115 l 1
 354 95 l 1
 304 54 l 2
 257 15 215 -5 170 -10 c 1
EndSplineSet
Ligature: 0 0 'liga' c uni0327
EndChar
StartChar: dcaron
Encoding: 333 271 227
Width: 577
Flags: W
HStem: -11 70<61 114> 433 49<243 277>
VStem: 17 72<84 118> 274 75<24 82>
DStem: 446 107 456 88 402 76 375 28
Fore
483 722 m 1
 357 128 l 1
 350 99 349 90 349 82 c 0
 349 68 355 59 363 59 c 0
 372 59 388 66 402 76 c 2
 446 107 l 1
 456 88 l 1
 375 28 l 2
 341 3 317 -9 300 -9 c 0
 283 -9 274 3 274 24 c 0
 274 50 279 82 290 126 c 2
 313 217 l 1
 246 116 213 77 159 33 c 0
 125 6 88 -11 61 -11 c 0
 32 -11 17 21 17 86 c 0
 17 170 37 265 68 323 c 0
 114 410 208 482 277 482 c 0
 302 482 329 477 359 468 c 1
 387 622 l 1
 388 629 389 638 389 646 c 0
 389 663 379 670 355 670 c 2
 307 670 l 1
 311 691 l 1
 383 698 419 707 471 733 c 1
 483 722 l 1
337 351 m 2
 349 410 l 1
 316 427 287 433 243 433 c 0
 216 433 197 428 184 418 c 0
 135 380 89 224 89 98 c 0
 89 73 98 59 114 59 c 0
 133 59 173 83 208 116 c 0
 270 175 319 263 337 351 c 2
628 733 m 1
 637 715 l 1
 588 621 547 559 496 501 c 1
 464 488 l 1
 457 497 l 1
 504 570 529 632 539 708 c 1
 565 712 595 721 628 733 c 1
EndSplineSet
Ligature: 0 0 'liga' d uni030C
EndChar
StartChar: edieresis
Encoding: 334 235 228
Width: 389
Flags: W
HStem: -11 47<131 167> 440 42<252 290> 537 100<146.886 159 356 358>
VStem: 15 76<113 135> 106 100<588 590> 300 74<387 404> 306 100<588 590>
Fore
328 111 m 1xfc
 336 92 l 1
 244 17 188 -11 131 -11 c 0
 59 -11 15 35 15 113 c 0
 15 180 45 299 75 349 c 0
 114 413 225 482 290 482 c 0
 340 482 374 451 374 404 c 0
 374 342 335 296 250 259 c 0
 225 248 198 238 181 234 c 2
 99 214 l 1
 94 185 91 158 91 133 c 0
 91 73 120 36 167 36 c 0
 203 36 251 56 304 94 c 2
 328 111 l 1xfc
113 274 m 2
 104 237 l 1
 149 247 185 258 213 272 c 0
 265 297 300 344 300 388 c 0
 300 420 281 440 252 440 c 0
 228 440 197 428 179 412 c 0
 150 386 130 343 113 274 c 2
156 637 m 0
 182 637 206 613 206 588 c 0
 206 562 182 537 156 537 c 0
 130 537 106 562 106 588 c 0
 106 614 130 637 156 637 c 0
356 637 m 0
 382 637 406 613 406 588 c 0
 406 562 382 537 356 537 c 0
 330 537 306 562 306 588 c 0xfa
 306 614 330 637 356 637 c 0
EndSplineSet
Ligature: 0 0 'liga' e uni0308
EndChar
StartChar: eacute
Encoding: 335 233 229
Width: 389
Flags: W
HStem: -11 47<131 167> 440 42<252 290>
VStem: 15 76<113 135> 300 74<387 404>
Fore
328 111 m 1
 336 92 l 1
 244 17 188 -11 131 -11 c 0
 59 -11 15 35 15 113 c 0
 15 180 45 299 75 349 c 0
 114 413 225 482 290 482 c 0
 340 482 374 451 374 404 c 0
 374 342 335 296 250 259 c 0
 225 248 198 238 181 234 c 2
 99 214 l 1
 94 185 91 158 91 133 c 0
 91 73 120 36 167 36 c 0
 203 36 251 56 304 94 c 2
 328 111 l 1
113 274 m 2
 104 237 l 1
 149 247 185 258 213 272 c 0
 265 297 300 344 300 388 c 0
 300 420 281 440 252 440 c 0
 228 440 197 428 179 412 c 0
 150 386 130 343 113 274 c 2
170 518 m 1
 323 669 l 2
 335 681 346 687 356 687 c 0
 376 687 394 672 394 656 c 0
 394 641 387 632 366 619 c 2
 204 518 l 1
 170 518 l 1
EndSplineSet
KernsSLIF: 121 15 0 0 119 5 0 0 118 5 0 0
Ligature: 0 0 'liga' e acutecomb
EndChar
StartChar: egrave
Encoding: 336 232 230
Width: 389
Flags: W
HStem: -11 47<131 167> 440 42<252 290>
VStem: 15 76<113 135> 300 74<387 404>
Fore
328 111 m 1
 336 92 l 1
 244 17 188 -11 131 -11 c 0
 59 -11 15 35 15 113 c 0
 15 180 45 299 75 349 c 0
 114 413 225 482 290 482 c 0
 340 482 374 451 374 404 c 0
 374 342 335 296 250 259 c 0
 225 248 198 238 181 234 c 2
 99 214 l 1
 94 185 91 158 91 133 c 0
 91 73 120 36 167 36 c 0
 203 36 251 56 304 94 c 2
 328 111 l 1
113 274 m 2
 104 237 l 1
 149 247 185 258 213 272 c 0
 265 297 300 344 300 388 c 0
 300 420 281 440 252 440 c 0
 228 440 197 428 179 412 c 0
 150 386 130 343 113 274 c 2
314 518 m 1
 152 619 l 2
 131 632 124 641 124 656 c 0
 124 673 142 687 162 687 c 0
 172 687 183 680 195 669 c 2
 348 518 l 1
 314 518 l 1
EndSplineSet
Ligature: 0 0 'liga' e gravecomb
EndChar
StartChar: ecircumflex
Encoding: 337 234 231
Width: 389
Flags: W
HStem: -11 47<131 167> 440 42<252 290>
VStem: 15 76<113 135> 300 74<387 404>
Fore
328 111 m 1
 336 92 l 1
 244 17 188 -11 131 -11 c 0
 59 -11 15 35 15 113 c 0
 15 180 45 299 75 349 c 0
 114 413 225 482 290 482 c 0
 340 482 374 451 374 404 c 0
 374 342 335 296 250 259 c 0
 225 248 198 238 181 234 c 2
 99 214 l 1
 94 185 91 158 91 133 c 0
 91 73 120 36 167 36 c 0
 203 36 251 56 304 94 c 2
 328 111 l 1
113 274 m 2
 104 237 l 1
 149 247 185 258 213 272 c 0
 265 297 300 344 300 388 c 0
 300 420 281 440 252 440 c 0
 228 440 197 428 179 412 c 0
 150 386 130 343 113 274 c 2
310 679 m 1
 398 510 l 1
 362 510 l 1
 280 614 l 1
 143 510 l 1
 104 510 l 1
 261 679 l 1
 310 679 l 1
EndSplineSet
KernsSLIF: 121 15 0 0 119 5 0 0 118 5 0 0
Ligature: 0 0 'liga' e uni0302
EndChar
StartChar: ecaron
Encoding: 338 283 232
Width: 389
Flags: W
HStem: -11 47<131 167> 440 42<252 290>
VStem: 15 76<113 135> 300 74<387 404>
Fore
328 111 m 1
 336 92 l 1
 244 17 188 -11 131 -11 c 0
 59 -11 15 35 15 113 c 0
 15 180 45 299 75 349 c 0
 114 413 225 482 290 482 c 0
 340 482 374 451 374 404 c 0
 374 342 335 296 250 259 c 0
 225 248 198 238 181 234 c 2
 99 214 l 1
 94 185 91 158 91 133 c 0
 91 73 120 36 167 36 c 0
 203 36 251 56 304 94 c 2
 328 111 l 1
113 274 m 2
 104 237 l 1
 149 247 185 258 213 272 c 0
 265 297 300 344 300 388 c 0
 300 420 281 440 252 440 c 0
 228 440 197 428 179 412 c 0
 150 386 130 343 113 274 c 2
274 510 m 1
 228 510 l 1
 132 679 l 1
 169 679 l 1
 259 574 l 1
 401 679 l 1
 437 679 l 1
 274 510 l 1
EndSplineSet
Ligature: 0 0 'liga' e uni030C
EndChar
StartChar: edotaccent
Encoding: 339 279 233
Width: 389
Flags: W
HStem: -11 47<131 167> 440 42<252 290> 537 108<248 260>
VStem: 15 76<113 135> 203 108<581.923 598> 300 74<387 404>
Fore
328 111 m 1xf4
 336 92 l 1
 244 17 188 -11 131 -11 c 0
 59 -11 15 35 15 113 c 0
 15 180 45 299 75 349 c 0
 114 413 225 482 290 482 c 0
 340 482 374 451 374 404 c 0
 374 342 335 296 250 259 c 0
 225 248 198 238 181 234 c 2
 99 214 l 1
 94 185 91 158 91 133 c 0
 91 73 120 36 167 36 c 0
 203 36 251 56 304 94 c 2
 328 111 l 1xf4
113 274 m 2
 104 237 l 1
 149 247 185 258 213 272 c 0
 265 297 300 344 300 388 c 0
 300 420 281 440 252 440 c 0
 228 440 197 428 179 412 c 0
 150 386 130 343 113 274 c 2
258 645 m 0
 286 645 311 620 311 592 c 0
 311 563 286 537 257 537 c 0
 228 537 203 563 203 592 c 0xf8
 203 620 228 645 258 645 c 0
EndSplineSet
Ligature: 0 0 'liga' e uni0307
EndChar
StartChar: eogonek
Encoding: 340 281 234
Width: 389
Flags: W
HStem: -187 56<173 213> -11 47<132 167> 440 42<252 290>
VStem: 15 76<113 135> 119 56<-122 -85> 300 74<387 404>
Fore
328 111 m 1
 336 92 l 1
 280 48 228 5 214 -9 c 0
 190 -34 175 -62 175 -85 c 0
 175 -112 191 -131 213 -131 c 0
 230 -131 243 -122 263 -97 c 1
 277 -101 l 1
 245 -160 212 -187 173 -187 c 0
 140 -187 119 -161 119 -122 c 0
 119 -86 133 -60 180 -10 c 1
 187 -1 l 1
 165 -8 150 -11 132 -11 c 0
 59 -11 15 35 15 113 c 0
 15 180 45 299 75 349 c 0
 114 413 225 482 290 482 c 0
 340 482 374 451 374 404 c 0
 374 342 335 296 250 259 c 0
 225 248 198 238 181 234 c 2
 99 214 l 1
 94 185 91 158 91 133 c 0
 91 73 120 36 167 36 c 0
 203 36 251 56 304 94 c 2
 328 111 l 1
113 274 m 2
 104 237 l 1
 149 247 185 258 213 272 c 0
 265 297 300 344 300 388 c 0
 300 420 281 440 252 440 c 0
 228 440 197 428 179 412 c 0
 150 386 130 343 113 274 c 2
EndSplineSet
Ligature: 0 0 'liga' e uni0328
EndChar
StartChar: gbreve
Encoding: 341 287 235
Width: 500
Flags: W
HStem: -276 28<142 168> 136 32<177 219> 378 46<393 441> 448 34<250 275> 518 59<298 322>
VStem: -37 64<-159 -143> 55 71<259 288> 139 74<52 100> 318 66<-154 -121> 337 72<331 349>
Fore
405 380 m 1xff80
 406 375 l 1
 408 360 409 351 409 342 c 0xff40
 409 253 338 170 240 146 c 1
 238 143 237 142 234 138 c 0
 219 119 213 109 213 100 c 0
 213 81 226 62 260 35 c 2
 320 -14 l 2
 363 -49 384 -85 384 -121 c 0
 384 -204 271 -276 142 -276 c 0
 33 -276 -37 -230 -37 -159 c 0
 -37 -119 -18 -80 16 -52 c 0
 53 -21 84 -6 160 19 c 1
 146 31 139 42 139 52 c 0
 139 66 150 84 166 99 c 2
 207 137 l 1
 196 136 185 136 177 136 c 0
 100 136 55 182 55 259 c 0
 55 330 84 388 140 430 c 0
 184 463 234 482 275 482 c 0
 296 482 321 477 342 469 c 0
 367 459 377 450 393 424 c 1
 447 424 467 426 495 433 c 1
 498 427 l 1
 489 382 l 1
 466 379 456 378 439 378 c 0
 430 378 422 378 405 380 c 1xff80
253 -58 m 2
 176 1 l 1
 125 -14 103 -24 77 -45 c 0
 45 -72 27 -107 27 -145 c 0
 27 -206 84 -248 166 -248 c 0
 249 -248 318 -206 318 -154 c 0xff80
 318 -121 299 -94 253 -58 c 2
250 448 m 0
 177 448 126 383 126 288 c 0
 126 209 158 168 219 168 c 0
 289 168 337 238 337 341 c 0xff40
 337 412 308 448 250 448 c 0
176 677 m 1
 205 677 l 1
 211 611 248 577 314 577 c 0
 374 577 410 604 448 677 c 1
 477 677 l 1
 463 625 453 603 432 577 c 0
 400 537 359 518 307 518 c 0
 255 518 217 538 196 576 c 0
 181 603 176 626 176 677 c 1
EndSplineSet
Ligature: 0 0 'liga' g uni0306
EndChar
StartChar: idieresis
Encoding: 342 239 236
Width: 278
Flags: W
HStem: -9 65<81 144> 412 70<121 196> 557 100<101 103 291.886 307>
VStem: 51 80<30 76> 51 100<608 616> 251 100<608 616>
DStem: 62 408 73 389 34 388 41 368 130 347 215 420 64 107 138 116
Fore
34 388 m 1xf4
 62 408 l 2
 137 461 174 482 196 482 c 0
 212 482 221 473 221 456 c 0
 221 448 219 436 215 420 c 2
 138 116 l 1
 133 95 131 86 131 76 c 0
 131 65 137 56 144 56 c 0
 154 56 176 67 205 86 c 2
 231 103 l 1
 241 85 l 1
 143 12 107 -9 81 -9 c 0
 62 -9 51 6 51 30 c 0
 51 49 56 76 64 107 c 1
 130 347 l 2
 134 361 138 384 138 391 c 0
 138 403 131 412 121 412 c 0
 112 412 101 407 73 389 c 2
 41 368 l 1
 34 388 l 1xf4
101 657 m 0
 127 657 151 633 151 608 c 0
 151 582 127 557 101 557 c 0
 75 557 51 582 51 608 c 0xec
 51 634 75 657 101 657 c 0
301 657 m 0
 327 657 351 633 351 608 c 0
 351 582 327 557 301 557 c 0
 275 557 251 582 251 608 c 0
 251 634 275 657 301 657 c 0
EndSplineSet
Ligature: 0 0 'liga' i uni0308
EndChar
